<svg width="115" height="19" viewBox="0 0 115 19" fill="none" xmlns="http://www.w3.org/2000/svg">
<path d="M0.4615 18L5.2855 1.2H9.9895L14.8135 18H10.7095L9.8695 14.712H5.2615L4.3975 18H0.4615ZM6.1015 11.52H9.0535L7.5895 5.784L6.1015 11.52ZM16.2441 17.976V0.767999L20.1321 0.215999V6.648C20.5161 6.264 20.9481 5.968 21.4281 5.76C21.9241 5.536 22.4441 5.424 22.9881 5.424C23.9961 5.424 24.9161 5.704 25.7481 6.264C26.5801 6.824 27.2441 7.584 27.7401 8.544C28.2361 9.504 28.4841 10.592 28.4841 11.808C28.4841 13.008 28.2361 14.096 27.7401 15.072C27.2441 16.032 26.5801 16.792 25.7481 17.352C24.9161 17.912 23.9961 18.192 22.9881 18.192C22.3961 18.192 21.8441 18.072 21.3321 17.832C20.8361 17.592 20.3881 17.248 19.9881 16.8V17.976H16.2441ZM22.0761 15.12C22.6201 15.12 23.0841 14.984 23.4681 14.712C23.8521 14.44 24.1481 14.056 24.3561 13.56C24.5641 13.048 24.6681 12.464 24.6681 11.808C24.6681 11.136 24.5641 10.552 24.3561 10.056C24.1481 9.56 23.8521 9.176 23.4681 8.904C23.0841 8.632 22.6201 8.496 22.0761 8.496C21.7081 8.496 21.3561 8.568 21.0201 8.712C20.7001 8.84 20.4041 9.024 20.1321 9.264V14.352C20.4041 14.592 20.7001 14.784 21.0201 14.928C21.3561 15.056 21.7081 15.12 22.0761 15.12ZM36.4428 18.24C35.2108 18.24 34.1068 17.96 33.1308 17.4C32.1548 16.824 31.3788 16.056 30.8027 15.096C30.2428 14.12 29.9628 13.024 29.9628 11.808C29.9628 10.608 30.2428 9.528 30.8027 8.568C31.3788 7.608 32.1548 6.848 33.1308 6.288C34.1068 5.712 35.2028 5.424 36.4188 5.424C37.6508 5.424 38.7468 5.712 39.7068 6.288C40.6828 6.848 41.4508 7.608 42.0108 8.568C42.5868 9.528 42.8748 10.616 42.8748 11.832C42.8748 13.032 42.5868 14.12 42.0108 15.096C41.4508 16.056 40.6828 16.824 39.7068 17.4C38.7468 17.96 37.6588 18.24 36.4428 18.24ZM36.4188 14.976C36.9468 14.976 37.4108 14.84 37.8108 14.568C38.2108 14.296 38.5228 13.928 38.7468 13.464C38.9708 12.984 39.0828 12.44 39.0828 11.832C39.0828 11.224 38.9708 10.688 38.7468 10.224C38.5228 9.744 38.2108 9.368 37.8108 9.096C37.4108 8.824 36.9468 8.688 36.4188 8.688C35.9068 8.688 35.4428 8.824 35.0268 9.096C34.6268 9.368 34.3148 9.744 34.0908 10.224C33.8668 10.688 33.7548 11.224 33.7548 11.832C33.7548 12.44 33.8668 12.984 34.0908 13.464C34.3148 13.928 34.6268 14.296 35.0268 14.568C35.4428 14.84 35.9068 14.976 36.4188 14.976ZM49.0334 18.192C48.2334 18.192 47.5214 18.016 46.8974 17.664C46.2894 17.296 45.8094 16.8 45.4574 16.176C45.1054 15.536 44.9294 14.8 44.9294 13.968V5.616H48.8174V12.84C48.8174 13.528 49.0014 14.088 49.3694 14.52C49.7534 14.936 50.2574 15.144 50.8814 15.144C51.2494 15.144 51.5774 15.088 51.8654 14.976C52.1694 14.848 52.4494 14.656 52.7054 14.4V5.616H56.5934V18H52.7054V16.32C51.7454 17.568 50.5214 18.192 49.0334 18.192ZM67.552 18.24C65.824 18.24 64.52 17.856 63.64 17.088C62.76 16.304 62.32 15.152 62.32 13.632V8.616H58.696V5.616H62.32V2.184L66.208 1.392V5.616H70.888V8.616H66.208V12.864C66.208 13.648 66.36 14.2 66.664 14.52C66.984 14.824 67.536 14.976 68.32 14.976C68.672 14.976 69.048 14.952 69.448 14.904C69.848 14.856 70.352 14.752 70.96 14.592V17.736C70.48 17.864 69.92 17.976 69.28 18.072C68.656 18.184 68.08 18.24 67.552 18.24ZM87.7413 18V1.2H92.0853L94.0053 6.384L95.8773 1.2H100.221V18H96.7413V7.056L93.9573 13.944L91.1973 7.056L91.1733 18H87.7413ZM108.732 18.24C107.484 18.24 106.356 17.96 105.348 17.4C104.356 16.824 103.564 16.056 102.972 15.096C102.38 14.12 102.084 13.032 102.084 11.832C102.084 10.616 102.364 9.528 102.924 8.568C103.484 7.608 104.244 6.848 105.204 6.288C106.164 5.712 107.244 5.424 108.444 5.424C109.692 5.424 110.788 5.704 111.732 6.264C112.692 6.824 113.436 7.6 113.964 8.592C114.508 9.568 114.78 10.696 114.78 11.976V12.816H105.9C106.028 13.28 106.236 13.688 106.524 14.04C106.812 14.392 107.164 14.664 107.58 14.856C107.996 15.048 108.444 15.144 108.924 15.144C109.484 15.144 109.988 15.04 110.436 14.832C110.9 14.624 111.284 14.328 111.588 13.944L114.084 16.176C113.3 16.928 112.476 17.464 111.612 17.784C110.764 18.088 109.804 18.24 108.732 18.24ZM105.924 10.608H111.18C111.068 10.144 110.892 9.752 110.652 9.432C110.412 9.112 110.116 8.872 109.764 8.712C109.412 8.536 109.012 8.448 108.564 8.448C108.132 8.448 107.732 8.536 107.364 8.712C107.012 8.872 106.716 9.112 106.476 9.432C106.236 9.752 106.052 10.144 105.924 10.608Z" fill="#717B85"/>
</svg>
