<svg width="388" height="21" viewBox="0 0 388 21" fill="none" xmlns="http://www.w3.org/2000/svg">
<path d="M0.250563 20.0007L5.07456 3.20067H9.77856L14.6026 20.0007H10.4986L9.65856 16.7127H5.05056L4.18656 20.0007H0.250563ZM5.89056 13.5207H8.84256L7.37856 7.78467L5.89056 13.5207ZM20.8572 20.1927C19.8492 20.1927 18.9292 19.9127 18.0972 19.3527C17.2652 18.7927 16.6012 18.0327 16.1052 17.0727C15.6092 16.0967 15.3612 15.0087 15.3612 13.8087C15.3612 12.5927 15.6092 11.5047 16.1052 10.5447C16.6012 9.58467 17.2652 8.82467 18.0972 8.26467C18.9292 7.70467 19.8492 7.42467 20.8572 7.42467C21.4172 7.42467 21.9372 7.53667 22.4172 7.76067C22.8972 7.96867 23.3292 8.26467 23.7132 8.64867V2.86467L27.6012 2.31267V20.0007H23.8572V18.8007C23.4572 19.2487 23.0012 19.5927 22.4892 19.8327C21.9932 20.0727 21.4492 20.1927 20.8572 20.1927ZM21.7692 17.1207C22.1372 17.1207 22.4892 17.0567 22.8252 16.9287C23.1612 16.7847 23.4572 16.5927 23.7132 16.3527V11.2647C23.4572 11.0247 23.1612 10.8407 22.8252 10.7127C22.4892 10.5687 22.1372 10.4967 21.7692 10.4967C21.2412 10.4967 20.7772 10.6327 20.3772 10.9047C19.9932 11.1767 19.6972 11.5607 19.4892 12.0567C19.2812 12.5527 19.1772 13.1367 19.1772 13.8087C19.1772 14.4647 19.2812 15.0487 19.4892 15.5607C19.6972 16.0567 19.9932 16.4407 20.3772 16.7127C20.7772 16.9847 21.2412 17.1207 21.7692 17.1207ZM35.2478 20.1927C34.2398 20.1927 33.3198 19.9127 32.4878 19.3527C31.6558 18.7927 30.9918 18.0327 30.4958 17.0727C29.9998 16.0967 29.7518 15.0087 29.7518 13.8087C29.7518 12.5927 29.9998 11.5047 30.4958 10.5447C30.9918 9.58467 31.6558 8.82467 32.4878 8.26467C33.3198 7.70467 34.2398 7.42467 35.2478 7.42467C35.8078 7.42467 36.3278 7.53667 36.8078 7.76067C37.2878 7.96867 37.7198 8.26467 38.1038 8.64867V2.86467L41.9918 2.31267V20.0007H38.2478V18.8007C37.8478 19.2487 37.3918 19.5927 36.8798 19.8327C36.3838 20.0727 35.8398 20.1927 35.2478 20.1927ZM36.1598 17.1207C36.5278 17.1207 36.8798 17.0567 37.2158 16.9287C37.5518 16.7847 37.8478 16.5927 38.1038 16.3527V11.2647C37.8478 11.0247 37.5518 10.8407 37.2158 10.7127C36.8798 10.5687 36.5278 10.4967 36.1598 10.4967C35.6318 10.4967 35.1678 10.6327 34.7678 10.9047C34.3838 11.1767 34.0878 11.5607 33.8798 12.0567C33.6718 12.5527 33.5678 13.1367 33.5678 13.8087C33.5678 14.4647 33.6718 15.0487 33.8798 15.5607C34.0878 16.0567 34.3838 16.4407 34.7678 16.7127C35.1678 16.9847 35.6318 17.1207 36.1598 17.1207ZM50.6224 5.74467C49.9504 5.74467 49.3744 5.50467 48.8944 5.02467C48.4144 4.54467 48.1744 3.96867 48.1744 3.29667C48.1744 2.62467 48.4144 2.04867 48.8944 1.56867C49.3744 1.08867 49.9504 0.84867 50.6224 0.84867C51.2944 0.84867 51.8704 1.08867 52.3504 1.56867C52.8304 2.04867 53.0704 2.62467 53.0704 3.29667C53.0704 3.96867 52.8304 4.54467 52.3504 5.02467C51.8704 5.50467 51.2944 5.74467 50.6224 5.74467ZM53.8864 20.2407C52.1744 20.2407 50.8784 19.8327 49.9984 19.0167C49.1184 18.2007 48.6784 16.9927 48.6784 15.3927V10.6167H44.4064V7.61667H52.5664V14.9847C52.5664 15.6727 52.7344 16.1767 53.0704 16.4967C53.4064 16.8167 53.9424 16.9767 54.6784 16.9767C55.0304 16.9767 55.3664 16.9447 55.6864 16.8807C56.0224 16.8167 56.3904 16.7047 56.7904 16.5447V19.6887C56.5344 19.8167 56.1184 19.9367 55.5424 20.0487C54.9664 20.1767 54.4144 20.2407 53.8864 20.2407ZM67.3411 20.2407C65.6131 20.2407 64.3091 19.8567 63.4291 19.0887C62.5491 18.3047 62.1091 17.1527 62.1091 15.6327V10.6167H58.4851V7.61667H62.1091V4.18467L65.9971 3.39267V7.61667H70.6771V10.6167H65.9971V14.8647C65.9971 15.6487 66.1491 16.2007 66.4531 16.5207C66.7731 16.8247 67.3251 16.9767 68.1091 16.9767C68.4611 16.9767 68.8371 16.9527 69.2371 16.9047C69.6371 16.8567 70.1411 16.7527 70.7491 16.5927V19.7367C70.2691 19.8647 69.7091 19.9767 69.0691 20.0727C68.4451 20.1847 67.8691 20.2407 67.3411 20.2407ZM79.4037 5.74467C78.7317 5.74467 78.1557 5.50467 77.6757 5.02467C77.1957 4.54467 76.9557 3.96867 76.9557 3.29667C76.9557 2.62467 77.1957 2.04867 77.6757 1.56867C78.1557 1.08867 78.7317 0.84867 79.4037 0.84867C80.0757 0.84867 80.6517 1.08867 81.1317 1.56867C81.6117 2.04867 81.8517 2.62467 81.8517 3.29667C81.8517 3.96867 81.6117 4.54467 81.1317 5.02467C80.6517 5.50467 80.0757 5.74467 79.4037 5.74467ZM82.6677 20.2407C80.9557 20.2407 79.6597 19.8327 78.7797 19.0167C77.8997 18.2007 77.4597 16.9927 77.4597 15.3927V10.6167H73.1877V7.61667H81.3477V14.9847C81.3477 15.6727 81.5157 16.1767 81.8517 16.4967C82.1877 16.8167 82.7237 16.9767 83.4597 16.9767C83.8117 16.9767 84.1477 16.9447 84.4677 16.8807C84.8037 16.8167 85.1717 16.7047 85.5717 16.5447V19.6887C85.3157 19.8167 84.8997 19.9367 84.3237 20.0487C83.7477 20.1767 83.1957 20.2407 82.6677 20.2407ZM93.7943 20.2407C92.5623 20.2407 91.4583 19.9607 90.4823 19.4007C89.5063 18.8247 88.7303 18.0567 88.1543 17.0967C87.5943 16.1207 87.3143 15.0247 87.3143 13.8087C87.3143 12.6087 87.5943 11.5287 88.1543 10.5687C88.7303 9.60867 89.5063 8.84867 90.4823 8.28867C91.4583 7.71267 92.5543 7.42467 93.7703 7.42467C95.0023 7.42467 96.0983 7.71267 97.0583 8.28867C98.0343 8.84867 98.8023 9.60867 99.3623 10.5687C99.9383 11.5287 100.226 12.6167 100.226 13.8327C100.226 15.0327 99.9383 16.1207 99.3623 17.0967C98.8023 18.0567 98.0343 18.8247 97.0583 19.4007C96.0983 19.9607 95.0103 20.2407 93.7943 20.2407ZM93.7703 16.9767C94.2983 16.9767 94.7623 16.8407 95.1623 16.5687C95.5623 16.2967 95.8743 15.9287 96.0983 15.4647C96.3223 14.9847 96.4343 14.4407 96.4343 13.8327C96.4343 13.2247 96.3223 12.6887 96.0983 12.2247C95.8743 11.7447 95.5623 11.3687 95.1623 11.0967C94.7623 10.8247 94.2983 10.6887 93.7703 10.6887C93.2583 10.6887 92.7943 10.8247 92.3783 11.0967C91.9783 11.3687 91.6663 11.7447 91.4423 12.2247C91.2183 12.6887 91.1063 13.2247 91.1063 13.8327C91.1063 14.4407 91.2183 14.9847 91.4423 15.4647C91.6663 15.9287 91.9783 16.2967 92.3783 16.5687C92.7943 16.8407 93.2583 16.9767 93.7703 16.9767ZM102.377 20.0007V7.61667H106.265V9.29667C107.225 8.04867 108.449 7.42467 109.937 7.42467C110.737 7.42467 111.441 7.60867 112.049 7.97667C112.673 8.32867 113.161 8.82467 113.513 9.46467C113.865 10.0887 114.041 10.8167 114.041 11.6487V20.0007H110.153V12.7767C110.153 12.0727 109.961 11.5127 109.577 11.0967C109.209 10.6807 108.713 10.4727 108.089 10.4727C107.737 10.4727 107.409 10.5367 107.105 10.6647C106.801 10.7767 106.521 10.9607 106.265 11.2167V20.0007H102.377ZM120.752 20.1927C119.92 20.1927 119.176 20.0327 118.52 19.7127C117.88 19.3927 117.376 18.9527 117.008 18.3927C116.656 17.8327 116.48 17.1847 116.48 16.4487C116.48 15.6807 116.672 15.0327 117.056 14.5047C117.44 13.9607 117.992 13.5527 118.712 13.2807C119.432 12.9927 120.296 12.8487 121.304 12.8487C121.752 12.8487 122.208 12.8967 122.672 12.9927C123.136 13.0887 123.64 13.2487 124.184 13.4727V12.4167C124.184 11.8087 123.984 11.3607 123.584 11.0727C123.184 10.7687 122.568 10.6167 121.736 10.6167C121.272 10.6167 120.752 10.6967 120.176 10.8567C119.616 11.0007 118.976 11.2247 118.256 11.5287L116.864 8.76867C117.904 8.30467 118.888 7.96867 119.816 7.76067C120.76 7.53667 121.688 7.42467 122.6 7.42467C124.312 7.42467 125.64 7.83267 126.584 8.64867C127.544 9.46467 128.024 10.6087 128.024 12.0807V20.0007H124.184V18.8247C123.64 19.3047 123.096 19.6567 122.552 19.8807C122.008 20.0887 121.408 20.1927 120.752 20.1927ZM120.056 16.3767C120.056 16.7767 120.224 17.0887 120.56 17.3127C120.896 17.5207 121.36 17.6247 121.952 17.6247C122.368 17.6247 122.76 17.5687 123.128 17.4567C123.512 17.3287 123.864 17.1527 124.184 16.9287V15.4647C123.832 15.3687 123.472 15.2967 123.104 15.2487C122.752 15.1847 122.4 15.1527 122.048 15.1527C121.424 15.1527 120.936 15.2567 120.584 15.4647C120.232 15.6727 120.056 15.9767 120.056 16.3767ZM139.87 20.2407C138.158 20.2407 136.862 19.8327 135.982 19.0167C135.102 18.2007 134.662 16.9927 134.662 15.3927V5.55267H130.39V2.55267H138.55V14.9847C138.55 15.6727 138.718 16.1767 139.054 16.4967C139.39 16.8167 139.926 16.9767 140.662 16.9767C141.014 16.9767 141.35 16.9447 141.67 16.8807C142.006 16.8167 142.374 16.7047 142.774 16.5447V19.6887C142.518 19.8167 142.102 19.9367 141.526 20.0487C140.95 20.1767 140.398 20.2407 139.87 20.2407ZM165.723 20.2647C164.443 20.2647 163.235 20.0727 162.099 19.6887C160.979 19.3047 159.875 18.7447 158.787 18.0087L160.803 14.9127C161.875 15.6167 162.795 16.1287 163.563 16.4487C164.331 16.7527 165.083 16.9047 165.819 16.9047C166.347 16.9047 166.795 16.8327 167.163 16.6887C167.547 16.5447 167.843 16.3447 168.051 16.0887C168.259 15.8327 168.363 15.5367 168.363 15.2007C168.363 14.7207 168.195 14.3527 167.859 14.0967C167.523 13.8407 167.083 13.6407 166.539 13.4967C165.995 13.3367 165.395 13.2007 164.739 13.0887C164.083 12.9607 163.427 12.8087 162.771 12.6327C162.115 12.4407 161.515 12.1767 160.971 11.8407C160.427 11.5047 159.987 11.0567 159.651 10.4967C159.315 9.92067 159.147 9.17667 159.147 8.26467C159.147 7.16067 159.403 6.21667 159.915 5.43267C160.427 4.63267 161.163 4.01667 162.123 3.58467C163.099 3.15267 164.267 2.93667 165.627 2.93667C166.859 2.93667 168.043 3.12067 169.179 3.48867C170.331 3.85667 171.315 4.36867 172.131 5.02467L170.043 8.02467C169.291 7.44867 168.531 7.01667 167.763 6.72867C167.011 6.44067 166.227 6.29667 165.411 6.29667C164.659 6.29667 164.075 6.44867 163.659 6.75267C163.243 7.05667 163.035 7.44067 163.035 7.90467C163.035 8.33667 163.203 8.67267 163.539 8.91267C163.875 9.13667 164.323 9.32067 164.883 9.46467C165.443 9.60867 166.051 9.74467 166.707 9.87267C167.379 9.98467 168.043 10.1447 168.699 10.3527C169.371 10.5447 169.987 10.8167 170.547 11.1687C171.107 11.5047 171.555 11.9687 171.891 12.5607C172.227 13.1527 172.395 13.9047 172.395 14.8167C172.395 15.8887 172.123 16.8407 171.579 17.6727C171.035 18.4887 170.259 19.1287 169.251 19.5927C168.259 20.0407 167.083 20.2647 165.723 20.2647ZM174.33 20.0007V2.86467L178.218 2.31267V12.5367L182.538 7.61667H186.834L181.794 13.1607L187.194 20.0007H182.346L178.218 14.5287V20.0007H174.33ZM194.529 5.74467C193.857 5.74467 193.281 5.50467 192.801 5.02467C192.321 4.54467 192.081 3.96867 192.081 3.29667C192.081 2.62467 192.321 2.04867 192.801 1.56867C193.281 1.08867 193.857 0.84867 194.529 0.84867C195.201 0.84867 195.777 1.08867 196.257 1.56867C196.737 2.04867 196.977 2.62467 196.977 3.29667C196.977 3.96867 196.737 4.54467 196.257 5.02467C195.777 5.50467 195.201 5.74467 194.529 5.74467ZM197.793 20.2407C196.081 20.2407 194.785 19.8327 193.905 19.0167C193.025 18.2007 192.585 16.9927 192.585 15.3927V10.6167H188.313V7.61667H196.473V14.9847C196.473 15.6727 196.641 16.1767 196.977 16.4967C197.313 16.8167 197.849 16.9767 198.585 16.9767C198.937 16.9767 199.273 16.9447 199.593 16.8807C199.929 16.8167 200.297 16.7047 200.697 16.5447V19.6887C200.441 19.8167 200.025 19.9367 199.449 20.0487C198.873 20.1767 198.321 20.2407 197.793 20.2407ZM211.823 20.2407C210.111 20.2407 208.815 19.8327 207.935 19.0167C207.055 18.2007 206.615 16.9927 206.615 15.3927V5.55267H202.343V2.55267H210.503V14.9847C210.503 15.6727 210.671 16.1767 211.007 16.4967C211.343 16.8167 211.879 16.9767 212.615 16.9767C212.967 16.9767 213.303 16.9447 213.623 16.8807C213.959 16.8167 214.327 16.7047 214.727 16.5447V19.6887C214.471 19.8167 214.055 19.9367 213.479 20.0487C212.903 20.1767 212.351 20.2407 211.823 20.2407ZM226.214 20.2407C224.502 20.2407 223.206 19.8327 222.326 19.0167C221.446 18.2007 221.006 16.9927 221.006 15.3927V5.55267H216.734V2.55267H224.894V14.9847C224.894 15.6727 225.062 16.1767 225.398 16.4967C225.734 16.8167 226.27 16.9767 227.006 16.9767C227.358 16.9767 227.694 16.9447 228.014 16.8807C228.35 16.8167 228.718 16.7047 229.118 16.5447V19.6887C228.862 19.8167 228.446 19.9367 227.87 20.0487C227.294 20.1767 226.742 20.2407 226.214 20.2407ZM237.605 20.2407C236.405 20.2407 235.285 20.0887 234.245 19.7847C233.221 19.4647 232.341 19.0327 231.605 18.4887L233.405 15.9927C234.317 16.5207 235.085 16.8887 235.709 17.0967C236.349 17.2887 236.989 17.3847 237.629 17.3847C238.381 17.3847 238.949 17.2967 239.333 17.1207C239.733 16.9447 239.933 16.6967 239.933 16.3767C239.933 16.1207 239.789 15.9207 239.501 15.7767C239.229 15.6327 238.861 15.5207 238.397 15.4407C237.949 15.3447 237.453 15.2487 236.909 15.1527C236.365 15.0567 235.813 14.9367 235.253 14.7927C234.709 14.6327 234.205 14.4167 233.741 14.1447C233.293 13.8727 232.925 13.5207 232.637 13.0887C232.365 12.6407 232.229 12.0807 232.229 11.4087C232.229 10.5287 232.453 9.79267 232.901 9.20067C233.349 8.60867 233.981 8.16067 234.797 7.85667C235.629 7.53667 236.589 7.37667 237.677 7.37667C238.637 7.37667 239.605 7.51267 240.581 7.78467C241.557 8.05667 242.453 8.47267 243.269 9.03267L241.397 11.4087C240.773 10.9927 240.133 10.6887 239.477 10.4967C238.837 10.3047 238.205 10.2087 237.581 10.2087C236.941 10.2087 236.453 10.2887 236.117 10.4487C235.797 10.5927 235.637 10.8007 235.637 11.0727C235.637 11.3287 235.773 11.5287 236.045 11.6727C236.333 11.8007 236.709 11.9047 237.173 11.9847C237.653 12.0647 238.173 12.1527 238.733 12.2487C239.293 12.3287 239.845 12.4487 240.389 12.6087C240.949 12.7527 241.461 12.9687 241.925 13.2567C242.405 13.5287 242.781 13.8887 243.053 14.3367C243.341 14.7847 243.485 15.3607 243.485 16.0647C243.485 16.9127 243.221 17.6487 242.693 18.2727C242.181 18.8967 241.477 19.3847 240.581 19.7367C239.701 20.0727 238.709 20.2407 237.605 20.2407ZM264.658 20.1927C263.826 20.1927 263.082 20.0327 262.426 19.7127C261.786 19.3927 261.282 18.9527 260.914 18.3927C260.562 17.8327 260.386 17.1847 260.386 16.4487C260.386 15.6807 260.578 15.0327 260.962 14.5047C261.346 13.9607 261.898 13.5527 262.618 13.2807C263.338 12.9927 264.202 12.8487 265.21 12.8487C265.658 12.8487 266.114 12.8967 266.578 12.9927C267.042 13.0887 267.546 13.2487 268.09 13.4727V12.4167C268.09 11.8087 267.89 11.3607 267.49 11.0727C267.09 10.7687 266.474 10.6167 265.642 10.6167C265.178 10.6167 264.658 10.6967 264.082 10.8567C263.522 11.0007 262.882 11.2247 262.162 11.5287L260.77 8.76867C261.81 8.30467 262.794 7.96867 263.722 7.76067C264.666 7.53667 265.594 7.42467 266.506 7.42467C268.218 7.42467 269.546 7.83267 270.49 8.64867C271.45 9.46467 271.93 10.6087 271.93 12.0807V20.0007H268.09V18.8247C267.546 19.3047 267.002 19.6567 266.458 19.8807C265.914 20.0887 265.314 20.1927 264.658 20.1927ZM263.962 16.3767C263.962 16.7767 264.13 17.0887 264.466 17.3127C264.802 17.5207 265.266 17.6247 265.858 17.6247C266.274 17.6247 266.666 17.5687 267.034 17.4567C267.418 17.3287 267.77 17.1527 268.09 16.9287V15.4647C267.738 15.3687 267.378 15.2967 267.01 15.2487C266.658 15.1847 266.306 15.1527 265.954 15.1527C265.33 15.1527 264.842 15.2567 264.49 15.4647C264.138 15.6727 263.962 15.9767 263.962 16.3767ZM275.064 20.0007V7.61667H278.952V9.29667C279.912 8.04867 281.136 7.42467 282.624 7.42467C283.424 7.42467 284.128 7.60867 284.736 7.97667C285.36 8.32867 285.848 8.82467 286.2 9.46467C286.552 10.0887 286.728 10.8167 286.728 11.6487V20.0007H282.84V12.7767C282.84 12.0727 282.648 11.5127 282.264 11.0967C281.896 10.6807 281.4 10.4727 280.776 10.4727C280.424 10.4727 280.096 10.5367 279.792 10.6647C279.488 10.7767 279.208 10.9607 278.952 11.2167V20.0007H275.064ZM294.279 20.1927C293.271 20.1927 292.351 19.9127 291.519 19.3527C290.687 18.7927 290.023 18.0327 289.527 17.0727C289.031 16.0967 288.783 15.0087 288.783 13.8087C288.783 12.5927 289.031 11.5047 289.527 10.5447C290.023 9.58467 290.687 8.82467 291.519 8.26467C292.351 7.70467 293.271 7.42467 294.279 7.42467C294.839 7.42467 295.359 7.53667 295.839 7.76067C296.319 7.96867 296.751 8.26467 297.135 8.64867V2.86467L301.023 2.31267V20.0007H297.279V18.8007C296.879 19.2487 296.423 19.5927 295.911 19.8327C295.415 20.0727 294.871 20.1927 294.279 20.1927ZM295.191 17.1207C295.559 17.1207 295.911 17.0567 296.247 16.9287C296.583 16.7847 296.879 16.5927 297.135 16.3527V11.2647C296.879 11.0247 296.583 10.8407 296.247 10.7127C295.911 10.5687 295.559 10.4967 295.191 10.4967C294.663 10.4967 294.199 10.6327 293.799 10.9047C293.415 11.1767 293.119 11.5607 292.911 12.0567C292.703 12.5527 292.599 13.1367 292.599 13.8087C292.599 14.4647 292.703 15.0487 292.911 15.5607C293.119 16.0567 293.415 16.4407 293.799 16.7127C294.199 16.9847 294.663 17.1207 295.191 17.1207ZM321.956 20.0007V6.65667H317.156V3.20067H330.884V6.65667H326.084V20.0007H321.956ZM338.435 20.2407C337.203 20.2407 336.099 19.9607 335.123 19.4007C334.147 18.8247 333.371 18.0567 332.795 17.0967C332.235 16.1207 331.955 15.0247 331.955 13.8087C331.955 12.6087 332.235 11.5287 332.795 10.5687C333.371 9.60867 334.147 8.84867 335.123 8.28867C336.099 7.71267 337.195 7.42467 338.411 7.42467C339.643 7.42467 340.739 7.71267 341.699 8.28867C342.675 8.84867 343.443 9.60867 344.003 10.5687C344.579 11.5287 344.867 12.6167 344.867 13.8327C344.867 15.0327 344.579 16.1207 344.003 17.0967C343.443 18.0567 342.675 18.8247 341.699 19.4007C340.739 19.9607 339.651 20.2407 338.435 20.2407ZM338.411 16.9767C338.939 16.9767 339.403 16.8407 339.803 16.5687C340.203 16.2967 340.515 15.9287 340.739 15.4647C340.963 14.9847 341.075 14.4407 341.075 13.8327C341.075 13.2247 340.963 12.6887 340.739 12.2247C340.515 11.7447 340.203 11.3687 339.803 11.0967C339.403 10.8247 338.939 10.6887 338.411 10.6887C337.899 10.6887 337.435 10.8247 337.019 11.0967C336.619 11.3687 336.307 11.7447 336.083 12.2247C335.859 12.6887 335.747 13.2247 335.747 13.8327C335.747 14.4407 335.859 14.9847 336.083 15.4647C336.307 15.9287 336.619 16.2967 337.019 16.5687C337.435 16.8407 337.899 16.9767 338.411 16.9767ZM352.826 20.2407C351.594 20.2407 350.49 19.9607 349.514 19.4007C348.538 18.8247 347.762 18.0567 347.186 17.0967C346.626 16.1207 346.346 15.0247 346.346 13.8087C346.346 12.6087 346.626 11.5287 347.186 10.5687C347.762 9.60867 348.538 8.84867 349.514 8.28867C350.49 7.71267 351.586 7.42467 352.802 7.42467C354.034 7.42467 355.13 7.71267 356.09 8.28867C357.066 8.84867 357.834 9.60867 358.394 10.5687C358.97 11.5287 359.258 12.6167 359.258 13.8327C359.258 15.0327 358.97 16.1207 358.394 17.0967C357.834 18.0567 357.066 18.8247 356.09 19.4007C355.13 19.9607 354.042 20.2407 352.826 20.2407ZM352.802 16.9767C353.33 16.9767 353.794 16.8407 354.194 16.5687C354.594 16.2967 354.906 15.9287 355.13 15.4647C355.354 14.9847 355.466 14.4407 355.466 13.8327C355.466 13.2247 355.354 12.6887 355.13 12.2247C354.906 11.7447 354.594 11.3687 354.194 11.0967C353.794 10.8247 353.33 10.6887 352.802 10.6887C352.29 10.6887 351.826 10.8247 351.41 11.0967C351.01 11.3687 350.698 11.7447 350.474 12.2247C350.25 12.6887 350.138 13.2247 350.138 13.8327C350.138 14.4407 350.25 14.9847 350.474 15.4647C350.698 15.9287 351.01 16.2967 351.41 16.5687C351.826 16.8407 352.29 16.9767 352.802 16.9767ZM370.12 20.2407C368.408 20.2407 367.112 19.8327 366.232 19.0167C365.352 18.2007 364.912 16.9927 364.912 15.3927V5.55267H360.64V2.55267H368.8V14.9847C368.8 15.6727 368.968 16.1767 369.304 16.4967C369.64 16.8167 370.176 16.9767 370.912 16.9767C371.264 16.9767 371.6 16.9447 371.92 16.8807C372.256 16.8167 372.624 16.7047 373.024 16.5447V19.6887C372.768 19.8167 372.352 19.9367 371.776 20.0487C371.2 20.1767 370.648 20.2407 370.12 20.2407ZM381.511 20.2407C380.311 20.2407 379.191 20.0887 378.151 19.7847C377.127 19.4647 376.247 19.0327 375.511 18.4887L377.311 15.9927C378.223 16.5207 378.991 16.8887 379.615 17.0967C380.255 17.2887 380.895 17.3847 381.535 17.3847C382.287 17.3847 382.855 17.2967 383.239 17.1207C383.639 16.9447 383.839 16.6967 383.839 16.3767C383.839 16.1207 383.695 15.9207 383.407 15.7767C383.135 15.6327 382.767 15.5207 382.303 15.4407C381.855 15.3447 381.359 15.2487 380.815 15.1527C380.271 15.0567 379.719 14.9367 379.159 14.7927C378.615 14.6327 378.111 14.4167 377.647 14.1447C377.199 13.8727 376.831 13.5207 376.543 13.0887C376.271 12.6407 376.135 12.0807 376.135 11.4087C376.135 10.5287 376.359 9.79267 376.807 9.20067C377.255 8.60867 377.887 8.16067 378.703 7.85667C379.535 7.53667 380.495 7.37667 381.583 7.37667C382.543 7.37667 383.511 7.51267 384.487 7.78467C385.463 8.05667 386.359 8.47267 387.175 9.03267L385.303 11.4087C384.679 10.9927 384.039 10.6887 383.383 10.4967C382.743 10.3047 382.111 10.2087 381.487 10.2087C380.847 10.2087 380.359 10.2887 380.023 10.4487C379.703 10.5927 379.543 10.8007 379.543 11.0727C379.543 11.3287 379.679 11.5287 379.951 11.6727C380.239 11.8007 380.615 11.9047 381.079 11.9847C381.559 12.0647 382.079 12.1527 382.639 12.2487C383.199 12.3287 383.751 12.4487 384.295 12.6087C384.855 12.7527 385.367 12.9687 385.831 13.2567C386.311 13.5287 386.687 13.8887 386.959 14.3367C387.247 14.7847 387.391 15.3607 387.391 16.0647C387.391 16.9127 387.127 17.6487 386.599 18.2727C386.087 18.8967 385.383 19.3847 384.487 19.7367C383.607 20.0727 382.615 20.2407 381.511 20.2407Z" fill="#717B85"/>
</svg>
