<svg width="111" height="40" viewBox="0 0 111 40" fill="none" xmlns="http://www.w3.org/2000/svg">
<rect x="0.5" y="0.500671" width="109.955" height="39" rx="2.5" fill="#F8F8F8"/>
<path d="M22.0865 34.8277C19.4665 34.2852 17.0217 33.0749 15.1024 31.3703C10.1751 26.9942 8.65234 20.1196 11.2553 14.0027C11.8945 12.5006 12.9337 10.9761 14.2213 9.65171L15.3565 8.48409L15.4366 15.3181C15.5132 21.8595 15.5305 22.189 15.8399 23.0133C16.4589 24.6624 17.1226 25.7124 18.265 26.8502C21.2162 29.7892 25.5451 30.5227 29.2249 28.7073C32.6838 27.0009 34.8643 23.2905 34.6109 19.5426C34.4407 17.0251 33.5941 15.1791 31.7662 13.3398C30.3841 11.949 28.7579 11.0405 26.9875 10.6701C25.1863 10.2932 25.2727 10.2382 25.2727 11.7628V13.0791L26.2602 13.261C30.0845 13.9657 32.6139 17.7211 31.8167 21.5111C31.5621 22.7215 30.9942 23.7904 30.0827 24.775C28.6973 26.2714 26.7483 26.9866 25.0464 26.9833C22.2323 26.9779 19.8826 25.3788 18.7437 23.0141C18.7437 23.0141 18.4453 22.3382 18.3495 21.9205C17.7856 19.4642 18.146 14.2934 18.146 14.2934L18.1024 6.7329L18.5487 6.5021C18.7942 6.37516 19.0296 6.2713 19.0719 6.2713C19.1142 6.2713 19.1678 9.74383 19.1911 13.988C19.1911 13.988 18.6491 19.5516 19.3189 21.6837C19.4155 21.9913 19.599 22.5174 19.599 22.5174C20.1861 23.7136 21.1272 24.7658 22.3499 25.345C23.278 25.7846 23.7453 25.9836 25.1184 25.9836C26.0156 25.9836 26.8104 25.7004 27.7249 25.2798C28.803 24.784 30.0397 23.4694 30.4967 22.2691C31.7558 18.9622 30.0026 15.4044 26.625 14.4123C25.2446 14.0069 25.2727 13.9845 25.2727 15.4856V16.7967L25.9353 16.9739C28.3238 17.6127 29.0525 20.8141 27.1776 22.459C26.5151 23.0402 25.9182 23.2971 24.874 23.2971C23.7582 23.2971 22.6872 22.6218 22.1366 21.5859C21.8058 20.9637 21.7779 20.3735 21.7779 20.1032C21.7779 17.6063 21.7238 13.1157 21.7238 13.1157L21.6791 5.41264L22.022 5.32747C22.2106 5.28063 22.9729 5.16472 23.7159 5.0699C26.236 4.74831 29.9642 5.57302 32.4689 7.00609C35.8837 8.95987 38.4675 12.3162 39.5433 16.1955C39.9133 17.5299 39.9546 17.9179 39.9546 20.0645C39.9546 22.2015 39.9124 22.6024 39.5502 23.9076C38.087 29.1801 34.365 32.9492 29.043 34.5478C27.9229 34.8842 27.3982 34.9483 25.4218 34.9905C23.8269 35.0245 22.7931 34.9741 22.0865 34.8277Z" fill="#717B85"/>
<path d="M50.7806 24.9867V14.9487L53.0486 14.6267V18.3787C53.2726 18.1547 53.5246 17.982 53.8046 17.8607C54.0939 17.73 54.3973 17.6647 54.7146 17.6647C55.3026 17.6647 55.8393 17.828 56.3246 18.1547C56.8099 18.4813 57.1973 18.9247 57.4866 19.4847C57.7759 20.0447 57.9206 20.6793 57.9206 21.3887C57.9206 22.0887 57.7759 22.7233 57.4866 23.2927C57.1973 23.8527 56.8099 24.296 56.3246 24.6227C55.8393 24.9493 55.3026 25.1127 54.7146 25.1127C54.3693 25.1127 54.0473 25.0427 53.7486 24.9027C53.4593 24.7627 53.1979 24.562 52.9646 24.3007V24.9867H50.7806ZM54.1826 23.3207C54.4999 23.3207 54.7706 23.2413 54.9946 23.0827C55.2186 22.924 55.3913 22.7 55.5126 22.4107C55.6339 22.112 55.6946 21.7713 55.6946 21.3887C55.6946 20.9967 55.6339 20.656 55.5126 20.3667C55.3913 20.0773 55.2186 19.8533 54.9946 19.6947C54.7706 19.536 54.4999 19.4567 54.1826 19.4567C53.9679 19.4567 53.7626 19.4987 53.5666 19.5827C53.3799 19.6573 53.2073 19.7647 53.0486 19.9047V22.8727C53.2073 23.0127 53.3799 23.1247 53.5666 23.2087C53.7626 23.2833 53.9679 23.3207 54.1826 23.3207ZM62.5631 16.6847C62.1711 16.6847 61.8351 16.5447 61.5551 16.2647C61.2751 15.9847 61.1351 15.6487 61.1351 15.2567C61.1351 14.8647 61.2751 14.5287 61.5551 14.2487C61.8351 13.9687 62.1711 13.8287 62.5631 13.8287C62.9551 13.8287 63.2911 13.9687 63.5711 14.2487C63.8511 14.5287 63.9911 14.8647 63.9911 15.2567C63.9911 15.6487 63.8511 15.9847 63.5711 16.2647C63.2911 16.5447 62.9551 16.6847 62.5631 16.6847ZM64.4671 25.1407C63.4685 25.1407 62.7125 24.9027 62.1991 24.4267C61.6858 23.9507 61.4291 23.246 61.4291 22.3127V19.5267H58.9371V17.7767H63.6971V22.0747C63.6971 22.476 63.7951 22.77 63.9911 22.9567C64.1871 23.1433 64.4998 23.2367 64.9291 23.2367C65.1345 23.2367 65.3305 23.218 65.5171 23.1807C65.7131 23.1433 65.9278 23.078 66.1611 22.9847V24.8187C66.0118 24.8933 65.7691 24.9633 65.4331 25.0287C65.0971 25.1033 64.7751 25.1407 64.4671 25.1407ZM72.3157 25.1407C71.3077 25.1407 70.547 24.9167 70.0337 24.4687C69.5203 24.0113 69.2637 23.3393 69.2637 22.4527V19.5267H67.1497V17.7767H69.2637V15.7747L71.5317 15.3127V17.7767H74.2617V19.5267H71.5317V22.0047C71.5317 22.462 71.6203 22.784 71.7977 22.9707C71.9843 23.148 72.3063 23.2367 72.7637 23.2367C72.969 23.2367 73.1883 23.2227 73.4217 23.1947C73.655 23.1667 73.949 23.106 74.3037 23.0127V24.8467C74.0237 24.9213 73.697 24.9867 73.3237 25.0427C72.9597 25.108 72.6237 25.1407 72.3157 25.1407ZM75.9502 25.0007V23.2507H77.5182V19.5267H75.9502V17.7767H79.7862V19.5967C80.0475 18.934 80.3742 18.4487 80.7662 18.1407C81.1675 17.8233 81.6202 17.6647 82.1242 17.6647C82.3389 17.6647 82.5069 17.6787 82.6282 17.7067C82.7589 17.7347 82.9129 17.7907 83.0902 17.8747V19.9047C82.9129 19.8207 82.6982 19.76 82.4462 19.7227C82.2035 19.676 81.9609 19.6527 81.7182 19.6527C81.3262 19.6527 80.9575 19.7413 80.6122 19.9187C80.2669 20.0867 79.9915 20.32 79.7862 20.6187V23.2507H81.4382V25.0007H75.9502ZM87.7467 16.6847C87.3547 16.6847 87.0187 16.5447 86.7387 16.2647C86.4587 15.9847 86.3187 15.6487 86.3187 15.2567C86.3187 14.8647 86.4587 14.5287 86.7387 14.2487C87.0187 13.9687 87.3547 13.8287 87.7467 13.8287C88.1387 13.8287 88.4747 13.9687 88.7547 14.2487C89.0347 14.5287 89.1747 14.8647 89.1747 15.2567C89.1747 15.6487 89.0347 15.9847 88.7547 16.2647C88.4747 16.5447 88.1387 16.6847 87.7467 16.6847ZM89.6507 25.1407C88.652 25.1407 87.896 24.9027 87.3827 24.4267C86.8694 23.9507 86.6127 23.246 86.6127 22.3127V19.5267H84.1207V17.7767H88.8807V22.0747C88.8807 22.476 88.9787 22.77 89.1747 22.9567C89.3707 23.1433 89.6834 23.2367 90.1127 23.2367C90.318 23.2367 90.514 23.218 90.7007 23.1807C90.8967 23.1433 91.1114 23.078 91.3447 22.9847V24.8187C91.1954 24.8933 90.9527 24.9633 90.6167 25.0287C90.2807 25.1033 89.9587 25.1407 89.6507 25.1407ZM92.1232 25.0007L94.8112 21.3467L92.1652 17.7767H94.7832L96.1692 19.7927L97.5692 17.7767H100.089L97.4152 21.3887L100.131 25.0007H97.4992L96.0712 22.9287L94.6292 25.0007H92.1232Z" fill="#717B85"/>
<rect x="0.5" y="0.500671" width="109.955" height="39" rx="2.5" stroke="#717B85"/>
</svg>
