<svg width="144" height="40" viewBox="0 0 144 40" fill="none" xmlns="http://www.w3.org/2000/svg">
<rect x="0.645599" y="0.500366" width="142.645" height="39" rx="2.5" fill="#F8F8F8"/>
<path d="M28.6074 18.8098H25.762V14.0446H29.1375C30.9727 14.0446 32.0143 14.8634 32.0143 16.3441C32.0143 17.9252 30.8018 18.8098 28.6042 18.8098H28.6074ZM29.1156 20.7015H25.7636V25.953H29.263C31.5515 25.953 32.764 25.0354 32.764 23.31C32.764 21.5846 31.517 20.7015 29.1156 20.7015ZM47.7907 19.0451V20.9556C46.0214 21.125 44.9406 22.4363 44.2991 24.5131C43.6607 26.582 43.5729 29.1199 43.6403 31.079C43.7109 33.1181 42.122 35.0004 39.9746 35.0004H17.9648C15.8159 35.0004 14.227 33.1181 14.2991 31.079C14.3666 29.1199 14.2787 26.582 13.6403 24.5131C12.9972 22.4363 11.9149 21.125 10.1456 20.9556V19.0451C11.9149 18.8757 12.9988 17.5644 13.6388 15.4877C14.2787 13.4187 14.3666 10.8808 14.2975 8.92173C14.227 6.88262 15.8159 5.00037 17.9648 5.00037H39.9746C42.1235 5.00037 43.7109 6.88262 43.6403 8.92173C43.5729 10.8808 43.6607 13.4187 44.2991 15.4877C44.9406 17.5644 46.0214 18.8757 47.7907 19.0451ZM35.3568 23.4637C35.3568 21.3399 33.862 19.8043 31.6425 19.5612V19.4718C33.2738 19.2067 34.5537 17.6915 34.5537 16.0006C34.5537 13.5897 32.6511 12.0196 29.7508 12.0196H23.2257V27.9749H29.7838C33.2628 27.9749 35.3568 26.2714 35.3568 23.4637Z" fill="#717B85"/>
<path d="M58.6167 24.9864V14.9484L60.8847 14.6264V18.3784C61.1087 18.1544 61.3607 17.9817 61.6407 17.8604C61.93 17.7297 62.2334 17.6644 62.5507 17.6644C63.1387 17.6644 63.6754 17.8277 64.1607 18.1544C64.646 18.481 65.0334 18.9244 65.3227 19.4844C65.612 20.0444 65.7567 20.679 65.7567 21.3884C65.7567 22.0884 65.612 22.723 65.3227 23.2924C65.0334 23.8524 64.646 24.2957 64.1607 24.6224C63.6754 24.949 63.1387 25.1124 62.5507 25.1124C62.2054 25.1124 61.8834 25.0424 61.5847 24.9024C61.2954 24.7624 61.034 24.5617 60.8007 24.3004V24.9864H58.6167ZM62.0187 23.3204C62.336 23.3204 62.6067 23.241 62.8307 23.0824C63.0547 22.9237 63.2274 22.6997 63.3487 22.4104C63.47 22.1117 63.5307 21.771 63.5307 21.3884C63.5307 20.9964 63.47 20.6557 63.3487 20.3664C63.2274 20.077 63.0547 19.853 62.8307 19.6944C62.6067 19.5357 62.336 19.4564 62.0187 19.4564C61.804 19.4564 61.5987 19.4984 61.4027 19.5824C61.216 19.657 61.0434 19.7644 60.8847 19.9044V22.8724C61.0434 23.0124 61.216 23.1244 61.4027 23.2084C61.5987 23.283 61.804 23.3204 62.0187 23.3204ZM70.3992 25.1404C69.6806 25.1404 69.0366 24.977 68.4672 24.6504C67.8979 24.3144 67.4452 23.8664 67.1092 23.3064C66.7826 22.737 66.6192 22.0977 66.6192 21.3884C66.6192 20.6884 66.7826 20.0584 67.1092 19.4984C67.4452 18.9384 67.8979 18.495 68.4672 18.1684C69.0366 17.8324 69.6759 17.6644 70.3852 17.6644C71.1039 17.6644 71.7432 17.8324 72.3032 18.1684C72.8726 18.495 73.3206 18.9384 73.6472 19.4984C73.9832 20.0584 74.1512 20.693 74.1512 21.4024C74.1512 22.1024 73.9832 22.737 73.6472 23.3064C73.3206 23.8664 72.8726 24.3144 72.3032 24.6504C71.7432 24.977 71.1086 25.1404 70.3992 25.1404ZM70.3852 23.2364C70.6932 23.2364 70.9639 23.157 71.1972 22.9984C71.4306 22.8397 71.6126 22.625 71.7432 22.3544C71.8739 22.0744 71.9392 21.757 71.9392 21.4024C71.9392 21.0477 71.8739 20.735 71.7432 20.4644C71.6126 20.1844 71.4306 19.965 71.1972 19.8064C70.9639 19.6477 70.6932 19.5684 70.3852 19.5684C70.0866 19.5684 69.8159 19.6477 69.5732 19.8064C69.3399 19.965 69.1579 20.1844 69.0272 20.4644C68.8966 20.735 68.8312 21.0477 68.8312 21.4024C68.8312 21.757 68.8966 22.0744 69.0272 22.3544C69.1579 22.625 69.3399 22.8397 69.5732 22.9984C69.8159 23.157 70.0866 23.2364 70.3852 23.2364ZM78.7938 25.1404C78.0751 25.1404 77.4311 24.977 76.8618 24.6504C76.2924 24.3144 75.8398 23.8664 75.5038 23.3064C75.1771 22.737 75.0138 22.0977 75.0138 21.3884C75.0138 20.6884 75.1771 20.0584 75.5038 19.4984C75.8398 18.9384 76.2924 18.495 76.8618 18.1684C77.4311 17.8324 78.0704 17.6644 78.7798 17.6644C79.4984 17.6644 80.1378 17.8324 80.6978 18.1684C81.2671 18.495 81.7151 18.9384 82.0418 19.4984C82.3778 20.0584 82.5458 20.693 82.5458 21.4024C82.5458 22.1024 82.3778 22.737 82.0418 23.3064C81.7151 23.8664 81.2671 24.3144 80.6978 24.6504C80.1378 24.977 79.5031 25.1404 78.7938 25.1404ZM78.7798 23.2364C79.0878 23.2364 79.3584 23.157 79.5918 22.9984C79.8251 22.8397 80.0071 22.625 80.1378 22.3544C80.2684 22.0744 80.3338 21.757 80.3338 21.4024C80.3338 21.0477 80.2684 20.735 80.1378 20.4644C80.0071 20.1844 79.8251 19.965 79.5918 19.8064C79.3584 19.6477 79.0878 19.5684 78.7798 19.5684C78.4811 19.5684 78.2104 19.6477 77.9678 19.8064C77.7344 19.965 77.5524 20.1844 77.4218 20.4644C77.2911 20.735 77.2258 21.0477 77.2258 21.4024C77.2258 21.757 77.2911 22.0744 77.4218 22.3544C77.5524 22.625 77.7344 22.8397 77.9678 22.9984C78.2104 23.157 78.4811 23.2364 78.7798 23.2364ZM88.5463 25.1404C87.5383 25.1404 86.7776 24.9164 86.2643 24.4684C85.751 24.011 85.4943 23.339 85.4943 22.4524V19.5264H83.3803V17.7764H85.4943V15.7744L87.7623 15.3124V17.7764H90.4923V19.5264H87.7623V22.0044C87.7623 22.4617 87.851 22.7837 88.0283 22.9704C88.215 23.1477 88.537 23.2364 88.9943 23.2364C89.1996 23.2364 89.419 23.2224 89.6523 23.1944C89.8856 23.1664 90.1796 23.1057 90.5343 23.0124V24.8464C90.2543 24.921 89.9276 24.9864 89.5543 25.0424C89.1903 25.1077 88.8543 25.1404 88.5463 25.1404ZM95.5268 25.1404C94.8268 25.1404 94.1735 25.0517 93.5668 24.8744C92.9695 24.6877 92.4562 24.4357 92.0268 24.1184L93.0768 22.6624C93.6088 22.9704 94.0568 23.185 94.4208 23.3064C94.7942 23.4184 95.1675 23.4744 95.5408 23.4744C95.9795 23.4744 96.3108 23.423 96.5348 23.3204C96.7682 23.2177 96.8848 23.073 96.8848 22.8864C96.8848 22.737 96.8008 22.6204 96.6328 22.5364C96.4742 22.4524 96.2595 22.387 95.9888 22.3404C95.7275 22.2844 95.4382 22.2284 95.1208 22.1724C94.8035 22.1164 94.4815 22.0464 94.1548 21.9624C93.8375 21.869 93.5435 21.743 93.2728 21.5844C93.0115 21.4257 92.7968 21.2204 92.6288 20.9684C92.4702 20.707 92.3908 20.3804 92.3908 19.9884C92.3908 19.475 92.5215 19.0457 92.7828 18.7004C93.0442 18.355 93.4128 18.0937 93.8888 17.9164C94.3742 17.7297 94.9342 17.6364 95.5688 17.6364C96.1288 17.6364 96.6935 17.7157 97.2628 17.8744C97.8322 18.033 98.3548 18.2757 98.8308 18.6024L97.7388 19.9884C97.3748 19.7457 97.0015 19.5684 96.6188 19.4564C96.2455 19.3444 95.8768 19.2884 95.5128 19.2884C95.1395 19.2884 94.8548 19.335 94.6588 19.4284C94.4722 19.5124 94.3788 19.6337 94.3788 19.7924C94.3788 19.9417 94.4582 20.0584 94.6168 20.1424C94.7848 20.217 95.0042 20.2777 95.2748 20.3244C95.5548 20.371 95.8582 20.4224 96.1848 20.4784C96.5115 20.525 96.8335 20.595 97.1508 20.6884C97.4775 20.7724 97.7762 20.8984 98.0468 21.0664C98.3268 21.225 98.5462 21.435 98.7048 21.6964C98.8728 21.9577 98.9568 22.2937 98.9568 22.7044C98.9568 23.199 98.8028 23.6284 98.4948 23.9924C98.1962 24.3564 97.7855 24.641 97.2628 24.8464C96.7495 25.0424 96.1708 25.1404 95.5268 25.1404ZM105.335 25.1404C104.327 25.1404 103.567 24.9164 103.053 24.4684C102.54 24.011 102.283 23.339 102.283 22.4524V19.5264H100.169V17.7764H102.283V15.7744L104.551 15.3124V17.7764H107.281V19.5264H104.551V22.0044C104.551 22.4617 104.64 22.7837 104.817 22.9704C105.004 23.1477 105.326 23.2364 105.783 23.2364C105.989 23.2364 106.208 23.2224 106.441 23.1944C106.675 23.1664 106.969 23.1057 107.323 23.0124V24.8464C107.043 24.921 106.717 24.9864 106.343 25.0424C105.979 25.1077 105.643 25.1404 105.335 25.1404ZM108.97 25.0004V23.2504H110.538V19.5264H108.97V17.7764H112.806V19.5964C113.067 18.9337 113.394 18.4484 113.786 18.1404C114.187 17.823 114.64 17.6644 115.144 17.6644C115.359 17.6644 115.527 17.6784 115.648 17.7064C115.779 17.7344 115.933 17.7904 116.11 17.8744V19.9044C115.933 19.8204 115.718 19.7597 115.466 19.7224C115.223 19.6757 114.981 19.6524 114.738 19.6524C114.346 19.6524 113.977 19.741 113.632 19.9184C113.287 20.0864 113.011 20.3197 112.806 20.6184V23.2504H114.458V25.0004H108.97ZM119.702 25.1124C119.217 25.1124 118.783 25.019 118.4 24.8324C118.027 24.6457 117.733 24.389 117.518 24.0624C117.313 23.7357 117.21 23.3577 117.21 22.9284C117.21 22.4804 117.322 22.1024 117.546 21.7944C117.77 21.477 118.092 21.239 118.512 21.0804C118.932 20.9124 119.436 20.8284 120.024 20.8284C120.286 20.8284 120.552 20.8564 120.822 20.9124C121.093 20.9684 121.387 21.0617 121.704 21.1924V20.5764C121.704 20.2217 121.588 19.9604 121.354 19.7924C121.121 19.615 120.762 19.5264 120.276 19.5264C120.006 19.5264 119.702 19.573 119.366 19.6664C119.04 19.7504 118.666 19.881 118.246 20.0584L117.434 18.4484C118.041 18.1777 118.615 17.9817 119.156 17.8604C119.707 17.7297 120.248 17.6644 120.78 17.6644C121.779 17.6644 122.554 17.9024 123.104 18.3784C123.664 18.8544 123.944 19.5217 123.944 20.3804V25.0004H121.704V24.3144C121.387 24.5944 121.07 24.7997 120.752 24.9304C120.435 25.0517 120.085 25.1124 119.702 25.1124ZM119.296 22.8864C119.296 23.1197 119.394 23.3017 119.59 23.4324C119.786 23.5537 120.057 23.6144 120.402 23.6144C120.645 23.6144 120.874 23.5817 121.088 23.5164C121.312 23.4417 121.518 23.339 121.704 23.2084V22.3544C121.499 22.2984 121.289 22.2564 121.074 22.2284C120.869 22.191 120.664 22.1724 120.458 22.1724C120.094 22.1724 119.81 22.233 119.604 22.3544C119.399 22.4757 119.296 22.653 119.296 22.8864ZM125.773 27.9264V17.7764H127.957V18.4764C128.19 18.215 128.452 18.0144 128.741 17.8744C129.04 17.7344 129.362 17.6644 129.707 17.6644C130.295 17.6644 130.832 17.8277 131.317 18.1544C131.802 18.481 132.19 18.9244 132.479 19.4844C132.768 20.0444 132.913 20.679 132.913 21.3884C132.913 22.0884 132.768 22.723 132.479 23.2924C132.19 23.8524 131.802 24.2957 131.317 24.6224C130.832 24.949 130.295 25.1124 129.707 25.1124C129.39 25.1124 129.086 25.0517 128.797 24.9304C128.517 24.7997 128.265 24.6224 128.041 24.3984V27.9264H125.773ZM129.175 23.3204C129.492 23.3204 129.763 23.241 129.987 23.0824C130.211 22.9237 130.384 22.6997 130.505 22.4104C130.626 22.1117 130.687 21.771 130.687 21.3884C130.687 20.9964 130.626 20.6557 130.505 20.3664C130.384 20.077 130.211 19.853 129.987 19.6944C129.763 19.5357 129.492 19.4564 129.175 19.4564C128.96 19.4564 128.755 19.4984 128.559 19.5824C128.372 19.657 128.2 19.7644 128.041 19.9044V22.8724C128.2 23.0124 128.372 23.1244 128.559 23.2084C128.755 23.283 128.96 23.3204 129.175 23.3204Z" fill="#717B85"/>
<rect x="0.645599" y="0.500366" width="142.645" height="39" rx="2.5" stroke="#717B85"/>
</svg>
