<svg width="120" height="40" viewBox="0 0 120 40" fill="none" xmlns="http://www.w3.org/2000/svg">
<rect x="0.5" y="0.500366" width="118.185" height="39" rx="2.5" fill="#F8F8F8"/>
<rect x="0.5" y="0.500366" width="118.185" height="39" rx="2.5" stroke="#717B85"/>
<path d="M47.5632 17.3263C46.627 16.6987 44.1672 16.4309 42.3792 16.9106C42.2832 15.1376 41.3639 13.6434 39.6839 12.3395L39.0621 11.9241L38.6475 12.5475C37.8329 13.7784 37.4892 15.4191 37.6109 16.9106C37.7069 17.8297 38.0276 18.8623 38.6475 19.6117C36.3203 20.9557 34.1745 20.6505 24.673 20.6505H10.0032C9.9607 22.7865 10.3054 26.8944 12.9296 30.2385C13.2198 30.6081 13.5372 30.9654 13.8825 31.3095C16.0163 33.4365 19.2402 34.9963 24.061 35.0004C31.4156 35.0072 37.7164 31.0496 41.5496 21.4821C42.8107 21.5023 46.1404 21.7071 47.77 18.5729C47.8098 18.5203 48.1845 17.7422 48.1845 17.7422L47.5632 17.3268V17.3263ZM19.5771 15.3733H15.4518V19.4795H19.5771V15.3733ZM24.9056 15.3733H20.7806V19.4795H24.9056V15.3733ZM30.235 15.3733H26.11V19.4795H30.235V15.3733ZM35.5646 15.3733H31.4393V19.4795H35.5646V15.3733ZM14.2474 15.3733H10.1224V19.4795H14.2474V15.3733ZM19.5771 10.1871H15.4518V14.2933H19.5771V10.1871ZM24.9056 10.1871H20.7806V14.2933H24.9056V10.1871ZM30.235 10.1871H26.11V14.2933H30.235V10.1871ZM30.235 5.00037H26.11V9.10655H30.235V5.00037Z" fill="#717B85"/>
<path d="M61.8245 25.1124C61.2365 25.1124 60.6998 24.949 60.2145 24.6224C59.7292 24.2957 59.3418 23.8524 59.0525 23.2924C58.7632 22.723 58.6185 22.0884 58.6185 21.3884C58.6185 20.679 58.7632 20.0444 59.0525 19.4844C59.3418 18.9244 59.7292 18.481 60.2145 18.1544C60.6998 17.8277 61.2365 17.6644 61.8245 17.6644C62.1512 17.6644 62.4545 17.7297 62.7345 17.8604C63.0145 17.9817 63.2665 18.1544 63.4905 18.3784V15.0044L65.7585 14.6824V25.0004H63.5745V24.3004C63.3412 24.5617 63.0752 24.7624 62.7765 24.9024C62.4872 25.0424 62.1698 25.1124 61.8245 25.1124ZM62.3565 23.3204C62.5712 23.3204 62.7765 23.283 62.9725 23.2084C63.1685 23.1244 63.3412 23.0124 63.4905 22.8724V19.9044C63.3412 19.7644 63.1685 19.657 62.9725 19.5824C62.7765 19.4984 62.5712 19.4564 62.3565 19.4564C62.0485 19.4564 61.7778 19.5357 61.5445 19.6944C61.3205 19.853 61.1478 20.077 61.0265 20.3664C60.9052 20.6557 60.8445 20.9964 60.8445 21.3884C60.8445 21.771 60.9052 22.1117 61.0265 22.4104C61.1478 22.6997 61.3205 22.9237 61.5445 23.0824C61.7778 23.241 62.0485 23.3204 62.3565 23.3204ZM70.793 25.1404C70.0744 25.1404 69.4304 24.977 68.861 24.6504C68.2917 24.3144 67.839 23.8664 67.503 23.3064C67.1764 22.737 67.013 22.0977 67.013 21.3884C67.013 20.6884 67.1764 20.0584 67.503 19.4984C67.839 18.9384 68.2917 18.495 68.861 18.1684C69.4304 17.8324 70.0697 17.6644 70.779 17.6644C71.4977 17.6644 72.137 17.8324 72.697 18.1684C73.2664 18.495 73.7144 18.9384 74.041 19.4984C74.377 20.0584 74.545 20.693 74.545 21.4024C74.545 22.1024 74.377 22.737 74.041 23.3064C73.7144 23.8664 73.2664 24.3144 72.697 24.6504C72.137 24.977 71.5024 25.1404 70.793 25.1404ZM70.779 23.2364C71.087 23.2364 71.3577 23.157 71.591 22.9984C71.8244 22.8397 72.0064 22.625 72.137 22.3544C72.2677 22.0744 72.333 21.757 72.333 21.4024C72.333 21.0477 72.2677 20.735 72.137 20.4644C72.0064 20.1844 71.8244 19.965 71.591 19.8064C71.3577 19.6477 71.087 19.5684 70.779 19.5684C70.4804 19.5684 70.2097 19.6477 69.967 19.8064C69.7337 19.965 69.5517 20.1844 69.421 20.4644C69.2904 20.735 69.225 21.0477 69.225 21.4024C69.225 21.757 69.2904 22.0744 69.421 22.3544C69.5517 22.625 69.7337 22.8397 69.967 22.9984C70.2097 23.157 70.4804 23.2364 70.779 23.2364ZM79.4396 25.1404C78.6929 25.1404 78.0209 24.977 77.4236 24.6504C76.8262 24.3144 76.3549 23.8664 76.0096 23.3064C75.6642 22.737 75.4916 22.1024 75.4916 21.4024C75.4916 20.693 75.6642 20.0584 76.0096 19.4984C76.3549 18.9384 76.8262 18.495 77.4236 18.1684C78.0209 17.8324 78.6929 17.6644 79.4396 17.6644C80.1956 17.6644 80.8769 17.823 81.4836 18.1404C82.0902 18.4577 82.5616 18.8777 82.8976 19.4004L81.1896 20.6464C81.0309 20.3197 80.7976 20.063 80.4896 19.8764C80.1816 19.6897 79.8362 19.5964 79.4536 19.5964C79.1269 19.5964 78.8329 19.6757 78.5716 19.8344C78.3196 19.993 78.1189 20.2077 77.9696 20.4784C77.8202 20.749 77.7456 21.057 77.7456 21.4024C77.7456 21.7477 77.8202 22.0557 77.9696 22.3264C78.1189 22.597 78.3196 22.8117 78.5716 22.9704C78.8329 23.129 79.1269 23.2084 79.4536 23.2084C79.8362 23.2084 80.1816 23.115 80.4896 22.9284C80.7976 22.7324 81.0309 22.4757 81.1896 22.1584L82.8976 23.4044C82.5616 23.927 82.0902 24.347 81.4836 24.6644C80.8769 24.9817 80.1956 25.1404 79.4396 25.1404ZM84.1941 25.0004V15.0044L86.4621 14.6824V20.6464L88.9821 17.7764H91.4881L88.5481 21.0104L91.6981 25.0004H88.8701L86.4621 21.8084V25.0004H84.1941ZM96.1726 25.1404C95.4446 25.1404 94.7866 24.977 94.1986 24.6504C93.62 24.3144 93.158 23.8664 92.8126 23.3064C92.4673 22.737 92.2946 22.1024 92.2946 21.4024C92.2946 20.693 92.458 20.0584 92.7846 19.4984C93.1113 18.9384 93.5546 18.495 94.1146 18.1684C94.6746 17.8324 95.3046 17.6644 96.0046 17.6644C96.7326 17.6644 97.372 17.8277 97.9226 18.1544C98.4826 18.481 98.9166 18.9337 99.2246 19.5124C99.542 20.0817 99.7006 20.7397 99.7006 21.4864V21.9764H94.5206C94.5953 22.247 94.7166 22.485 94.8846 22.6904C95.0526 22.8957 95.258 23.0544 95.5006 23.1664C95.7433 23.2784 96.0046 23.3344 96.2846 23.3344C96.6113 23.3344 96.9053 23.2737 97.1666 23.1524C97.4373 23.031 97.6613 22.8584 97.8386 22.6344L99.2946 23.9364C98.8373 24.375 98.3566 24.6877 97.8526 24.8744C97.358 25.0517 96.798 25.1404 96.1726 25.1404ZM94.5346 20.6884H97.6006C97.5353 20.4177 97.4326 20.189 97.2926 20.0024C97.1526 19.8157 96.98 19.6757 96.7746 19.5824C96.5693 19.4797 96.336 19.4284 96.0746 19.4284C95.8226 19.4284 95.5893 19.4797 95.3746 19.5824C95.1693 19.6757 94.9966 19.8157 94.8566 20.0024C94.7166 20.189 94.6093 20.4177 94.5346 20.6884ZM100.969 25.0004V23.2504H102.537V19.5264H100.969V17.7764H104.805V19.5964C105.066 18.9337 105.393 18.4484 105.785 18.1404C106.186 17.823 106.639 17.6644 107.143 17.6644C107.358 17.6644 107.526 17.6784 107.647 17.7064C107.778 17.7344 107.932 17.7904 108.109 17.8744V19.9044C107.932 19.8204 107.717 19.7597 107.465 19.7224C107.222 19.6757 106.98 19.6524 106.737 19.6524C106.345 19.6524 105.976 19.741 105.631 19.9184C105.286 20.0864 105.01 20.3197 104.805 20.6184V23.2504H106.457V25.0004H100.969Z" fill="#717B85"/>
</svg>
