<svg width="143" height="26" viewBox="0 0 143 26" fill="none" xmlns="http://www.w3.org/2000/svg">
<path d="M0.822875 20V3.2H12.4389V6.656H4.95088V9.848H9.67888V13.208H4.95088V16.544H12.5349V20H0.822875ZM13.7735 20L18.3815 13.736L13.8455 7.616H18.3335L20.7095 11.072L23.1095 7.616H27.4295L22.8455 13.808L27.5015 20H22.9895L20.5415 16.448L18.0695 20H13.7735ZM29.2441 25.016V7.616H32.9881V8.816C33.3881 8.368 33.8361 8.024 34.3321 7.784C34.8441 7.544 35.3961 7.424 35.9881 7.424C36.9961 7.424 37.9161 7.704 38.7481 8.264C39.5801 8.824 40.2441 9.584 40.7401 10.544C41.2361 11.504 41.4841 12.592 41.4841 13.808C41.4841 15.008 41.2361 16.096 40.7401 17.072C40.2441 18.032 39.5801 18.792 38.7481 19.352C37.9161 19.912 36.9961 20.192 35.9881 20.192C35.4441 20.192 34.9241 20.088 34.4281 19.88C33.9481 19.656 33.5161 19.352 33.1321 18.968V25.016H29.2441ZM35.0761 17.12C35.6201 17.12 36.0841 16.984 36.4681 16.712C36.8521 16.44 37.1481 16.056 37.3561 15.56C37.5641 15.048 37.6681 14.464 37.6681 13.808C37.6681 13.136 37.5641 12.552 37.3561 12.056C37.1481 11.56 36.8521 11.176 36.4681 10.904C36.0841 10.632 35.6201 10.496 35.0761 10.496C34.7081 10.496 34.3561 10.568 34.0201 10.712C33.7001 10.84 33.4041 11.024 33.1321 11.264V16.352C33.4041 16.592 33.7001 16.784 34.0201 16.928C34.3561 17.056 34.7081 17.12 35.0761 17.12ZM49.7788 20.24C48.5308 20.24 47.4028 19.96 46.3948 19.4C45.4028 18.824 44.6108 18.056 44.0188 17.096C43.4268 16.12 43.1308 15.032 43.1308 13.832C43.1308 12.616 43.4108 11.528 43.9708 10.568C44.5308 9.608 45.2908 8.848 46.2508 8.288C47.2108 7.712 48.2908 7.424 49.4908 7.424C50.7388 7.424 51.8348 7.704 52.7788 8.264C53.7388 8.824 54.4828 9.6 55.0108 10.592C55.5548 11.568 55.8268 12.696 55.8268 13.976V14.816H46.9468C47.0748 15.28 47.2828 15.688 47.5708 16.04C47.8588 16.392 48.2108 16.664 48.6268 16.856C49.0428 17.048 49.4908 17.144 49.9708 17.144C50.5308 17.144 51.0348 17.04 51.4828 16.832C51.9468 16.624 52.3308 16.328 52.6348 15.944L55.1308 18.176C54.3468 18.928 53.5228 19.464 52.6588 19.784C51.8108 20.088 50.8508 20.24 49.7788 20.24ZM46.9708 12.608H52.2268C52.1148 12.144 51.9388 11.752 51.6988 11.432C51.4588 11.112 51.1628 10.872 50.8108 10.712C50.4588 10.536 50.0588 10.448 49.6108 10.448C49.1788 10.448 48.7788 10.536 48.4108 10.712C48.0588 10.872 47.7628 11.112 47.5228 11.432C47.2828 11.752 47.0988 12.144 46.9708 12.608ZM58.0014 20V17H60.6894V10.616H58.0014V7.616H64.5774V10.736C65.0254 9.6 65.5854 8.768 66.2574 8.24C66.9454 7.696 67.7214 7.424 68.5854 7.424C68.9534 7.424 69.2414 7.448 69.4494 7.496C69.6734 7.544 69.9374 7.64 70.2414 7.784V11.264C69.9374 11.12 69.5694 11.016 69.1374 10.952C68.7214 10.872 68.3054 10.832 67.8894 10.832C67.2174 10.832 66.5854 10.984 65.9934 11.288C65.4014 11.576 64.9294 11.976 64.5774 12.488V17H67.4094V20H58.0014ZM78.224 5.744C77.552 5.744 76.976 5.504 76.496 5.024C76.016 4.544 75.776 3.968 75.776 3.296C75.776 2.624 76.016 2.048 76.496 1.568C76.976 1.088 77.552 0.847999 78.224 0.847999C78.896 0.847999 79.472 1.088 79.952 1.568C80.432 2.048 80.672 2.624 80.672 3.296C80.672 3.968 80.432 4.544 79.952 5.024C79.472 5.504 78.896 5.744 78.224 5.744ZM81.488 20.24C79.776 20.24 78.48 19.832 77.6 19.016C76.72 18.2 76.28 16.992 76.28 15.392V10.616H72.008V7.616H80.168V14.984C80.168 15.672 80.336 16.176 80.672 16.496C81.008 16.816 81.544 16.976 82.28 16.976C82.632 16.976 82.968 16.944 83.288 16.88C83.624 16.816 83.992 16.704 84.392 16.544V19.688C84.136 19.816 83.72 19.936 83.144 20.048C82.568 20.176 82.016 20.24 81.488 20.24ZM92.9506 20.24C91.7026 20.24 90.5746 19.96 89.5666 19.4C88.5746 18.824 87.7826 18.056 87.1906 17.096C86.5986 16.12 86.3026 15.032 86.3026 13.832C86.3026 12.616 86.5826 11.528 87.1426 10.568C87.7026 9.608 88.4626 8.848 89.4226 8.288C90.3826 7.712 91.4626 7.424 92.6626 7.424C93.9106 7.424 95.0066 7.704 95.9506 8.264C96.9106 8.824 97.6546 9.6 98.1826 10.592C98.7266 11.568 98.9986 12.696 98.9986 13.976V14.816H90.1186C90.2466 15.28 90.4546 15.688 90.7426 16.04C91.0306 16.392 91.3826 16.664 91.7986 16.856C92.2146 17.048 92.6626 17.144 93.1426 17.144C93.7026 17.144 94.2066 17.04 94.6546 16.832C95.1186 16.624 95.5026 16.328 95.8066 15.944L98.3026 18.176C97.5186 18.928 96.6946 19.464 95.8306 19.784C94.9826 20.088 94.0226 20.24 92.9506 20.24ZM90.1426 12.608H95.3986C95.2866 12.144 95.1106 11.752 94.8706 11.432C94.6306 11.112 94.3346 10.872 93.9826 10.712C93.6306 10.536 93.2306 10.448 92.7826 10.448C92.3506 10.448 91.9506 10.536 91.5826 10.712C91.2306 10.872 90.9346 11.112 90.6946 11.432C90.4546 11.752 90.2706 12.144 90.1426 12.608ZM101.197 20V7.616H105.085V9.296C106.045 8.048 107.269 7.424 108.757 7.424C109.557 7.424 110.261 7.608 110.869 7.976C111.493 8.328 111.981 8.824 112.333 9.464C112.685 10.088 112.861 10.816 112.861 11.648V20H108.973V12.776C108.973 12.072 108.781 11.512 108.397 11.096C108.029 10.68 107.533 10.472 106.909 10.472C106.557 10.472 106.229 10.536 105.925 10.664C105.621 10.776 105.341 10.96 105.085 11.216V20H101.197ZM121.828 20.24C120.548 20.24 119.396 19.96 118.372 19.4C117.348 18.824 116.54 18.056 115.948 17.096C115.356 16.12 115.06 15.032 115.06 13.832C115.06 12.616 115.356 11.528 115.948 10.568C116.54 9.608 117.348 8.848 118.372 8.288C119.396 7.712 120.548 7.424 121.828 7.424C123.124 7.424 124.292 7.696 125.332 8.24C126.372 8.784 127.18 9.504 127.756 10.4L124.828 12.536C124.556 11.976 124.156 11.536 123.628 11.216C123.1 10.896 122.508 10.736 121.852 10.736C121.292 10.736 120.788 10.872 120.34 11.144C119.908 11.416 119.564 11.784 119.308 12.248C119.052 12.712 118.924 13.24 118.924 13.832C118.924 14.424 119.052 14.952 119.308 15.416C119.564 15.88 119.908 16.248 120.34 16.52C120.788 16.792 121.292 16.928 121.852 16.928C122.508 16.928 123.1 16.768 123.628 16.448C124.156 16.112 124.556 15.672 124.828 15.128L127.756 17.264C127.18 18.16 126.372 18.88 125.332 19.424C124.292 19.968 123.124 20.24 121.828 20.24ZM136.123 20.24C134.875 20.24 133.747 19.96 132.739 19.4C131.747 18.824 130.955 18.056 130.363 17.096C129.771 16.12 129.475 15.032 129.475 13.832C129.475 12.616 129.755 11.528 130.315 10.568C130.875 9.608 131.635 8.848 132.595 8.288C133.555 7.712 134.635 7.424 135.835 7.424C137.083 7.424 138.179 7.704 139.123 8.264C140.083 8.824 140.827 9.6 141.355 10.592C141.899 11.568 142.171 12.696 142.171 13.976V14.816H133.291C133.419 15.28 133.627 15.688 133.915 16.04C134.203 16.392 134.555 16.664 134.971 16.856C135.387 17.048 135.835 17.144 136.315 17.144C136.875 17.144 137.379 17.04 137.827 16.832C138.291 16.624 138.675 16.328 138.979 15.944L141.475 18.176C140.691 18.928 139.867 19.464 139.003 19.784C138.155 20.088 137.195 20.24 136.123 20.24ZM133.315 12.608H138.571C138.459 12.144 138.283 11.752 138.043 11.432C137.803 11.112 137.507 10.872 137.155 10.712C136.803 10.536 136.403 10.448 135.955 10.448C135.523 10.448 135.123 10.536 134.755 10.712C134.403 10.872 134.107 11.112 133.867 11.432C133.627 11.752 133.443 12.144 133.315 12.608Z" fill="#717B85"/>
</svg>
