<svg width="103" height="40" viewBox="0 0 103 40" fill="none" xmlns="http://www.w3.org/2000/svg">
<rect x="0.5" y="0.500671" width="101.856" height="39" rx="2.5" fill="#F8F8F8"/>
<path d="M25.2437 16.2269H19.5087V5.00067H25.2437C28.3387 5.00067 30.8562 7.51817 30.8562 10.6132C30.8562 13.7082 28.3387 16.2269 25.2437 16.2269ZM21.3475 14.3882H25.2437C27.325 14.3882 29.0175 12.6944 29.0175 10.6144C29.0175 8.53442 27.3237 6.84067 25.2437 6.84067H21.3475V14.3882ZM15.6137 16.2269C12.5187 16.2269 10.0012 13.7094 10.0012 10.6144C10.0012 7.51942 12.5187 5.00067 15.6137 5.00067H21.3487V16.2269H15.6137ZM15.6137 6.83942C13.5325 6.83942 11.84 8.53317 11.84 10.6132C11.84 12.6932 13.5325 14.3882 15.6137 14.3882H19.51V6.83942H15.6137ZM15.6137 25.6132C12.5187 25.6132 10.0012 23.0957 10.0012 20.0007C10.0012 16.9057 12.5187 14.3882 15.6137 14.3882H21.3487V25.6132H15.6137ZM15.6137 16.2269C13.5325 16.2269 11.84 17.9207 11.84 20.0007C11.84 22.0807 13.5337 23.7744 15.6137 23.7744H19.51V16.2269H15.6137ZM15.6437 35.0007C12.5325 35.0007 10 32.4832 10 29.3882C10 26.2932 12.5175 23.7757 15.6125 23.7757H21.3475V29.3269C21.3475 32.4557 18.7887 35.0007 15.6437 35.0007ZM15.6137 25.6132C14.6133 25.6145 13.6542 26.0125 12.9468 26.7199C12.2393 27.4274 11.8413 28.3865 11.84 29.3869C11.84 31.4682 13.5463 33.1607 15.645 33.1607C17.7762 33.1607 19.5112 31.4407 19.5112 29.3257V25.6132H15.6137ZM25.2437 25.6132H25.1212C22.0262 25.6132 19.5087 23.0957 19.5087 20.0007C19.5087 16.9057 22.0262 14.3882 25.1212 14.3882H25.2437C28.3387 14.3882 30.8562 16.9057 30.8562 20.0007C30.8562 23.0957 28.3387 25.6132 25.2437 25.6132ZM25.1225 16.2269C23.0412 16.2269 21.3487 17.9207 21.3487 20.0007C21.3487 22.0807 23.0425 23.7744 25.1225 23.7744H25.245C27.3262 23.7744 29.0187 22.0807 29.0187 20.0007C29.0187 17.9207 27.325 16.2269 25.245 16.2269H25.1225Z" fill="#717B85"/>
<path d="M43.5163 25.0007V19.5267H41.4023V17.7767H43.5163V17.0627C43.5163 15.1307 44.6036 14.1647 46.7783 14.1647C47.0489 14.1647 47.3476 14.188 47.6743 14.2347C48.0103 14.2813 48.3043 14.342 48.5563 14.4167V16.2927C48.2016 16.19 47.9076 16.1293 47.6743 16.1107C47.4409 16.0827 47.2216 16.0687 47.0163 16.0687C46.5589 16.0687 46.2369 16.162 46.0503 16.3487C45.8729 16.526 45.7843 16.8433 45.7843 17.3007V17.7767H48.5563V19.5267H45.7843V25.0007H43.5163ZM53.4648 16.6847C53.0728 16.6847 52.7368 16.5447 52.4568 16.2647C52.1768 15.9847 52.0368 15.6487 52.0368 15.2567C52.0368 14.8647 52.1768 14.5287 52.4568 14.2487C52.7368 13.9687 53.0728 13.8287 53.4648 13.8287C53.8568 13.8287 54.1928 13.9687 54.4728 14.2487C54.7528 14.5287 54.8928 14.8647 54.8928 15.2567C54.8928 15.6487 54.7528 15.9847 54.4728 16.2647C54.1928 16.5447 53.8568 16.6847 53.4648 16.6847ZM55.3688 25.1407C54.3701 25.1407 53.6141 24.9027 53.1008 24.4267C52.5875 23.9507 52.3308 23.246 52.3308 22.3127V19.5267H49.8388V17.7767H54.5988V22.0747C54.5988 22.476 54.6968 22.77 54.8928 22.9567C55.0888 23.1433 55.4015 23.2367 55.8308 23.2367C56.0361 23.2367 56.2321 23.218 56.4188 23.1807C56.6148 23.1433 56.8295 23.078 57.0628 22.9847V24.8187C56.9135 24.8933 56.6708 24.9633 56.3348 25.0287C55.9988 25.1033 55.6768 25.1407 55.3688 25.1407ZM61.6213 28.0667C61.08 28.0667 60.5527 28.0107 60.0393 27.8987C59.5353 27.7867 59.064 27.628 58.6253 27.4227L59.3253 25.7847C59.7267 25.9713 60.1093 26.1113 60.4733 26.2047C60.8373 26.298 61.192 26.3447 61.5373 26.3447C62.4893 26.3447 62.9653 25.9013 62.9653 25.0147V24.2447C62.732 24.4873 62.452 24.6833 62.1253 24.8327C61.808 24.9727 61.472 25.0427 61.1173 25.0427C60.5573 25.0427 60.044 24.8793 59.5773 24.5527C59.12 24.2167 58.756 23.7733 58.4853 23.2227C58.2147 22.6627 58.0793 22.0467 58.0793 21.3747C58.0793 20.6933 58.224 20.082 58.5133 19.5407C58.8027 18.99 59.19 18.5513 59.6753 18.2247C60.1607 17.898 60.6973 17.7347 61.2853 17.7347C61.612 17.7347 61.92 17.8 62.2093 17.9307C62.508 18.0613 62.7693 18.248 62.9933 18.4907V17.7767H65.2193V25.0427C65.2193 26.0133 64.9113 26.76 64.2953 27.2827C63.6793 27.8053 62.788 28.0667 61.6213 28.0667ZM61.8173 23.2367C62.0507 23.2367 62.2607 23.1947 62.4473 23.1107C62.634 23.0267 62.8067 22.91 62.9653 22.7607V19.9887C62.8067 19.8393 62.6293 19.7273 62.4333 19.6527C62.2373 19.5687 62.032 19.5267 61.8173 19.5267C61.5093 19.5267 61.2387 19.606 61.0053 19.7647C60.7813 19.9233 60.6087 20.1427 60.4873 20.4227C60.366 20.7027 60.3053 21.0247 60.3053 21.3887C60.3053 21.7433 60.366 22.0607 60.4873 22.3407C60.618 22.6207 60.7953 22.84 61.0193 22.9987C61.2433 23.1573 61.5093 23.2367 61.8173 23.2367ZM66.4879 25.0007V17.7767H68.3359V18.3787C68.5039 18.1453 68.6859 17.968 68.8819 17.8467C69.0872 17.7253 69.3112 17.6647 69.5539 17.6647C69.8525 17.6647 70.1185 17.7393 70.3519 17.8887C70.5945 18.038 70.7812 18.248 70.9119 18.5187C71.0985 18.2387 71.3132 18.0287 71.5559 17.8887C71.8079 17.7393 72.0879 17.6647 72.3959 17.6647C72.8625 17.6647 73.2452 17.8373 73.5439 18.1827C73.8425 18.5187 73.9919 18.9573 73.9919 19.4987V25.0007H72.1439V20.1007C72.1439 19.858 72.0925 19.6667 71.9899 19.5267C71.8872 19.3773 71.7425 19.3027 71.5559 19.3027C71.4812 19.3027 71.4112 19.3167 71.3459 19.3447C71.2805 19.3633 71.2199 19.396 71.1639 19.4427C71.1639 19.4707 71.1639 19.5033 71.1639 19.5407C71.1639 19.5687 71.1639 19.6013 71.1639 19.6387V25.0007H69.3159V20.1007C69.3159 19.858 69.2645 19.6667 69.1619 19.5267C69.0592 19.3773 68.9145 19.3027 68.7279 19.3027C68.6625 19.3027 68.5972 19.312 68.5319 19.3307C68.4665 19.3493 68.4012 19.382 68.3359 19.4287V25.0007H66.4879ZM77.5844 25.1127C77.0991 25.1127 76.6651 25.0193 76.2824 24.8327C75.9091 24.646 75.6151 24.3893 75.4004 24.0627C75.1951 23.736 75.0924 23.358 75.0924 22.9287C75.0924 22.4807 75.2044 22.1027 75.4284 21.7947C75.6524 21.4773 75.9744 21.2393 76.3944 21.0807C76.8144 20.9127 77.3184 20.8287 77.9064 20.8287C78.1677 20.8287 78.4337 20.8567 78.7044 20.9127C78.9751 20.9687 79.2691 21.062 79.5864 21.1927V20.5767C79.5864 20.222 79.4697 19.9607 79.2364 19.7927C79.0031 19.6153 78.6437 19.5267 78.1584 19.5267C77.8877 19.5267 77.5844 19.5733 77.2484 19.6667C76.9217 19.7507 76.5484 19.8813 76.1284 20.0587L75.3164 18.4487C75.9231 18.178 76.4971 17.982 77.0384 17.8607C77.5891 17.73 78.1304 17.6647 78.6624 17.6647C79.6611 17.6647 80.4357 17.9027 80.9864 18.3787C81.5464 18.8547 81.8264 19.522 81.8264 20.3807V25.0007H79.5864V24.3147C79.2691 24.5947 78.9517 24.8 78.6344 24.9307C78.3171 25.052 77.9671 25.1127 77.5844 25.1127ZM77.1784 22.8867C77.1784 23.12 77.2764 23.302 77.4724 23.4327C77.6684 23.554 77.9391 23.6147 78.2844 23.6147C78.5271 23.6147 78.7557 23.582 78.9704 23.5167C79.1944 23.442 79.3997 23.3393 79.5864 23.2087V22.3547C79.3811 22.2987 79.1711 22.2567 78.9564 22.2287C78.7511 22.1913 78.5457 22.1727 78.3404 22.1727C77.9764 22.1727 77.6917 22.2333 77.4864 22.3547C77.2811 22.476 77.1784 22.6533 77.1784 22.8867Z" fill="#717B85"/>
<rect x="0.5" y="0.500671" width="101.856" height="39" rx="2.5" stroke="#717B85"/>
</svg>
