<svg width="201" height="21" viewBox="0 0 201 21" fill="none" xmlns="http://www.w3.org/2000/svg">
<path d="M7.65763 20.264C6.39363 20.264 5.24963 19.928 4.22563 19.256C3.20163 18.584 2.38563 17.608 1.77763 16.328C1.18563 15.032 0.889625 13.456 0.889625 11.6C0.889625 9.744 1.18563 8.176 1.77763 6.896C2.38563 5.6 3.19363 4.616 4.20163 3.944C5.22563 3.272 6.36963 2.936 7.63363 2.936C8.96163 2.936 10.1616 3.328 11.2336 4.112C12.3056 4.896 13.1056 6.016 13.6336 7.472L10.1296 8.648C9.90563 7.96 9.57763 7.448 9.14563 7.112C8.72963 6.776 8.26563 6.608 7.75363 6.608C7.24163 6.608 6.77763 6.776 6.36163 7.112C5.96163 7.448 5.64163 7.984 5.40163 8.72C5.16163 9.44 5.04163 10.4 5.04163 11.6C5.04163 12.784 5.16163 13.744 5.40163 14.48C5.64163 15.216 5.96963 15.752 6.38563 16.088C6.81763 16.424 7.30563 16.592 7.84963 16.592C8.26563 16.592 8.64163 16.472 8.97763 16.232C9.31363 15.992 9.59363 15.664 9.81763 15.248C10.0576 14.816 10.2096 14.336 10.2736 13.808H7.60963V10.352H14.0416V11.528C14.0416 13.368 13.7776 14.944 13.2496 16.256C12.7216 17.552 11.9776 18.544 11.0176 19.232C10.0736 19.92 8.95363 20.264 7.65763 20.264ZM22.2163 20.24C20.9683 20.24 19.8403 19.96 18.8323 19.4C17.8403 18.824 17.0483 18.056 16.4563 17.096C15.8643 16.12 15.5683 15.032 15.5683 13.832C15.5683 12.616 15.8483 11.528 16.4083 10.568C16.9683 9.608 17.7283 8.848 18.6883 8.288C19.6483 7.712 20.7283 7.424 21.9283 7.424C23.1763 7.424 24.2723 7.704 25.2163 8.264C26.1763 8.824 26.9203 9.6 27.4483 10.592C27.9923 11.568 28.2643 12.696 28.2643 13.976V14.816H19.3843C19.5123 15.28 19.7203 15.688 20.0083 16.04C20.2963 16.392 20.6483 16.664 21.0643 16.856C21.4803 17.048 21.9283 17.144 22.4083 17.144C22.9683 17.144 23.4723 17.04 23.9203 16.832C24.3843 16.624 24.7683 16.328 25.0723 15.944L27.5683 18.176C26.7843 18.928 25.9603 19.464 25.0963 19.784C24.2483 20.088 23.2883 20.24 22.2163 20.24ZM19.4083 12.608H24.6643C24.5523 12.144 24.3763 11.752 24.1363 11.432C23.8963 11.112 23.6003 10.872 23.2483 10.712C22.8963 10.536 22.4963 10.448 22.0483 10.448C21.6163 10.448 21.2163 10.536 20.8483 10.712C20.4963 10.872 20.2003 11.112 19.9603 11.432C19.7203 11.752 19.5363 12.144 19.4083 12.608ZM30.4629 20V7.616H34.3509V9.296C35.3109 8.048 36.5349 7.424 38.0229 7.424C38.8229 7.424 39.5269 7.608 40.1349 7.976C40.7589 8.328 41.2469 8.824 41.5989 9.464C41.9509 10.088 42.1269 10.816 42.1269 11.648V20H38.2389V12.776C38.2389 12.072 38.0469 11.512 37.6629 11.096C37.2949 10.68 36.7989 10.472 36.1749 10.472C35.8229 10.472 35.4949 10.536 35.1909 10.664C34.8869 10.776 34.6069 10.96 34.3509 11.216V20H30.4629ZM50.9975 20.24C49.7495 20.24 48.6215 19.96 47.6135 19.4C46.6215 18.824 45.8295 18.056 45.2375 17.096C44.6455 16.12 44.3495 15.032 44.3495 13.832C44.3495 12.616 44.6295 11.528 45.1895 10.568C45.7495 9.608 46.5095 8.848 47.4695 8.288C48.4295 7.712 49.5095 7.424 50.7095 7.424C51.9575 7.424 53.0535 7.704 53.9975 8.264C54.9575 8.824 55.7015 9.6 56.2295 10.592C56.7735 11.568 57.0455 12.696 57.0455 13.976V14.816H48.1655C48.2935 15.28 48.5015 15.688 48.7895 16.04C49.0775 16.392 49.4295 16.664 49.8455 16.856C50.2615 17.048 50.7095 17.144 51.1895 17.144C51.7495 17.144 52.2535 17.04 52.7015 16.832C53.1655 16.624 53.5495 16.328 53.8535 15.944L56.3495 18.176C55.5655 18.928 54.7415 19.464 53.8775 19.784C53.0295 20.088 52.0695 20.24 50.9975 20.24ZM48.1895 12.608H53.4455C53.3335 12.144 53.1575 11.752 52.9175 11.432C52.6775 11.112 52.3815 10.872 52.0295 10.712C51.6775 10.536 51.2775 10.448 50.8295 10.448C50.3975 10.448 49.9975 10.536 49.6295 10.712C49.2775 10.872 48.9815 11.112 48.7415 11.432C48.5015 11.752 48.3175 12.144 48.1895 12.608ZM59.2201 20V17H61.9081V10.616H59.2201V7.616H65.7961V10.736C66.2441 9.6 66.8041 8.768 67.4761 8.24C68.1641 7.696 68.9401 7.424 69.8041 7.424C70.1721 7.424 70.4601 7.448 70.6681 7.496C70.8921 7.544 71.1561 7.64 71.4601 7.784V11.264C71.1561 11.12 70.7881 11.016 70.3561 10.952C69.9401 10.872 69.5241 10.832 69.1081 10.832C68.4361 10.832 67.8041 10.984 67.2121 11.288C66.6201 11.576 66.1481 11.976 65.7961 12.488V17H68.6281V20H59.2201ZM77.6188 20.192C76.7868 20.192 76.0428 20.032 75.3867 19.712C74.7468 19.392 74.2428 18.952 73.8748 18.392C73.5228 17.832 73.3468 17.184 73.3468 16.448C73.3468 15.68 73.5388 15.032 73.9228 14.504C74.3068 13.96 74.8588 13.552 75.5788 13.28C76.2988 12.992 77.1628 12.848 78.1708 12.848C78.6188 12.848 79.0748 12.896 79.5388 12.992C80.0028 13.088 80.5068 13.248 81.0508 13.472V12.416C81.0508 11.808 80.8508 11.36 80.4508 11.072C80.0508 10.768 79.4348 10.616 78.6028 10.616C78.1388 10.616 77.6188 10.696 77.0428 10.856C76.4828 11 75.8428 11.224 75.1228 11.528L73.7308 8.768C74.7708 8.304 75.7548 7.968 76.6828 7.76C77.6268 7.536 78.5548 7.424 79.4668 7.424C81.1788 7.424 82.5068 7.832 83.4508 8.648C84.4108 9.464 84.8907 10.608 84.8907 12.08V20H81.0508V18.824C80.5068 19.304 79.9628 19.656 79.4188 19.88C78.8748 20.088 78.2748 20.192 77.6188 20.192ZM76.9228 16.376C76.9228 16.776 77.0908 17.088 77.4268 17.312C77.7628 17.52 78.2268 17.624 78.8188 17.624C79.2348 17.624 79.6268 17.568 79.9948 17.456C80.3788 17.328 80.7308 17.152 81.0508 16.928V15.464C80.6988 15.368 80.3388 15.296 79.9708 15.248C79.6188 15.184 79.2668 15.152 78.9148 15.152C78.2908 15.152 77.8028 15.256 77.4508 15.464C77.0988 15.672 76.9228 15.976 76.9228 16.376ZM96.7374 20.24C95.0254 20.24 93.7294 19.832 92.8494 19.016C91.9694 18.2 91.5294 16.992 91.5294 15.392V5.552H87.2574V2.552H95.4174V14.984C95.4174 15.672 95.5854 16.176 95.9214 16.496C96.2574 16.816 96.7934 16.976 97.5294 16.976C97.8814 16.976 98.2174 16.944 98.5374 16.88C98.8734 16.816 99.2414 16.704 99.6414 16.544V19.688C99.3854 19.816 98.9694 19.936 98.3934 20.048C97.8174 20.176 97.2654 20.24 96.7374 20.24ZM122.591 20.264C121.311 20.264 120.103 20.072 118.967 19.688C117.847 19.304 116.743 18.744 115.655 18.008L117.671 14.912C118.743 15.616 119.663 16.128 120.431 16.448C121.199 16.752 121.951 16.904 122.687 16.904C123.215 16.904 123.663 16.832 124.031 16.688C124.415 16.544 124.711 16.344 124.919 16.088C125.127 15.832 125.231 15.536 125.231 15.2C125.231 14.72 125.063 14.352 124.727 14.096C124.391 13.84 123.951 13.64 123.407 13.496C122.863 13.336 122.263 13.2 121.607 13.088C120.951 12.96 120.295 12.808 119.639 12.632C118.983 12.44 118.383 12.176 117.839 11.84C117.295 11.504 116.855 11.056 116.519 10.496C116.183 9.92 116.015 9.176 116.015 8.264C116.015 7.16 116.271 6.216 116.783 5.432C117.295 4.632 118.031 4.016 118.991 3.584C119.967 3.152 121.135 2.936 122.495 2.936C123.727 2.936 124.911 3.12 126.047 3.488C127.199 3.856 128.183 4.368 128.999 5.024L126.911 8.024C126.159 7.448 125.399 7.016 124.631 6.728C123.879 6.44 123.095 6.296 122.279 6.296C121.527 6.296 120.943 6.448 120.527 6.752C120.111 7.056 119.903 7.44 119.903 7.904C119.903 8.336 120.071 8.672 120.407 8.912C120.743 9.136 121.191 9.32 121.751 9.464C122.311 9.608 122.919 9.744 123.575 9.872C124.247 9.984 124.911 10.144 125.567 10.352C126.239 10.544 126.855 10.816 127.415 11.168C127.975 11.504 128.423 11.968 128.759 12.56C129.095 13.152 129.263 13.904 129.263 14.816C129.263 15.888 128.991 16.84 128.447 17.672C127.903 18.488 127.127 19.128 126.119 19.592C125.127 20.04 123.951 20.264 122.591 20.264ZM131.197 20V2.864L135.085 2.312V12.536L139.405 7.616H143.701L138.661 13.16L144.061 20H139.213L135.085 14.528V20H131.197ZM151.396 5.744C150.724 5.744 150.148 5.504 149.668 5.024C149.188 4.544 148.948 3.968 148.948 3.296C148.948 2.624 149.188 2.048 149.668 1.568C150.148 1.088 150.724 0.847999 151.396 0.847999C152.068 0.847999 152.644 1.088 153.124 1.568C153.604 2.048 153.844 2.624 153.844 3.296C153.844 3.968 153.604 4.544 153.124 5.024C152.644 5.504 152.068 5.744 151.396 5.744ZM154.66 20.24C152.948 20.24 151.652 19.832 150.772 19.016C149.892 18.2 149.452 16.992 149.452 15.392V10.616H145.18V7.616H153.34V14.984C153.34 15.672 153.508 16.176 153.844 16.496C154.18 16.816 154.716 16.976 155.452 16.976C155.804 16.976 156.14 16.944 156.46 16.88C156.796 16.816 157.164 16.704 157.564 16.544V19.688C157.308 19.816 156.892 19.936 156.316 20.048C155.74 20.176 155.188 20.24 154.66 20.24ZM168.691 20.24C166.979 20.24 165.683 19.832 164.803 19.016C163.923 18.2 163.483 16.992 163.483 15.392V5.552H159.211V2.552H167.371V14.984C167.371 15.672 167.539 16.176 167.875 16.496C168.211 16.816 168.747 16.976 169.483 16.976C169.835 16.976 170.171 16.944 170.491 16.88C170.827 16.816 171.195 16.704 171.595 16.544V19.688C171.339 19.816 170.923 19.936 170.347 20.048C169.771 20.176 169.219 20.24 168.691 20.24ZM183.081 20.24C181.369 20.24 180.073 19.832 179.193 19.016C178.313 18.2 177.873 16.992 177.873 15.392V5.552H173.601V2.552H181.761V14.984C181.761 15.672 181.929 16.176 182.265 16.496C182.601 16.816 183.137 16.976 183.873 16.976C184.225 16.976 184.561 16.944 184.881 16.88C185.217 16.816 185.585 16.704 185.985 16.544V19.688C185.729 19.816 185.313 19.936 184.737 20.048C184.161 20.176 183.609 20.24 183.081 20.24ZM194.472 20.24C193.272 20.24 192.152 20.088 191.112 19.784C190.088 19.464 189.208 19.032 188.472 18.488L190.272 15.992C191.184 16.52 191.952 16.888 192.576 17.096C193.216 17.288 193.856 17.384 194.496 17.384C195.248 17.384 195.816 17.296 196.2 17.12C196.6 16.944 196.8 16.696 196.8 16.376C196.8 16.12 196.656 15.92 196.368 15.776C196.096 15.632 195.728 15.52 195.264 15.44C194.816 15.344 194.32 15.248 193.776 15.152C193.232 15.056 192.68 14.936 192.12 14.792C191.576 14.632 191.072 14.416 190.608 14.144C190.16 13.872 189.792 13.52 189.504 13.088C189.232 12.64 189.096 12.08 189.096 11.408C189.096 10.528 189.32 9.792 189.768 9.2C190.216 8.608 190.848 8.16 191.664 7.856C192.496 7.536 193.456 7.376 194.544 7.376C195.504 7.376 196.472 7.512 197.448 7.784C198.424 8.056 199.32 8.472 200.136 9.032L198.264 11.408C197.64 10.992 197 10.688 196.344 10.496C195.704 10.304 195.072 10.208 194.448 10.208C193.808 10.208 193.32 10.288 192.984 10.448C192.664 10.592 192.504 10.8 192.504 11.072C192.504 11.328 192.64 11.528 192.912 11.672C193.2 11.8 193.576 11.904 194.04 11.984C194.52 12.064 195.04 12.152 195.6 12.248C196.16 12.328 196.712 12.448 197.256 12.608C197.816 12.752 198.328 12.968 198.792 13.256C199.272 13.528 199.648 13.888 199.92 14.336C200.208 14.784 200.352 15.36 200.352 16.064C200.352 16.912 200.088 17.648 199.56 18.272C199.048 18.896 198.344 19.384 197.448 19.736C196.568 20.072 195.576 20.24 194.472 20.24Z" fill="#717B85"/>
</svg>
