<svg width="106" height="40" viewBox="0 0 106 40" fill="none" xmlns="http://www.w3.org/2000/svg">
<rect x="1.29071" y="0.500366" width="104" height="39.0003" rx="2.5" fill="#F8F8F8"/>
<path d="M40.2232 18.6632L27.1245 5.56568C26.3695 4.81193 25.147 4.81193 24.3895 5.56568L21.6757 8.28443L25.1257 11.7344C25.932 11.4657 26.8495 11.6469 27.487 12.2857C28.132 12.9294 28.3095 13.8582 28.0345 14.6607L31.357 17.9857C32.1632 17.7069 33.0907 17.8882 33.732 18.5294C34.6332 19.4294 34.6332 20.8844 33.732 21.7844C32.8332 22.6832 31.3807 22.6832 30.482 21.7844C29.8082 21.1082 29.6395 20.1132 29.977 19.2894L26.8657 16.1944V24.3507C27.0857 24.4582 27.2932 24.6044 27.4757 24.7857C28.367 25.6869 28.367 27.1394 27.4757 28.0357C26.577 28.9369 25.1145 28.9369 24.2145 28.0357C23.3157 27.1369 23.3157 25.6869 24.2145 24.7882C24.442 24.5632 24.6982 24.3932 24.9707 24.2807V16.0444C24.6995 15.9307 24.4407 15.7669 24.2207 15.5432C23.5395 14.8619 23.3757 13.8657 23.7257 13.0319L20.3357 9.62568L11.3532 18.6019C10.6032 19.3582 10.6032 20.5819 11.3532 21.3382L24.4532 34.4344C25.2082 35.1894 26.4307 35.1894 27.1857 34.4344L40.2232 21.3969C40.9795 20.6432 40.9795 19.4194 40.2232 18.6632Z" fill="#717B85"/>
<path d="M54.7664 28.0665C54.2251 28.0665 53.6977 28.0105 53.1844 27.8985C52.6804 27.7865 52.2091 27.6279 51.7704 27.4225L52.4704 25.7845C52.8717 25.9712 53.2544 26.1112 53.6184 26.2045C53.9824 26.2979 54.3371 26.3445 54.6824 26.3445C55.6344 26.3445 56.1104 25.9012 56.1104 25.0145V24.2445C55.8771 24.4872 55.5971 24.6832 55.2704 24.8325C54.9531 24.9725 54.6171 25.0425 54.2624 25.0425C53.7024 25.0425 53.1891 24.8792 52.7224 24.5525C52.2651 24.2165 51.9011 23.7732 51.6304 23.2225C51.3597 22.6625 51.2244 22.0465 51.2244 21.3745C51.2244 20.6932 51.3691 20.0819 51.6584 19.5405C51.9477 18.9899 52.3351 18.5512 52.8204 18.2245C53.3057 17.8979 53.8424 17.7345 54.4304 17.7345C54.7571 17.7345 55.0651 17.7999 55.3544 17.9305C55.6531 18.0612 55.9144 18.2479 56.1384 18.4905V17.7765H58.3644V25.0425C58.3644 26.0132 58.0564 26.7599 57.4404 27.2825C56.8244 27.8052 55.9331 28.0665 54.7664 28.0665ZM54.9624 23.2365C55.1957 23.2365 55.4057 23.1945 55.5924 23.1105C55.7791 23.0265 55.9517 22.9099 56.1104 22.7605V19.9885C55.9517 19.8392 55.7744 19.7272 55.5784 19.6525C55.3824 19.5685 55.1771 19.5265 54.9624 19.5265C54.6544 19.5265 54.3837 19.6059 54.1504 19.7645C53.9264 19.9232 53.7537 20.1425 53.6324 20.4225C53.5111 20.7025 53.4504 21.0245 53.4504 21.3885C53.4504 21.7432 53.5111 22.0605 53.6324 22.3405C53.7631 22.6205 53.9404 22.8399 54.1644 22.9985C54.3884 23.1572 54.6544 23.2365 54.9624 23.2365ZM63.3989 16.6845C63.0069 16.6845 62.6709 16.5445 62.3909 16.2645C62.1109 15.9845 61.9709 15.6485 61.9709 15.2565C61.9709 14.8645 62.1109 14.5285 62.3909 14.2485C62.6709 13.9685 63.0069 13.8285 63.3989 13.8285C63.7909 13.8285 64.1269 13.9685 64.4069 14.2485C64.6869 14.5285 64.8269 14.8645 64.8269 15.2565C64.8269 15.6485 64.6869 15.9845 64.4069 16.2645C64.1269 16.5445 63.7909 16.6845 63.3989 16.6845ZM65.3029 25.1405C64.3043 25.1405 63.5483 24.9025 63.0349 24.4265C62.5216 23.9505 62.2649 23.2459 62.2649 22.3125V19.5265H59.7729V17.7765H64.5329V22.0745C64.5329 22.4759 64.6309 22.7699 64.8269 22.9565C65.0229 23.1432 65.3356 23.2365 65.7649 23.2365C65.9703 23.2365 66.1663 23.2179 66.3529 23.1805C66.5489 23.1432 66.7636 23.0779 66.9969 22.9845V24.8185C66.8476 24.8932 66.6049 24.9632 66.2689 25.0285C65.9329 25.1032 65.6109 25.1405 65.3029 25.1405ZM73.1515 25.1405C72.1435 25.1405 71.3828 24.9165 70.8695 24.4685C70.3561 24.0112 70.0995 23.3392 70.0995 22.4525V19.5265H67.9855V17.7765H70.0995V15.7745L72.3675 15.3125V17.7765H75.0975V19.5265H72.3675V22.0045C72.3675 22.4619 72.4561 22.7839 72.6335 22.9705C72.8201 23.1479 73.1421 23.2365 73.5995 23.2365C73.8048 23.2365 74.0241 23.2225 74.2575 23.1945C74.4908 23.1665 74.7848 23.1059 75.1395 23.0125V24.8465C74.8595 24.9212 74.5328 24.9865 74.1595 25.0425C73.7955 25.1079 73.4595 25.1405 73.1515 25.1405Z" fill="#717B85"/>
<rect x="1.29071" y="0.500366" width="104" height="39.0003" rx="2.5" stroke="#717B85"/>
</svg>
