<svg width="84" height="40" viewBox="0 0 84 40" fill="none" xmlns="http://www.w3.org/2000/svg">
<rect x="0.75" y="0.5" width="82.5557" height="39" rx="2.5" fill="#F8F8F8"/>
<path fill-rule="evenodd" clip-rule="evenodd" d="M16.9653 28.6729C15.2076 28.6729 13.8495 28.4088 13.1964 28.2515C12.7498 28.1439 12.3911 28.0325 12.1187 27.9182L12.9897 29.4063L13.3304 34.0562C13.3304 34.5774 14.9864 35 17.0291 35C19.0718 35 20.7278 34.5774 20.7278 34.0562L20.9976 29.3557L21.8217 27.9138C21.5481 28.0297 21.1863 28.1426 20.7341 28.2515C20.081 28.4088 18.7228 28.6729 16.9653 28.6729ZM21.85 13.5422C20.56 13.7223 18.8479 13.8216 17.0291 13.8216C15.2103 13.8216 13.4982 13.7223 12.2082 13.5422C11.5692 13.4529 11.0637 13.3477 10.7056 13.2295C10.6202 13.2012 10.4754 13.153 10.3361 13.0762L11.1354 20.4321C11.1725 20.3054 11.2139 20.1789 11.2597 20.0528C11.3535 19.7945 11.4621 19.5419 11.5853 19.2951C11.7085 19.0485 11.8427 18.8153 11.9877 18.5956C12.1327 18.376 12.2871 18.1738 12.4507 17.9891C12.6144 17.8044 12.7822 17.6455 12.9546 17.5124C13.1269 17.3794 13.3009 17.2754 13.4764 17.2005C13.6521 17.1256 13.826 17.0881 13.9983 17.0881C14.1968 17.0881 14.3888 17.1423 14.5743 17.2509C14.7597 17.3593 14.933 17.5351 15.0945 17.7779C15.1315 17.8322 15.1551 17.8871 15.1648 17.9426C15.1747 17.9982 15.1795 18.0505 15.1795 18.0996C15.1795 18.2158 15.1517 18.3076 15.0961 18.3747C15.0405 18.4419 14.9745 18.4755 14.8982 18.4755C14.8283 18.4755 14.7634 18.4386 14.7035 18.3651C14.6434 18.2914 14.5764 18.1861 14.5022 18.0492C14.4323 17.9252 14.3555 17.8355 14.2716 17.7799C14.1875 17.7243 14.0965 17.6965 13.9983 17.6965C13.8457 17.6965 13.6826 17.7599 13.5092 17.8865C13.3357 18.013 13.164 18.1803 12.9939 18.3883C12.8237 18.5963 12.6607 18.834 12.5047 19.1014C12.3488 19.3688 12.2107 19.6426 12.0907 19.9229C11.9707 20.2034 11.8754 20.4799 11.8045 20.7524C11.7336 21.0249 11.6982 21.2697 11.6982 21.4867C11.6982 21.5591 11.7031 21.6335 11.7129 21.7095C11.7228 21.7858 11.7412 21.8549 11.7685 21.917C11.7957 21.979 11.8329 22.0299 11.8797 22.0699C11.9267 22.1101 11.9861 22.13 12.058 22.13C12.1388 22.13 12.2303 22.1029 12.333 22.0486C12.4354 21.9945 12.5418 21.9234 12.6519 21.8356C12.7621 21.7477 12.8728 21.6483 12.984 21.5371C13.0954 21.426 13.1989 21.3137 13.2949 21.1999C13.3908 21.0863 13.4759 20.9771 13.55 20.8725C13.6242 20.7679 13.6798 20.6768 13.717 20.5992L14.0212 19.6885C14.0583 19.5904 14.1068 19.5206 14.1668 19.4793C14.2268 19.4379 14.2885 19.4172 14.3518 19.4172C14.3822 19.4172 14.4127 19.4224 14.4433 19.4327C14.4739 19.4431 14.5011 19.4593 14.5252 19.4811C14.5491 19.5032 14.5682 19.5315 14.5824 19.5665C14.5966 19.6013 14.6036 19.642 14.6036 19.6885C14.6036 19.8125 14.5927 19.9287 14.5709 20.0373C14.5491 20.1459 14.5213 20.2517 14.4875 20.3551C14.4537 20.4584 14.416 20.5624 14.3746 20.6671C14.3331 20.7717 14.2927 20.8809 14.2536 20.9946C14.2449 21.0075 14.229 21.0481 14.2061 21.1165C14.1832 21.1851 14.1555 21.2711 14.1227 21.3743C14.09 21.4778 14.0545 21.5933 14.0163 21.7212C13.9781 21.8492 13.9389 21.9796 13.8986 22.1126C13.8582 22.2457 13.8195 22.3762 13.7824 22.5041C13.7453 22.632 13.712 22.7476 13.6826 22.851C13.6532 22.9542 13.6287 23.0407 13.609 23.1106C13.5893 23.1804 13.5773 23.2216 13.573 23.2347C13.5621 23.2759 13.5446 23.3218 13.5207 23.3721C13.4967 23.4225 13.4683 23.4704 13.4356 23.5155C13.4029 23.5607 13.3669 23.5983 13.3276 23.6279C13.2883 23.6576 13.248 23.6725 13.2065 23.6725C13.1367 23.6725 13.086 23.6492 13.0544 23.6028C13.0227 23.5563 13.007 23.471 13.007 23.3471V23.2928C13.007 23.2746 13.008 23.2552 13.0102 23.2347C13.0123 23.1933 13.0287 23.1157 13.0593 23.002C13.0899 22.8884 13.1264 22.7599 13.169 22.6165C13.2115 22.4731 13.2573 22.3245 13.3064 22.1707C13.3554 22.017 13.3996 21.8795 13.4389 21.7581C13.3231 21.8873 13.1978 22.0158 13.0626 22.1437C12.9273 22.2716 12.7888 22.3866 12.6471 22.4886C12.5052 22.5906 12.3623 22.6739 12.2184 22.7386C12.0745 22.8031 11.9359 22.8355 11.8029 22.8355C11.6502 22.8355 11.5188 22.8019 11.4085 22.7347C11.3887 22.7224 11.3699 22.7088 11.3512 22.6953L11.7959 27.3583C11.9117 27.6484 14.0914 28.3614 16.9653 28.3614C19.8405 28.3614 22.021 27.6477 22.1347 27.3578L22.7736 21.8139C22.7207 21.8624 22.6693 21.9098 22.6201 21.9557C22.4368 22.1262 22.2638 22.2728 22.1013 22.3955C21.9389 22.5182 21.7802 22.6133 21.6253 22.6803C21.4703 22.7476 21.3046 22.7812 21.1279 22.7812C20.9621 22.7812 20.8339 22.7449 20.7434 22.6726C20.653 22.6004 20.6076 22.5009 20.6076 22.3742V22.3452C20.6076 22.3362 20.6087 22.3251 20.611 22.3122C20.6196 22.2348 20.6536 22.1455 20.7124 22.0448C20.7713 21.944 20.8422 21.8394 20.925 21.731C21.0079 21.6224 21.0962 21.5126 21.19 21.4014C21.2839 21.2904 21.3706 21.1851 21.4503 21.0856C21.5298 20.9863 21.5958 20.8952 21.6481 20.8124C21.7006 20.7297 21.7267 20.6626 21.7267 20.6109C21.7267 20.5799 21.7158 20.5554 21.694 20.5372C21.6722 20.5193 21.6361 20.5101 21.586 20.5101C21.4988 20.5101 21.4088 20.5327 21.3162 20.5779C21.2234 20.6231 21.1316 20.6839 21.0412 20.7601C20.9507 20.8363 20.8623 20.9236 20.7761 21.0217C20.6901 21.1199 20.6094 21.222 20.5341 21.3278C20.4588 21.4338 20.3902 21.5404 20.328 21.6476C20.2657 21.7549 20.2129 21.8537 20.1692 21.944C20.1561 21.9725 20.1376 22.0126 20.1135 22.0641C20.0895 22.1158 20.0634 22.1741 20.035 22.2386C20.0066 22.3032 19.9766 22.3698 19.945 22.4381C19.9134 22.5067 19.8845 22.5713 19.8584 22.632C19.8322 22.6927 19.8088 22.7468 19.7881 22.7947C19.7673 22.8424 19.7526 22.8754 19.7438 22.8936C19.7329 22.9168 19.715 22.9606 19.6899 23.0253C19.6648 23.0899 19.6358 23.1655 19.6032 23.252C19.5705 23.3385 19.5361 23.4296 19.5001 23.5253C19.4642 23.6207 19.4303 23.7113 19.3987 23.7965C19.367 23.8817 19.3392 23.9567 19.3153 24.0213C19.2913 24.0858 19.2759 24.1298 19.2694 24.1531C19.2476 24.2203 19.2219 24.2834 19.1926 24.3431C19.1631 24.4024 19.1294 24.4547 19.0911 24.5C19.053 24.5452 19.0094 24.5813 18.9602 24.6084C18.9111 24.6357 18.8561 24.6491 18.7951 24.6491C18.7165 24.6491 18.6517 24.6303 18.6003 24.5929C18.5491 24.5555 18.5234 24.4837 18.5234 24.3779C18.5234 24.3262 18.53 24.2732 18.5431 24.219C18.5561 24.1648 18.5726 24.111 18.5922 24.0582C18.6118 24.0051 18.6321 23.9535 18.6528 23.9031C18.6734 23.8527 18.6926 23.8043 18.7099 23.7578C18.8278 23.4994 18.9478 23.2405 19.0699 22.9807C19.192 22.7211 19.3092 22.4641 19.4216 22.2096C19.445 22.1565 19.4665 22.1045 19.4893 22.0517C19.4825 22.0584 19.4758 22.0654 19.4691 22.0719C19.3272 22.2089 19.186 22.3296 19.0453 22.4343C18.9046 22.5389 18.765 22.6222 18.6266 22.6843C18.488 22.7462 18.3533 22.7773 18.2223 22.7773C18.133 22.7773 18.0583 22.7631 17.9983 22.7347C17.9383 22.7062 17.8904 22.6674 17.8544 22.6184C17.8183 22.5694 17.7926 22.5112 17.7774 22.444C17.7722 22.421 17.769 22.3971 17.7657 22.3732C17.7274 22.403 17.6888 22.432 17.6498 22.4596C17.5146 22.555 17.3815 22.632 17.2506 22.6901C17.1198 22.7482 17.0019 22.7773 16.8974 22.7773C16.7926 22.7773 16.7075 22.7424 16.642 22.6726C16.5766 22.6029 16.544 22.484 16.544 22.3162C16.544 22.1972 16.5614 22.059 16.5962 21.9015C16.5395 22.0022 16.4687 22.1043 16.3836 22.2075C16.2985 22.3109 16.2014 22.4052 16.0924 22.4906C15.9832 22.5758 15.8611 22.6449 15.7259 22.6978C15.5906 22.7508 15.4434 22.7773 15.2842 22.7773C15.2122 22.7773 15.143 22.7682 15.0764 22.7502C15.0098 22.732 14.9515 22.701 14.9014 22.6571C14.8512 22.6133 14.8109 22.5544 14.7803 22.4808C14.7498 22.4073 14.7345 22.3148 14.7345 22.2037C14.7345 22.2012 14.7389 22.1618 14.7476 22.0855C14.7563 22.0092 14.7841 21.8891 14.8311 21.725C14.8779 21.5611 14.9505 21.3485 15.0485 21.0875C15.1468 20.8266 15.2853 20.5101 15.4642 20.1381C15.51 20.0399 15.5629 19.9695 15.6228 19.9269C15.6829 19.8842 15.7477 19.8629 15.8174 19.8629C15.848 19.8629 15.8796 19.8675 15.9123 19.8764C15.9452 19.8856 15.9756 19.8997 16.0041 19.9191C16.0323 19.9385 16.0553 19.9631 16.0728 19.9928C16.0901 20.0224 16.099 20.0566 16.099 20.0954C16.099 20.1212 16.0956 20.1459 16.0891 20.169C16.0781 20.2131 16.0547 20.2704 16.0189 20.3414C15.9828 20.4126 15.9408 20.494 15.8927 20.5857C15.8448 20.6774 15.7941 20.7762 15.7407 20.8823C15.6872 20.9881 15.6376 21.0979 15.5918 21.2116C15.546 21.3254 15.5067 21.4409 15.474 21.5585C15.4413 21.6761 15.4227 21.7904 15.4184 21.9015C15.4184 21.948 15.4292 21.9905 15.4511 22.0293C15.4729 22.0681 15.5089 22.0874 15.5591 22.0874C15.7008 22.0874 15.836 22.0408 15.9648 21.948C16.0934 21.8549 16.2123 21.7393 16.3214 21.6011C16.4305 21.4629 16.5292 21.3142 16.6175 21.1553C16.7059 20.9964 16.7795 20.8512 16.8384 20.7194C16.8799 20.6316 16.9164 20.5372 16.948 20.4365C16.9796 20.3357 17.014 20.2428 17.0511 20.1574C17.0882 20.0721 17.1306 20.0011 17.1787 19.9443C17.2266 19.8875 17.2867 19.859 17.3585 19.859C17.4372 19.859 17.4992 19.8887 17.5452 19.9482C17.591 20.0076 17.6138 20.0787 17.6138 20.1613C17.6138 20.2077 17.5991 20.2718 17.5696 20.3532C17.5401 20.4346 17.5031 20.5276 17.4584 20.6322C17.4136 20.7369 17.3651 20.8486 17.3128 20.9674C17.2605 21.0863 17.2119 21.207 17.1673 21.3298C17.1224 21.4525 17.0855 21.5727 17.056 21.6902C17.0265 21.8077 17.0118 21.917 17.0118 22.0176C17.0118 22.1107 17.0598 22.1572 17.1557 22.1572C17.2234 22.1572 17.3073 22.134 17.4077 22.0874C17.508 22.0408 17.6133 21.9757 17.7234 21.8917C17.7509 21.8707 17.7786 21.8488 17.8061 21.8259C17.8368 21.699 17.8729 21.5818 17.9149 21.4752C17.9912 21.2735 18.0686 21.0734 18.1472 20.8745C18.2257 20.6755 18.2976 20.4933 18.3632 20.328L19.3545 17.8283C19.3938 17.7275 19.4467 17.6564 19.5131 17.6151C19.5798 17.5738 19.6468 17.5531 19.7145 17.5531C19.782 17.5531 19.8436 17.5751 19.8993 17.619C19.9549 17.663 19.9828 17.734 19.9828 17.8322C19.9828 17.8787 19.9735 17.9278 19.9549 17.9794C19.9364 18.0311 19.913 18.0866 19.8845 18.146C19.8301 18.2676 19.7652 18.4161 19.6899 18.5917C19.6146 18.7675 19.5338 18.9587 19.4477 19.1653C19.3615 19.3721 19.2732 19.5871 19.1827 19.8106C19.0922 20.0341 19.0038 20.2517 18.9176 20.4636C18.8316 20.6755 18.7508 20.8763 18.6755 21.0662C18.6003 21.2562 18.5355 21.4209 18.4808 21.5604C18.4569 21.6198 18.4334 21.689 18.4106 21.7678C18.3876 21.8465 18.3763 21.917 18.3763 21.979C18.3763 22.0176 18.3828 22.0486 18.3959 22.0719C18.409 22.0952 18.434 22.1069 18.4711 22.1069C18.5169 22.1069 18.5741 22.0908 18.6429 22.0584C18.7115 22.0261 18.7857 21.9834 18.8653 21.9304C18.9451 21.8776 19.0279 21.8168 19.1139 21.7483C19.2002 21.6799 19.2858 21.6089 19.3708 21.5352C19.456 21.4615 19.5372 21.3879 19.6146 21.3142C19.692 21.2407 19.7614 21.1728 19.8225 21.1108C19.8368 21.0959 19.8539 21.0854 19.8728 21.0775C19.9096 20.9675 19.9432 20.8598 19.9729 20.7543C19.9904 20.7078 20.0144 20.642 20.0449 20.5566C20.0754 20.4713 20.1103 20.3874 20.1496 20.3047C20.1888 20.2221 20.2331 20.1503 20.282 20.0896C20.3312 20.029 20.3841 19.9985 20.4408 19.9985C20.5281 19.9985 20.5914 20.0186 20.6306 20.0586C20.6698 20.0987 20.6895 20.1574 20.6895 20.235C20.6895 20.2505 20.6873 20.275 20.6829 20.3086C20.6785 20.3422 20.6732 20.3778 20.6667 20.4152C20.6601 20.4526 20.653 20.4882 20.6453 20.5218C20.6376 20.5554 20.6306 20.5799 20.6241 20.5954C20.7047 20.5075 20.7919 20.4204 20.8858 20.3339C20.9796 20.2473 21.0766 20.169 21.177 20.0994C21.2774 20.0295 21.3799 19.9728 21.4847 19.9287C21.5892 19.8849 21.694 19.8629 21.7987 19.8629C21.8706 19.8629 21.9421 19.8733 22.013 19.894C22.0838 19.9146 22.1472 19.945 22.2027 19.985C22.2584 20.0252 22.3037 20.0755 22.3385 20.1362C22.3734 20.1968 22.3908 20.2672 22.3908 20.3474C22.3908 20.4534 22.3642 20.5664 22.3107 20.6865C22.2573 20.8067 22.1903 20.9274 22.1095 21.0487C22.0288 21.1703 21.9415 21.2884 21.8478 21.4034C21.754 21.5184 21.6662 21.623 21.5844 21.7173C21.5026 21.8117 21.4338 21.8917 21.3782 21.9575C21.3227 22.0236 21.2936 22.0681 21.2915 22.0914C21.2915 22.1224 21.3014 22.1475 21.321 22.167C21.3406 22.1863 21.3733 22.196 21.4191 22.196C21.4562 22.196 21.5108 22.1753 21.5827 22.134C21.6546 22.0926 21.7556 22.021 21.8853 21.9189C22.0151 21.8168 22.1799 21.6799 22.3795 21.508C22.5163 21.3903 22.6766 21.2499 22.8571 21.0902L23.7225 13.076C23.5831 13.1529 23.4381 13.2012 23.3527 13.2295C22.9946 13.3477 22.4891 13.4529 21.85 13.5422ZM17.024 11.6407C13.2828 11.6407 10.25 12.059 10.25 12.575C10.25 13.0911 13.2828 13.5094 17.024 13.5094C20.7651 13.5094 23.7979 13.0911 23.7979 12.575C23.7979 12.059 20.7651 11.6407 17.024 11.6407ZM19.7287 12.8481C19.7287 12.9692 19.3683 13.0674 18.9236 13.0674C18.4791 13.0674 18.1186 12.9692 18.1186 12.8481C18.1186 12.7269 18.4791 12.6288 18.9236 12.6288C19.3683 12.6288 19.7287 12.7269 19.7287 12.8481Z" fill="#717B85"/>
<path fill-rule="evenodd" clip-rule="evenodd" d="M18.2817 12.7512C18.2777 12.7575 18.2756 12.764 18.2756 12.7706C18.2756 12.849 18.5658 12.9125 18.9236 12.9125C19.2816 12.9125 19.5717 12.849 19.5717 12.7706L20.4181 9.33863L23.7843 5.78465C23.7854 5.78357 23.7865 5.78245 23.7875 5.78129C23.8588 5.7007 23.7142 5.45131 23.4743 5.23742C23.2344 5.02354 22.9753 4.95112 22.8948 5.03257C22.8942 5.03318 22.8936 5.03379 22.8931 5.03442L19.3015 8.81369L18.2817 12.7512Z" fill="#717B85"/>
<path d="M37.7817 28.066C37.2404 28.066 36.7131 28.01 36.1997 27.898C35.6957 27.786 35.2244 27.6273 34.7857 27.422L35.4857 25.784C35.8871 25.9707 36.2697 26.1107 36.6337 26.204C36.9977 26.2973 37.3524 26.344 37.6977 26.344C38.6497 26.344 39.1257 25.9007 39.1257 25.014V24.244C38.8924 24.4867 38.6124 24.6827 38.2857 24.832C37.9684 24.972 37.6324 25.042 37.2777 25.042C36.7177 25.042 36.2044 24.8787 35.7377 24.552C35.2804 24.216 34.9164 23.7727 34.6457 23.222C34.3751 22.662 34.2397 22.046 34.2397 21.374C34.2397 20.6927 34.3844 20.0813 34.6737 19.54C34.9631 18.9893 35.3504 18.5507 35.8357 18.224C36.3211 17.8973 36.8577 17.734 37.4457 17.734C37.7724 17.734 38.0804 17.7993 38.3697 17.93C38.6684 18.0607 38.9297 18.2473 39.1537 18.49V17.776H41.3797V25.042C41.3797 26.0127 41.0717 26.7593 40.4557 27.282C39.8397 27.8047 38.9484 28.066 37.7817 28.066ZM37.9777 23.236C38.2111 23.236 38.4211 23.194 38.6077 23.11C38.7944 23.026 38.9671 22.9093 39.1257 22.76V19.988C38.9671 19.8387 38.7897 19.7267 38.5937 19.652C38.3977 19.568 38.1924 19.526 37.9777 19.526C37.6697 19.526 37.3991 19.6053 37.1657 19.764C36.9417 19.9227 36.7691 20.142 36.6477 20.422C36.5264 20.702 36.4657 21.024 36.4657 21.388C36.4657 21.7427 36.5264 22.06 36.6477 22.34C36.7784 22.62 36.9557 22.8393 37.1797 22.998C37.4037 23.1567 37.6697 23.236 37.9777 23.236ZM45.3643 25.112C44.8976 25.112 44.4823 25.0093 44.1183 24.804C43.7636 24.5893 43.4836 24.3 43.2783 23.936C43.0729 23.5627 42.9703 23.1333 42.9703 22.648V17.776H45.2383V21.99C45.2383 22.3913 45.3456 22.718 45.5603 22.97C45.7843 23.2127 46.0783 23.334 46.4423 23.334C46.6569 23.334 46.8483 23.3013 47.0163 23.236C47.1936 23.1613 47.3569 23.0493 47.5063 22.9V17.776H49.7743V25H47.5063V24.02C46.9463 24.748 46.2323 25.112 45.3643 25.112ZM56.5028 25.14C55.5041 25.14 54.7481 24.902 54.2348 24.426C53.7215 23.95 53.4648 23.2453 53.4648 22.312V16.572H50.9728V14.822H55.7328V22.074C55.7328 22.4753 55.8308 22.7693 56.0268 22.956C56.2228 23.1427 56.5355 23.236 56.9648 23.236C57.1701 23.236 57.3661 23.2173 57.5528 23.18C57.7488 23.1427 57.9635 23.0773 58.1968 22.984V24.818C58.0475 24.8927 57.8048 24.9627 57.4688 25.028C57.1328 25.1027 56.8108 25.14 56.5028 25.14ZM59.8153 27.926V17.776H61.9993V18.476C62.2327 18.2147 62.494 18.014 62.7833 17.874C63.082 17.734 63.404 17.664 63.7493 17.664C64.3373 17.664 64.874 17.8273 65.3593 18.154C65.8447 18.4807 66.232 18.924 66.5213 19.484C66.8107 20.044 66.9553 20.6787 66.9553 21.388C66.9553 22.088 66.8107 22.7227 66.5213 23.292C66.232 23.852 65.8447 24.2953 65.3593 24.622C64.874 24.9487 64.3373 25.112 63.7493 25.112C63.432 25.112 63.1287 25.0513 62.8393 24.93C62.5593 24.7993 62.3073 24.622 62.0833 24.398V27.926H59.8153ZM63.2173 23.32C63.5347 23.32 63.8053 23.2407 64.0293 23.082C64.2533 22.9233 64.426 22.6993 64.5473 22.41C64.6687 22.1113 64.7293 21.7707 64.7293 21.388C64.7293 20.996 64.6687 20.6553 64.5473 20.366C64.426 20.0767 64.2533 19.8527 64.0293 19.694C63.8053 19.5353 63.5347 19.456 63.2173 19.456C63.0027 19.456 62.7973 19.498 62.6013 19.582C62.4147 19.6567 62.242 19.764 62.0833 19.904V22.872C62.242 23.012 62.4147 23.124 62.6013 23.208C62.7973 23.2827 63.0027 23.32 63.2173 23.32Z" fill="#717B85"/>
<rect x="0.75" y="0.5" width="82.5557" height="39" rx="2.5" stroke="#717B85"/>
</svg>
