<svg width="492" height="34" viewBox="0 0 492 34" fill="none" xmlns="http://www.w3.org/2000/svg">
<path d="M0.5345 26V3.6H6.0385V12.304H11.2865V3.6H16.7905V26H11.2865V17.136H6.0385V26H0.5345ZM27.882 6.992C26.986 6.992 26.218 6.672 25.578 6.032C24.938 5.392 24.618 4.624 24.618 3.728C24.618 2.832 24.938 2.064 25.578 1.424C26.218 0.783999 26.986 0.463999 27.882 0.463999C28.778 0.463999 29.546 0.783999 30.186 1.424C30.826 2.064 31.146 2.832 31.146 3.728C31.146 4.624 30.826 5.392 30.186 6.032C29.546 6.672 28.778 6.992 27.882 6.992ZM32.234 26.32C29.9513 26.32 28.2233 25.776 27.05 24.688C25.8767 23.6 25.29 21.9893 25.29 19.856V13.488H19.594V9.488H30.474V19.312C30.474 20.2293 30.698 20.9013 31.146 21.328C31.594 21.7547 32.3087 21.968 33.29 21.968C33.7593 21.968 34.2073 21.9253 34.634 21.84C35.082 21.7547 35.5727 21.6053 36.106 21.392V25.584C35.7647 25.7547 35.21 25.9147 34.442 26.064C33.674 26.2347 32.938 26.32 32.234 26.32ZM69.361 26.32C67.057 26.32 65.3183 25.808 64.145 24.784C62.9717 23.7387 62.385 22.2027 62.385 20.176V13.488H57.553V9.488H62.385V4.912L67.569 3.856V9.488H73.809V13.488H67.569V19.152C67.569 20.1973 67.7717 20.9333 68.177 21.36C68.6037 21.7653 69.3397 21.968 70.385 21.968C70.8543 21.968 71.3557 21.936 71.889 21.872C72.4223 21.808 73.0943 21.6693 73.905 21.456V25.648C73.265 25.8187 72.5183 25.968 71.665 26.096C70.833 26.2453 70.065 26.32 69.361 26.32ZM77.7005 26V3.216L82.8845 2.416V11.728C84.1645 10.064 85.7965 9.232 87.7805 9.232C88.8472 9.232 89.7858 9.47733 90.5965 9.968C91.4285 10.4373 92.0792 11.0987 92.5485 11.952C93.0178 12.784 93.2525 13.7547 93.2525 14.864V26H88.0685V16.368C88.0685 15.4293 87.8125 14.6827 87.3005 14.128C86.8098 13.5733 86.1485 13.296 85.3165 13.296C84.8472 13.296 84.4098 13.3813 84.0045 13.552C83.5992 13.7013 83.2258 13.9467 82.8845 14.288V26H77.7005ZM105.08 26.32C103.416 26.32 101.912 25.9467 100.568 25.2C99.2453 24.432 98.1893 23.408 97.4 22.128C96.6107 20.8267 96.216 19.376 96.216 17.776C96.216 16.1547 96.5893 14.704 97.336 13.424C98.0827 12.144 99.096 11.1307 100.376 10.384C101.656 9.616 103.096 9.232 104.696 9.232C106.36 9.232 107.821 9.60533 109.08 10.352C110.36 11.0987 111.352 12.1333 112.056 13.456C112.781 14.7573 113.144 16.2613 113.144 17.968V19.088H101.304C101.475 19.7067 101.752 20.2507 102.136 20.72C102.52 21.1893 102.989 21.552 103.544 21.808C104.099 22.064 104.696 22.192 105.336 22.192C106.083 22.192 106.755 22.0533 107.352 21.776C107.971 21.4987 108.483 21.104 108.888 20.592L112.216 23.568C111.171 24.5707 110.072 25.2853 108.92 25.712C107.789 26.1173 106.509 26.32 105.08 26.32ZM101.336 16.144H108.344C108.195 15.5253 107.96 15.0027 107.64 14.576C107.32 14.1493 106.925 13.8293 106.456 13.616C105.987 13.3813 105.453 13.264 104.856 13.264C104.28 13.264 103.747 13.3813 103.256 13.616C102.787 13.8293 102.392 14.1493 102.072 14.576C101.752 15.0027 101.507 15.5253 101.336 16.144ZM116.044 26V22H119.628V13.488H116.044V9.488H124.812V13.648C125.409 12.1333 126.156 11.024 127.052 10.32C127.969 9.59467 129.004 9.232 130.156 9.232C130.646 9.232 131.03 9.264 131.308 9.328C131.606 9.392 131.958 9.52 132.364 9.712V14.352C131.958 14.16 131.468 14.0213 130.892 13.936C130.337 13.8293 129.782 13.776 129.228 13.776C128.332 13.776 127.489 13.9787 126.7 14.384C125.91 14.768 125.281 15.3013 124.812 15.984V22H128.588V26H116.044ZM143.455 26.32C141.791 26.32 140.287 25.9467 138.943 25.2C137.62 24.432 136.564 23.408 135.775 22.128C134.986 20.8267 134.591 19.376 134.591 17.776C134.591 16.1547 134.964 14.704 135.711 13.424C136.458 12.144 137.471 11.1307 138.751 10.384C140.031 9.616 141.471 9.232 143.071 9.232C144.735 9.232 146.196 9.60533 147.455 10.352C148.735 11.0987 149.727 12.1333 150.431 13.456C151.156 14.7573 151.519 16.2613 151.519 17.968V19.088H139.679C139.85 19.7067 140.127 20.2507 140.511 20.72C140.895 21.1893 141.364 21.552 141.919 21.808C142.474 22.064 143.071 22.192 143.711 22.192C144.458 22.192 145.13 22.0533 145.727 21.776C146.346 21.4987 146.858 21.104 147.263 20.592L150.591 23.568C149.546 24.5707 148.447 25.2853 147.295 25.712C146.164 26.1173 144.884 26.32 143.455 26.32ZM139.711 16.144H146.719C146.57 15.5253 146.335 15.0027 146.015 14.576C145.695 14.1493 145.3 13.8293 144.831 13.616C144.362 13.3813 143.828 13.264 143.231 13.264C142.655 13.264 142.122 13.3813 141.631 13.616C141.162 13.8293 140.767 14.1493 140.447 14.576C140.127 15.0027 139.882 15.5253 139.711 16.144ZM160.275 18.256L159.667 2.736H164.659L164.051 18.256H160.275ZM162.163 26.32C161.245 26.32 160.477 26.0107 159.859 25.392C159.24 24.7733 158.931 24.016 158.931 23.12C158.931 22.224 159.24 21.4667 159.859 20.848C160.477 20.2293 161.245 19.92 162.163 19.92C163.08 19.92 163.848 20.2293 164.467 20.848C165.085 21.4667 165.395 22.224 165.395 23.12C165.395 24.016 165.085 24.7733 164.467 25.392C163.848 26.0107 163.08 26.32 162.163 26.32ZM192.218 26V3.6H198.01L200.57 10.512L203.066 3.6H208.858V26H204.218V11.408L200.506 20.592L196.826 11.408L196.794 26H192.218ZM214.285 33.008C213.837 33.008 213.336 32.976 212.781 32.912C212.226 32.848 211.693 32.7627 211.181 32.656V28.304C211.672 28.3893 212.066 28.4427 212.365 28.464C212.685 28.5067 213.122 28.528 213.677 28.528C214.402 28.528 214.989 28.4 215.437 28.144C215.885 27.9093 216.216 27.536 216.429 27.024L216.653 26.448L210.509 9.488H216.173L219.597 20.336L223.405 9.488H228.941L221.517 27.856C221.005 29.1147 220.429 30.1173 219.789 30.864C219.17 31.632 218.413 32.176 217.517 32.496C216.642 32.8373 215.565 33.008 214.285 33.008ZM250.388 26V9.488H255.572V11.728C256.852 10.064 258.484 9.232 260.468 9.232C261.535 9.232 262.473 9.47733 263.284 9.968C264.116 10.4373 264.767 11.0987 265.236 11.952C265.705 12.784 265.94 13.7547 265.94 14.864V26H260.756V16.368C260.756 15.4293 260.5 14.6827 259.988 14.128C259.497 13.5733 258.836 13.296 258.004 13.296C257.535 13.296 257.097 13.3813 256.692 13.552C256.287 13.7013 255.913 13.9467 255.572 14.288V26H250.388ZM274.888 26.256C273.778 26.256 272.786 26.0427 271.911 25.616C271.058 25.1893 270.386 24.6027 269.896 23.856C269.426 23.1093 269.192 22.2453 269.192 21.264C269.192 20.24 269.448 19.376 269.96 18.672C270.472 17.9467 271.208 17.4027 272.168 17.04C273.128 16.656 274.28 16.464 275.624 16.464C276.221 16.464 276.829 16.528 277.448 16.656C278.066 16.784 278.738 16.9973 279.464 17.296V15.888C279.464 15.0773 279.197 14.48 278.664 14.096C278.13 13.6907 277.309 13.488 276.2 13.488C275.581 13.488 274.888 13.5947 274.12 13.808C273.373 14 272.52 14.2987 271.56 14.704L269.704 11.024C271.09 10.4053 272.402 9.95733 273.64 9.68C274.898 9.38133 276.136 9.232 277.352 9.232C279.634 9.232 281.405 9.776 282.664 10.864C283.944 11.952 284.583 13.4773 284.583 15.44V26H279.464V24.432C278.738 25.072 278.013 25.5413 277.288 25.84C276.562 26.1173 275.762 26.256 274.888 26.256ZM273.96 21.168C273.96 21.7013 274.184 22.1173 274.632 22.416C275.08 22.6933 275.698 22.832 276.488 22.832C277.042 22.832 277.565 22.7573 278.056 22.608C278.568 22.4373 279.037 22.2027 279.464 21.904V19.952C278.994 19.824 278.514 19.728 278.024 19.664C277.554 19.5787 277.085 19.536 276.616 19.536C275.784 19.536 275.133 19.6747 274.664 19.952C274.194 20.2293 273.96 20.6347 273.96 21.168ZM287.899 26V9.488H292.123V10.864C292.507 10.3307 292.923 9.92533 293.371 9.648C293.84 9.37067 294.352 9.232 294.907 9.232C295.59 9.232 296.198 9.40267 296.731 9.744C297.286 10.0853 297.712 10.5653 298.011 11.184C298.438 10.544 298.928 10.064 299.483 9.744C300.059 9.40267 300.699 9.232 301.403 9.232C302.47 9.232 303.344 9.62667 304.027 10.416C304.71 11.184 305.051 12.1867 305.051 13.424V26H300.827V14.8C300.827 14.2453 300.71 13.808 300.475 13.488C300.24 13.1467 299.91 12.976 299.483 12.976C299.312 12.976 299.152 13.008 299.003 13.072C298.854 13.1147 298.715 13.1893 298.587 13.296C298.587 13.36 298.587 13.4347 298.587 13.52C298.587 13.584 298.587 13.6587 298.587 13.744V26H294.363V14.8C294.363 14.2453 294.246 13.808 294.011 13.488C293.776 13.1467 293.446 12.976 293.019 12.976C292.87 12.976 292.72 12.9973 292.571 13.04C292.422 13.0827 292.272 13.1573 292.123 13.264V26H287.899ZM316.143 26.32C314.479 26.32 312.975 25.9467 311.631 25.2C310.308 24.432 309.252 23.408 308.463 22.128C307.673 20.8267 307.279 19.376 307.279 17.776C307.279 16.1547 307.652 14.704 308.399 13.424C309.145 12.144 310.159 11.1307 311.439 10.384C312.719 9.616 314.159 9.232 315.759 9.232C317.423 9.232 318.884 9.60533 320.143 10.352C321.423 11.0987 322.415 12.1333 323.119 13.456C323.844 14.7573 324.207 16.2613 324.207 17.968V19.088H312.367C312.537 19.7067 312.815 20.2507 313.199 20.72C313.583 21.1893 314.052 21.552 314.607 21.808C315.161 22.064 315.759 22.192 316.399 22.192C317.145 22.192 317.817 22.0533 318.415 21.776C319.033 21.4987 319.545 21.104 319.951 20.592L323.279 23.568C322.233 24.5707 321.135 25.2853 319.983 25.712C318.852 26.1173 317.572 26.32 316.143 26.32ZM312.399 16.144H319.407C319.257 15.5253 319.023 15.0027 318.703 14.576C318.383 14.1493 317.988 13.8293 317.519 13.616C317.049 13.3813 316.516 13.264 315.919 13.264C315.343 13.264 314.809 13.3813 314.319 13.616C313.849 13.8293 313.455 14.1493 313.135 14.576C312.815 15.0027 312.569 15.5253 312.399 16.144ZM331.874 11.728L333.954 2H339.682L335.586 11.728H331.874ZM353.942 26.32C352.342 26.32 350.848 26.1173 349.462 25.712C348.096 25.2853 346.923 24.7093 345.942 23.984L348.342 20.656C349.558 21.36 350.582 21.8507 351.414 22.128C352.267 22.384 353.12 22.512 353.974 22.512C354.976 22.512 355.734 22.3947 356.246 22.16C356.779 21.9253 357.046 21.5947 357.046 21.168C357.046 20.8267 356.854 20.56 356.47 20.368C356.107 20.176 355.616 20.0267 354.998 19.92C354.4 19.792 353.739 19.664 353.014 19.536C352.288 19.408 351.552 19.248 350.806 19.056C350.08 18.8427 349.408 18.5547 348.79 18.192C348.192 17.8293 347.702 17.36 347.318 16.784C346.955 16.1867 346.774 15.44 346.774 14.544C346.774 13.3707 347.072 12.3893 347.67 11.6C348.267 10.8107 349.11 10.2133 350.198 9.808C351.307 9.38133 352.587 9.168 354.038 9.168C355.318 9.168 356.608 9.34933 357.91 9.712C359.211 10.0747 360.406 10.6293 361.494 11.376L358.998 14.544C358.166 13.9893 357.312 13.584 356.438 13.328C355.584 13.072 354.742 12.944 353.91 12.944C353.056 12.944 352.406 13.0507 351.958 13.264C351.531 13.456 351.318 13.7333 351.318 14.096C351.318 14.4373 351.499 14.704 351.862 14.896C352.246 15.0667 352.747 15.2053 353.366 15.312C354.006 15.4187 354.699 15.536 355.446 15.664C356.192 15.7707 356.928 15.9307 357.654 16.144C358.4 16.336 359.083 16.624 359.702 17.008C360.342 17.3707 360.843 17.8507 361.206 18.448C361.59 19.0453 361.782 19.8133 361.782 20.752C361.782 21.8827 361.43 22.864 360.726 23.696C360.043 24.528 359.104 25.1787 357.91 25.648C356.736 26.096 355.414 26.32 353.942 26.32ZM389.277 26L382.845 3.6H388.317L392.477 19.888L396.733 3.6H401.981L395.549 26H389.277ZM409.2 26.256C408.091 26.256 407.099 26.0427 406.224 25.616C405.371 25.1893 404.699 24.6027 404.208 23.856C403.739 23.1093 403.504 22.2453 403.504 21.264C403.504 20.24 403.76 19.376 404.272 18.672C404.784 17.9467 405.52 17.4027 406.48 17.04C407.44 16.656 408.592 16.464 409.936 16.464C410.533 16.464 411.141 16.528 411.76 16.656C412.379 16.784 413.051 16.9973 413.776 17.296V15.888C413.776 15.0773 413.509 14.48 412.976 14.096C412.443 13.6907 411.621 13.488 410.512 13.488C409.893 13.488 409.2 13.5947 408.432 13.808C407.685 14 406.832 14.2987 405.872 14.704L404.016 11.024C405.403 10.4053 406.715 9.95733 407.952 9.68C409.211 9.38133 410.448 9.232 411.664 9.232C413.947 9.232 415.717 9.776 416.976 10.864C418.256 11.952 418.896 13.4773 418.896 15.44V26H413.776V24.432C413.051 25.072 412.325 25.5413 411.6 25.84C410.875 26.1173 410.075 26.256 409.2 26.256ZM408.272 21.168C408.272 21.7013 408.496 22.1173 408.944 22.416C409.392 22.6933 410.011 22.832 410.8 22.832C411.355 22.832 411.877 22.7573 412.368 22.608C412.88 22.4373 413.349 22.2027 413.776 21.904V19.952C413.307 19.824 412.827 19.728 412.336 19.664C411.867 19.5787 411.397 19.536 410.928 19.536C410.096 19.536 409.445 19.6747 408.976 19.952C408.507 20.2293 408.272 20.6347 408.272 21.168ZM429.508 26.256C428.164 26.256 426.937 25.8827 425.828 25.136C424.718 24.3893 423.833 23.376 423.172 22.096C422.51 20.7947 422.18 19.344 422.18 17.744C422.18 16.1227 422.51 14.672 423.172 13.392C423.833 12.112 424.718 11.0987 425.828 10.352C426.937 9.60533 428.164 9.232 429.508 9.232C430.254 9.232 430.948 9.38133 431.588 9.68C432.228 9.95733 432.804 10.352 433.316 10.864V3.152L438.5 2.416V26H433.508V24.4C432.974 24.9973 432.366 25.456 431.684 25.776C431.022 26.096 430.297 26.256 429.508 26.256ZM430.724 22.16C431.214 22.16 431.684 22.0747 432.132 21.904C432.58 21.712 432.974 21.456 433.316 21.136V14.352C432.974 14.032 432.58 13.7867 432.132 13.616C431.684 13.424 431.214 13.328 430.724 13.328C430.02 13.328 429.401 13.5093 428.868 13.872C428.356 14.2347 427.961 14.7467 427.684 15.408C427.406 16.0693 427.268 16.848 427.268 17.744C427.268 18.6187 427.406 19.3973 427.684 20.08C427.961 20.7413 428.356 21.2533 428.868 21.616C429.401 21.9787 430.02 22.16 430.724 22.16ZM450.007 6.992C449.111 6.992 448.343 6.672 447.703 6.032C447.063 5.392 446.743 4.624 446.743 3.728C446.743 2.832 447.063 2.064 447.703 1.424C448.343 0.783999 449.111 0.463999 450.007 0.463999C450.903 0.463999 451.671 0.783999 452.311 1.424C452.951 2.064 453.271 2.832 453.271 3.728C453.271 4.624 452.951 5.392 452.311 6.032C451.671 6.672 450.903 6.992 450.007 6.992ZM454.359 26.32C452.076 26.32 450.348 25.776 449.175 24.688C448.002 23.6 447.415 21.9893 447.415 19.856V13.488H441.719V9.488H452.599V19.312C452.599 20.2293 452.823 20.9013 453.271 21.328C453.719 21.7547 454.434 21.968 455.415 21.968C455.884 21.968 456.332 21.9253 456.759 21.84C457.207 21.7547 457.698 21.6053 458.231 21.392V25.584C457.89 25.7547 457.335 25.9147 456.567 26.064C455.799 26.2347 455.063 26.32 454.359 26.32ZM460.587 26V9.488H464.811V10.864C465.195 10.3307 465.611 9.92533 466.059 9.648C466.528 9.37067 467.04 9.232 467.595 9.232C468.277 9.232 468.885 9.40267 469.419 9.744C469.973 10.0853 470.4 10.5653 470.699 11.184C471.125 10.544 471.616 10.064 472.171 9.744C472.747 9.40267 473.387 9.232 474.091 9.232C475.157 9.232 476.032 9.62667 476.715 10.416C477.397 11.184 477.739 12.1867 477.739 13.424V26H473.515V14.8C473.515 14.2453 473.397 13.808 473.163 13.488C472.928 13.1467 472.597 12.976 472.171 12.976C472 12.976 471.84 13.008 471.691 13.072C471.541 13.1147 471.403 13.1893 471.275 13.296C471.275 13.36 471.275 13.4347 471.275 13.52C471.275 13.584 471.275 13.6587 471.275 13.744V26H467.051V14.8C467.051 14.2453 466.933 13.808 466.699 13.488C466.464 13.1467 466.133 12.976 465.707 12.976C465.557 12.976 465.408 12.9973 465.259 13.04C465.109 13.0827 464.96 13.1573 464.811 13.264V26H460.587ZM486.462 18.256L485.854 2.736H490.846L490.238 18.256H486.462ZM488.35 26.32C487.433 26.32 486.665 26.0107 486.046 25.392C485.427 24.7733 485.118 24.016 485.118 23.12C485.118 22.224 485.427 21.4667 486.046 20.848C486.665 20.2293 487.433 19.92 488.35 19.92C489.267 19.92 490.035 20.2293 490.654 20.848C491.273 21.4667 491.582 22.224 491.582 23.12C491.582 24.016 491.273 24.7733 490.654 25.392C490.035 26.0107 489.267 26.32 488.35 26.32Z" fill="#717B85"/>
</svg>
