<svg width="125" height="40" viewBox="0 0 125 40" fill="none" xmlns="http://www.w3.org/2000/svg">
<rect x="0.5" y="0.5" width="123.25" height="39" rx="2.5" fill="#F8F8F8"/>
<path d="M10 5H36.25L33.8625 31.9538L23.0963 35L12.3913 31.9525L10 5ZM18.7887 17.1875L18.4987 13.79L31.0725 13.7937L31.36 10.5163L14.89 10.5125L15.7625 20.525H27.17L26.7625 24.8075L23.125 25.8125L19.4312 24.8L19.1963 22.1625H15.935L16.3475 27.3762L23.125 29.1887L29.8487 27.385L30.7787 17.1888H18.7887V17.1875Z" fill="#717B85"/>
<path d="M47.076 25V15.032L49.344 14.682V18.756C49.904 18.028 50.618 17.664 51.486 17.664C51.9527 17.664 52.3633 17.7713 52.718 17.986C53.082 18.1913 53.3667 18.4807 53.572 18.854C53.7773 19.218 53.88 19.6427 53.88 20.128V25H51.612V20.786C51.612 20.3753 51.5 20.0487 51.276 19.806C51.0613 19.5633 50.772 19.442 50.408 19.442C50.2027 19.442 50.0113 19.4793 49.834 19.554C49.6567 19.6193 49.4933 19.7267 49.344 19.876V25H47.076ZM60.2165 25.14C59.2085 25.14 58.4479 24.916 57.9345 24.468C57.4212 24.0107 57.1645 23.3387 57.1645 22.452V19.526H55.0505V17.776H57.1645V15.774L59.4325 15.312V17.776H62.1625V19.526H59.4325V22.004C59.4325 22.4613 59.5212 22.7833 59.6985 22.97C59.8852 23.1473 60.2072 23.236 60.6645 23.236C60.8699 23.236 61.0892 23.222 61.3225 23.194C61.5559 23.166 61.8499 23.1053 62.2045 23.012V24.846C61.9245 24.9207 61.5979 24.986 61.2245 25.042C60.8605 25.1073 60.5245 25.14 60.2165 25.14ZM63.4871 25V17.776H65.3351V18.378C65.5031 18.1447 65.6851 17.9673 65.8811 17.846C66.0864 17.7247 66.3104 17.664 66.5531 17.664C66.8517 17.664 67.1177 17.7387 67.3511 17.888C67.5937 18.0373 67.7804 18.2473 67.9111 18.518C68.0977 18.238 68.3124 18.028 68.5551 17.888C68.8071 17.7387 69.0871 17.664 69.3951 17.664C69.8617 17.664 70.2444 17.8367 70.5431 18.182C70.8417 18.518 70.9911 18.9567 70.9911 19.498V25H69.1431V20.1C69.1431 19.8573 69.0917 19.666 68.9891 19.526C68.8864 19.3767 68.7417 19.302 68.5551 19.302C68.4804 19.302 68.4104 19.316 68.3451 19.344C68.2797 19.3627 68.2191 19.3953 68.1631 19.442C68.1631 19.47 68.1631 19.5027 68.1631 19.54C68.1631 19.568 68.1631 19.6007 68.1631 19.638V25H66.3151V20.1C66.3151 19.8573 66.2637 19.666 66.1611 19.526C66.0584 19.3767 65.9137 19.302 65.7271 19.302C65.6617 19.302 65.5964 19.3113 65.5311 19.33C65.4657 19.3487 65.4004 19.3813 65.3351 19.428V25H63.4871ZM77.3416 25.14C76.3429 25.14 75.5869 24.902 75.0736 24.426C74.5603 23.95 74.3036 23.2453 74.3036 22.312V16.572H71.8116V14.822H76.5716V22.074C76.5716 22.4753 76.6696 22.7693 76.8656 22.956C77.0616 23.1427 77.3743 23.236 77.8036 23.236C78.0089 23.236 78.2049 23.2173 78.3916 23.18C78.5876 23.1427 78.8023 23.0773 79.0356 22.984V24.818C78.8863 24.8927 78.6436 24.9627 78.3076 25.028C77.9716 25.1027 77.6496 25.14 77.3416 25.14ZM81.4521 21.934V20.044H86.6041V21.934H81.4521ZM92.6887 25.14C91.942 25.14 91.27 24.9767 90.6727 24.65C90.0753 24.314 89.604 23.866 89.2587 23.306C88.9133 22.7367 88.7407 22.102 88.7407 21.402C88.7407 20.6927 88.9133 20.058 89.2587 19.498C89.604 18.938 90.0753 18.4947 90.6727 18.168C91.27 17.832 91.942 17.664 92.6887 17.664C93.4447 17.664 94.126 17.8227 94.7327 18.14C95.3393 18.4573 95.8107 18.8773 96.1467 19.4L94.4387 20.646C94.28 20.3193 94.0467 20.0627 93.7387 19.876C93.4307 19.6893 93.0853 19.596 92.7027 19.596C92.376 19.596 92.082 19.6753 91.8207 19.834C91.5687 19.9927 91.368 20.2073 91.2187 20.478C91.0693 20.7487 90.9947 21.0567 90.9947 21.402C90.9947 21.7473 91.0693 22.0553 91.2187 22.326C91.368 22.5967 91.5687 22.8113 91.8207 22.97C92.082 23.1287 92.376 23.208 92.7027 23.208C93.0853 23.208 93.4307 23.1147 93.7387 22.928C94.0467 22.732 94.28 22.4753 94.4387 22.158L96.1467 23.404C95.8107 23.9267 95.3393 24.3467 94.7327 24.664C94.126 24.9813 93.4447 25.14 92.6887 25.14ZM100.775 25.14C100.075 25.14 99.4219 25.0513 98.8152 24.874C98.2179 24.6873 97.7045 24.4353 97.2752 24.118L98.3252 22.662C98.8572 22.97 99.3052 23.1847 99.6692 23.306C100.043 23.418 100.416 23.474 100.789 23.474C101.228 23.474 101.559 23.4227 101.783 23.32C102.017 23.2173 102.133 23.0727 102.133 22.886C102.133 22.7367 102.049 22.62 101.881 22.536C101.723 22.452 101.508 22.3867 101.237 22.34C100.976 22.284 100.687 22.228 100.369 22.172C100.052 22.116 99.7299 22.046 99.4032 21.962C99.0859 21.8687 98.7919 21.7427 98.5212 21.584C98.2599 21.4253 98.0452 21.22 97.8772 20.968C97.7185 20.7067 97.6392 20.38 97.6392 19.988C97.6392 19.4747 97.7699 19.0453 98.0312 18.7C98.2925 18.3547 98.6612 18.0933 99.1372 17.916C99.6225 17.7293 100.183 17.636 100.817 17.636C101.377 17.636 101.942 17.7153 102.511 17.874C103.081 18.0327 103.603 18.2753 104.079 18.602L102.987 19.988C102.623 19.7453 102.25 19.568 101.867 19.456C101.494 19.344 101.125 19.288 100.761 19.288C100.388 19.288 100.103 19.3347 99.9072 19.428C99.7205 19.512 99.6272 19.6333 99.6272 19.792C99.6272 19.9413 99.7065 20.058 99.8652 20.142C100.033 20.2167 100.253 20.2773 100.523 20.324C100.803 20.3707 101.107 20.422 101.433 20.478C101.76 20.5247 102.082 20.5947 102.399 20.688C102.726 20.772 103.025 20.898 103.295 21.066C103.575 21.2247 103.795 21.4347 103.953 21.696C104.121 21.9573 104.205 22.2933 104.205 22.704C104.205 23.1987 104.051 23.628 103.743 23.992C103.445 24.356 103.034 24.6407 102.511 24.846C101.998 25.042 101.419 25.14 100.775 25.14ZM109.17 25.14C108.47 25.14 107.816 25.0513 107.21 24.874C106.612 24.6873 106.099 24.4353 105.67 24.118L106.72 22.662C107.252 22.97 107.7 23.1847 108.064 23.306C108.437 23.418 108.81 23.474 109.184 23.474C109.622 23.474 109.954 23.4227 110.178 23.32C110.411 23.2173 110.528 23.0727 110.528 22.886C110.528 22.7367 110.444 22.62 110.276 22.536C110.117 22.452 109.902 22.3867 109.632 22.34C109.37 22.284 109.081 22.228 108.764 22.172C108.446 22.116 108.124 22.046 107.798 21.962C107.48 21.8687 107.186 21.7427 106.916 21.584C106.654 21.4253 106.44 21.22 106.272 20.968C106.113 20.7067 106.034 20.38 106.034 19.988C106.034 19.4747 106.164 19.0453 106.426 18.7C106.687 18.3547 107.056 18.0933 107.532 17.916C108.017 17.7293 108.577 17.636 109.212 17.636C109.772 17.636 110.336 17.7153 110.906 17.874C111.475 18.0327 111.998 18.2753 112.474 18.602L111.382 19.988C111.018 19.7453 110.644 19.568 110.262 19.456C109.888 19.344 109.52 19.288 109.156 19.288C108.782 19.288 108.498 19.3347 108.302 19.428C108.115 19.512 108.022 19.6333 108.022 19.792C108.022 19.9413 108.101 20.058 108.26 20.142C108.428 20.2167 108.647 20.2773 108.918 20.324C109.198 20.3707 109.501 20.422 109.828 20.478C110.154 20.5247 110.476 20.5947 110.794 20.688C111.12 20.772 111.419 20.898 111.69 21.066C111.97 21.2247 112.189 21.4347 112.348 21.696C112.516 21.9573 112.6 22.2933 112.6 22.704C112.6 23.1987 112.446 23.628 112.138 23.992C111.839 24.356 111.428 24.6407 110.906 24.846C110.392 25.042 109.814 25.14 109.17 25.14Z" fill="#717B85"/>
<rect x="0.5" y="0.5" width="123.25" height="39" rx="2.5" stroke="#717B85"/>
</svg>
