<svg width="153" height="40" viewBox="0 0 153 40" fill="none" xmlns="http://www.w3.org/2000/svg">
<rect x="0.5" y="0.500671" width="152" height="38.25" rx="2.5" fill="#F8F8F8"/>
<path d="M23.1625 18.0382C23.0375 17.6507 22.925 17.2757 22.8 16.8882C22.675 16.5007 22.5625 16.1382 22.4625 15.7757C22.3625 15.4257 22.275 15.1007 22.1875 14.8007H22.1625C22.05 15.3382 21.9125 15.8757 21.7375 16.4132C21.55 17.0132 21.3625 17.6382 21.1625 18.2632C20.9875 18.9007 20.8 19.4882 20.6125 20.0132H23.7875C23.7125 19.7494 23.6125 19.4382 23.5 19.1119C23.3875 18.7757 23.275 18.4132 23.1625 18.0382ZM34.6875 5.00067H15.3125C12.375 5.00067 10 7.37567 10 10.3132V28.9382C10 31.8757 12.375 34.2507 15.3125 34.2507H34.6875C37.625 34.2507 40 31.8757 40 28.9382V10.3132C40 7.37567 37.625 5.00067 34.6875 5.00067ZM28.375 25.6632H25.7613C25.675 25.6757 25.5875 25.6132 25.5625 25.5257L24.5375 22.5507H19.8875L18.9375 25.4882C18.9125 25.6007 18.8125 25.6757 18.7 25.6644H16.35C16.2125 25.6644 16.175 25.5882 16.2125 25.4394L20.2375 13.8507C20.275 13.7257 20.3125 13.5882 20.3625 13.4382C20.4125 13.1757 20.4375 12.9007 20.4375 12.6257C20.425 12.5632 20.475 12.5007 20.5375 12.4882H23.775C23.875 12.4882 23.925 12.5257 23.9375 12.5882L28.5 25.4632C28.5375 25.5994 28.5 25.6632 28.375 25.6632ZM32.625 25.4757C32.625 25.6132 32.5763 25.6757 32.4638 25.6757H30.0125C29.8875 25.6757 29.825 25.5994 29.825 25.4757V15.8507C29.825 15.7257 29.8763 15.6757 29.9888 15.6757H32.4638C32.5763 15.6757 32.625 15.7382 32.625 15.8507V25.4757ZM32.3638 14.1882C32.075 14.4882 31.65 14.6507 31.225 14.6257C30.8125 14.6382 30.4125 14.4757 30.1113 14.1882C29.8238 13.8757 29.6737 13.4632 29.6862 13.0382C29.6737 12.6132 29.8363 12.2132 30.135 11.9257C30.4375 11.6382 30.8375 11.4882 31.25 11.4882C31.7388 11.4882 32.1112 11.6382 32.3875 11.9257C32.6625 12.2257 32.8125 12.6257 32.8 13.0382C32.8125 13.4632 32.6625 13.8757 32.3638 14.1882Z" fill="#717B85"/>
<path d="M54.214 16.3097C53.822 16.3097 53.486 16.1697 53.206 15.8897C52.926 15.6097 52.786 15.2737 52.786 14.8817C52.786 14.4897 52.926 14.1537 53.206 13.8737C53.486 13.5937 53.822 13.4537 54.214 13.4537C54.606 13.4537 54.942 13.5937 55.222 13.8737C55.502 14.1537 55.642 14.4897 55.642 14.8817C55.642 15.2737 55.502 15.6097 55.222 15.8897C54.942 16.1697 54.606 16.3097 54.214 16.3097ZM56.118 24.7657C55.1193 24.7657 54.3633 24.5277 53.85 24.0517C53.3367 23.5757 53.08 22.871 53.08 21.9377V19.1517H50.588V17.4017H55.348V21.6997C55.348 22.101 55.446 22.395 55.642 22.5817C55.838 22.7683 56.1507 22.8617 56.58 22.8617C56.7853 22.8617 56.9813 22.843 57.168 22.8057C57.364 22.7683 57.5787 22.703 57.812 22.6097V24.4437C57.6627 24.5183 57.42 24.5883 57.084 24.6537C56.748 24.7283 56.426 24.7657 56.118 24.7657ZM64.3025 24.7657C63.3039 24.7657 62.5479 24.5277 62.0345 24.0517C61.5212 23.5757 61.2645 22.871 61.2645 21.9377V16.1977H58.7725V14.4477H63.5325V21.6997C63.5325 22.101 63.6305 22.395 63.8265 22.5817C64.0225 22.7683 64.3352 22.8617 64.7645 22.8617C64.9699 22.8617 65.1659 22.843 65.3525 22.8057C65.5485 22.7683 65.7632 22.703 65.9965 22.6097V24.4437C65.8472 24.5183 65.6045 24.5883 65.2685 24.6537C64.9325 24.7283 64.6105 24.7657 64.3025 24.7657ZM72.6971 24.7657C71.6984 24.7657 70.9424 24.5277 70.4291 24.0517C69.9157 23.5757 69.6591 22.871 69.6591 21.9377V16.1977H67.1671V14.4477H71.9271V21.6997C71.9271 22.101 72.0251 22.395 72.2211 22.5817C72.4171 22.7683 72.7297 22.8617 73.1591 22.8617C73.3644 22.8617 73.5604 22.843 73.7471 22.8057C73.9431 22.7683 74.1577 22.703 74.3911 22.6097V24.4437C74.2417 24.5183 73.9991 24.5883 73.6631 24.6537C73.3271 24.7283 73.0051 24.7657 72.6971 24.7657ZM78.3476 24.7377C77.8809 24.7377 77.4656 24.635 77.1016 24.4297C76.7469 24.215 76.4669 23.9257 76.2616 23.5617C76.0563 23.1883 75.9536 22.759 75.9536 22.2737V17.4017H78.2216V21.6157C78.2216 22.017 78.3289 22.3437 78.5436 22.5957C78.7676 22.8383 79.0616 22.9597 79.4256 22.9597C79.6403 22.9597 79.8316 22.927 79.9996 22.8617C80.1769 22.787 80.3403 22.675 80.4896 22.5257V17.4017H82.7576V24.6257H80.4896V23.6457C79.9296 24.3737 79.2156 24.7377 78.3476 24.7377ZM87.7361 24.7657C87.0361 24.7657 86.3828 24.677 85.7761 24.4997C85.1788 24.313 84.6655 24.061 84.2361 23.7437L85.2861 22.2877C85.8181 22.5957 86.2661 22.8103 86.6301 22.9317C87.0035 23.0437 87.3768 23.0997 87.7501 23.0997C88.1888 23.0997 88.5201 23.0483 88.7441 22.9457C88.9775 22.843 89.0941 22.6983 89.0941 22.5117C89.0941 22.3623 89.0101 22.2457 88.8421 22.1617C88.6835 22.0777 88.4688 22.0123 88.1981 21.9657C87.9368 21.9097 87.6475 21.8537 87.3301 21.7977C87.0128 21.7417 86.6908 21.6717 86.3641 21.5877C86.0468 21.4943 85.7528 21.3683 85.4821 21.2097C85.2208 21.051 85.0061 20.8457 84.8381 20.5937C84.6795 20.3323 84.6001 20.0057 84.6001 19.6137C84.6001 19.1003 84.7308 18.671 84.9921 18.3257C85.2535 17.9803 85.6221 17.719 86.0981 17.5417C86.5835 17.355 87.1435 17.2617 87.7781 17.2617C88.3381 17.2617 88.9028 17.341 89.4721 17.4997C90.0415 17.6583 90.5641 17.901 91.0401 18.2277L89.9481 19.6137C89.5841 19.371 89.2108 19.1937 88.8281 19.0817C88.4548 18.9697 88.0861 18.9137 87.7221 18.9137C87.3488 18.9137 87.0641 18.9603 86.8681 19.0537C86.6815 19.1377 86.5881 19.259 86.5881 19.4177C86.5881 19.567 86.6675 19.6837 86.8261 19.7677C86.9941 19.8423 87.2135 19.903 87.4841 19.9497C87.7641 19.9963 88.0675 20.0477 88.3941 20.1037C88.7208 20.1503 89.0428 20.2203 89.3601 20.3137C89.6868 20.3977 89.9855 20.5237 90.2561 20.6917C90.5361 20.8503 90.7555 21.0603 90.9141 21.3217C91.0821 21.583 91.1661 21.919 91.1661 22.3297C91.1661 22.8243 91.0121 23.2537 90.7041 23.6177C90.4055 23.9817 89.9948 24.2663 89.4721 24.4717C88.9588 24.6677 88.3801 24.7657 87.7361 24.7657ZM97.5447 24.7657C96.5367 24.7657 95.776 24.5417 95.2627 24.0937C94.7493 23.6363 94.4927 22.9643 94.4927 22.0777V19.1517H92.3787V17.4017H94.4927V15.3997L96.7607 14.9377V17.4017H99.4907V19.1517H96.7607V21.6297C96.7607 22.087 96.8493 22.409 97.0267 22.5957C97.2133 22.773 97.5353 22.8617 97.9927 22.8617C98.198 22.8617 98.4173 22.8477 98.6507 22.8197C98.884 22.7917 99.178 22.731 99.5327 22.6377V24.4717C99.2527 24.5463 98.926 24.6117 98.5527 24.6677C98.1887 24.733 97.8527 24.7657 97.5447 24.7657ZM101.179 24.6257V22.8757H102.747V19.1517H101.179V17.4017H105.015V19.2217C105.277 18.559 105.603 18.0737 105.995 17.7657C106.397 17.4483 106.849 17.2897 107.353 17.2897C107.568 17.2897 107.736 17.3037 107.857 17.3317C107.988 17.3597 108.142 17.4157 108.319 17.4997V19.5297C108.142 19.4457 107.927 19.385 107.675 19.3477C107.433 19.301 107.19 19.2777 106.947 19.2777C106.555 19.2777 106.187 19.3663 105.841 19.5437C105.496 19.7117 105.221 19.945 105.015 20.2437V22.8757H106.667V24.6257H101.179ZM111.912 24.7377C111.426 24.7377 110.992 24.6443 110.61 24.4577C110.236 24.271 109.942 24.0143 109.728 23.6877C109.522 23.361 109.42 22.983 109.42 22.5537C109.42 22.1057 109.532 21.7277 109.756 21.4197C109.98 21.1023 110.302 20.8643 110.722 20.7057C111.142 20.5377 111.646 20.4537 112.234 20.4537C112.495 20.4537 112.761 20.4817 113.032 20.5377C113.302 20.5937 113.596 20.687 113.914 20.8177V20.2017C113.914 19.847 113.797 19.5857 113.564 19.4177C113.33 19.2403 112.971 19.1517 112.486 19.1517C112.215 19.1517 111.912 19.1983 111.576 19.2917C111.249 19.3757 110.876 19.5063 110.456 19.6837L109.644 18.0737C110.25 17.803 110.824 17.607 111.366 17.4857C111.916 17.355 112.458 17.2897 112.99 17.2897C113.988 17.2897 114.763 17.5277 115.314 18.0037C115.874 18.4797 116.154 19.147 116.154 20.0057V24.6257H113.914V23.9397C113.596 24.2197 113.279 24.425 112.962 24.5557C112.644 24.677 112.294 24.7377 111.912 24.7377ZM111.506 22.5117C111.506 22.745 111.604 22.927 111.8 23.0577C111.996 23.179 112.266 23.2397 112.612 23.2397C112.854 23.2397 113.083 23.207 113.298 23.1417C113.522 23.067 113.727 22.9643 113.914 22.8337V21.9797C113.708 21.9237 113.498 21.8817 113.284 21.8537C113.078 21.8163 112.873 21.7977 112.668 21.7977C112.304 21.7977 112.019 21.8583 111.814 21.9797C111.608 22.101 111.506 22.2783 111.506 22.5117ZM122.728 24.7657C121.72 24.7657 120.96 24.5417 120.446 24.0937C119.933 23.6363 119.676 22.9643 119.676 22.0777V19.1517H117.562V17.4017H119.676V15.3997L121.944 14.9377V17.4017H124.674V19.1517H121.944V21.6297C121.944 22.087 122.033 22.409 122.21 22.5957C122.397 22.773 122.719 22.8617 123.176 22.8617C123.382 22.8617 123.601 22.8477 123.834 22.8197C124.068 22.7917 124.362 22.731 124.716 22.6377V24.4717C124.436 24.5463 124.11 24.6117 123.736 24.6677C123.372 24.733 123.036 24.7657 122.728 24.7657ZM129.765 24.7657C129.046 24.7657 128.402 24.6023 127.833 24.2757C127.263 23.9397 126.811 23.4917 126.475 22.9317C126.148 22.3623 125.985 21.723 125.985 21.0137C125.985 20.3137 126.148 19.6837 126.475 19.1237C126.811 18.5637 127.263 18.1203 127.833 17.7937C128.402 17.4577 129.041 17.2897 129.751 17.2897C130.469 17.2897 131.109 17.4577 131.669 17.7937C132.238 18.1203 132.686 18.5637 133.013 19.1237C133.349 19.6837 133.517 20.3183 133.517 21.0277C133.517 21.7277 133.349 22.3623 133.013 22.9317C132.686 23.4917 132.238 23.9397 131.669 24.2757C131.109 24.6023 130.474 24.7657 129.765 24.7657ZM129.751 22.8617C130.059 22.8617 130.329 22.7823 130.563 22.6237C130.796 22.465 130.978 22.2503 131.109 21.9797C131.239 21.6997 131.305 21.3823 131.305 21.0277C131.305 20.673 131.239 20.3603 131.109 20.0897C130.978 19.8097 130.796 19.5903 130.563 19.4317C130.329 19.273 130.059 19.1937 129.751 19.1937C129.452 19.1937 129.181 19.273 128.939 19.4317C128.705 19.5903 128.523 19.8097 128.393 20.0897C128.262 20.3603 128.197 20.673 128.197 21.0277C128.197 21.3823 128.262 21.6997 128.393 21.9797C128.523 22.2503 128.705 22.465 128.939 22.6237C129.181 22.7823 129.452 22.8617 129.751 22.8617ZM134.757 24.6257V22.8757H136.325V19.1517H134.757V17.4017H138.593V19.2217C138.855 18.559 139.181 18.0737 139.573 17.7657C139.975 17.4483 140.427 17.2897 140.931 17.2897C141.146 17.2897 141.314 17.3037 141.435 17.3317C141.566 17.3597 141.72 17.4157 141.897 17.4997V19.5297C141.72 19.4457 141.505 19.385 141.253 19.3477C141.011 19.301 140.768 19.2777 140.525 19.2777C140.133 19.2777 139.765 19.3663 139.419 19.5437C139.074 19.7117 138.799 19.945 138.593 20.2437V22.8757H140.245V24.6257H134.757Z" fill="#717B85"/>
<rect x="0.5" y="0.500671" width="152" height="38.25" rx="2.5" stroke="#717B85"/>
</svg>
