<svg width="145" height="40" viewBox="0 0 145 40" fill="none" xmlns="http://www.w3.org/2000/svg">
<rect x="0.75" y="0.5" width="143" height="39" rx="2.5" fill="#F8F8F8"/>
<path d="M10.25 5H40.25V35H10.25V5ZM37.7925 27.845C37.5737 26.4762 36.6825 25.3263 34.0387 24.2537C33.1187 23.8225 32.0962 23.5225 31.7925 22.8287C31.6787 22.4162 31.6612 22.1912 31.735 21.9475C31.9225 21.14 32.8787 20.8975 33.6287 21.1225C34.1162 21.2725 34.5662 21.6475 34.8488 22.2475C36.1413 21.4025 36.1412 21.4025 37.0425 20.8413C36.705 20.3163 36.5375 20.09 36.31 19.8662C35.5225 18.985 34.4737 18.535 32.7675 18.5738L31.8862 18.685C31.0413 18.8912 30.2362 19.3412 29.7488 19.9412C28.3237 21.555 28.735 24.3675 30.46 25.53C32.1662 26.805 34.6612 27.085 34.98 28.2862C35.28 29.7488 33.8925 30.2175 32.5225 30.0487C31.5088 29.8237 30.9475 29.3162 30.3287 28.3787L28.0412 29.6925C28.3037 30.2925 28.6038 30.5538 29.0538 31.0788C31.2288 33.2738 36.6662 33.1612 37.6425 29.8237C37.6787 29.7112 37.9425 28.9425 37.735 27.7612L37.7925 27.845ZM26.5637 18.7887H23.7538C23.7538 21.2113 23.7425 23.6188 23.7425 26.045C23.7425 27.585 23.8212 28.9988 23.57 29.4338C23.1575 30.295 22.095 30.185 21.6125 30.0338C21.1175 29.7887 20.8663 29.4513 20.575 28.965C20.4963 28.8337 20.4375 28.72 20.4163 28.72L18.135 30.1262C18.5162 30.9137 19.0725 31.5912 19.79 32.0225C20.8588 32.66 22.295 32.8663 23.7987 32.5288C24.7775 32.2463 25.6212 31.665 26.0625 30.765C26.7 29.6025 26.565 28.1775 26.5588 26.5825C26.5737 24.015 26.5588 21.4462 26.5588 18.8587L26.5637 18.7887Z" fill="#717B85"/>
<path d="M55.724 16.684C55.332 16.684 54.996 16.544 54.716 16.264C54.436 15.984 54.296 15.648 54.296 15.256C54.296 14.864 54.436 14.528 54.716 14.248C54.996 13.968 55.332 13.828 55.724 13.828C56.116 13.828 56.452 13.968 56.732 14.248C57.012 14.528 57.152 14.864 57.152 15.256C57.152 15.648 57.012 15.984 56.732 16.264C56.452 16.544 56.116 16.684 55.724 16.684ZM53.274 28.066C52.9847 28.066 52.658 28.038 52.294 27.982C51.93 27.9353 51.5987 27.87 51.3 27.786V25.84C51.748 25.9613 52.1073 26.0407 52.378 26.078C52.658 26.1153 52.91 26.134 53.134 26.134C53.6847 26.134 54.0627 26.022 54.268 25.798C54.4827 25.5833 54.59 25.1913 54.59 24.622V19.526H51.3V17.776H56.858V24.916C56.858 27.016 55.6633 28.066 53.274 28.066ZM61.7945 25.112C61.3092 25.112 60.8752 25.0187 60.4925 24.832C60.1192 24.6453 59.8252 24.3887 59.6105 24.062C59.4052 23.7353 59.3025 23.3573 59.3025 22.928C59.3025 22.48 59.4145 22.102 59.6385 21.794C59.8625 21.4767 60.1845 21.2387 60.6045 21.08C61.0245 20.912 61.5285 20.828 62.1165 20.828C62.3779 20.828 62.6439 20.856 62.9145 20.912C63.1852 20.968 63.4792 21.0613 63.7965 21.192V20.576C63.7965 20.2213 63.6799 19.96 63.4465 19.792C63.2132 19.6147 62.8539 19.526 62.3685 19.526C62.0979 19.526 61.7945 19.5727 61.4585 19.666C61.1319 19.75 60.7585 19.8807 60.3385 20.058L59.5265 18.448C60.1332 18.1773 60.7072 17.9813 61.2485 17.86C61.7992 17.7293 62.3405 17.664 62.8725 17.664C63.8712 17.664 64.6459 17.902 65.1965 18.378C65.7565 18.854 66.0365 19.5213 66.0365 20.38V25H63.7965V24.314C63.4792 24.594 63.1619 24.7993 62.8445 24.93C62.5272 25.0513 62.1772 25.112 61.7945 25.112ZM61.3885 22.886C61.3885 23.1193 61.4865 23.3013 61.6825 23.432C61.8785 23.5533 62.1492 23.614 62.4945 23.614C62.7372 23.614 62.9659 23.5813 63.1805 23.516C63.4045 23.4413 63.6099 23.3387 63.7965 23.208V22.354C63.5912 22.298 63.3812 22.256 63.1665 22.228C62.9612 22.1907 62.7559 22.172 62.5505 22.172C62.1865 22.172 61.9019 22.2327 61.6965 22.354C61.4912 22.4753 61.3885 22.6527 61.3885 22.886ZM70.1191 25L67.1931 17.776H69.6571L71.2951 22.312L72.9471 17.776H75.2851L72.3311 25H70.1191ZM78.5836 25.112C78.0983 25.112 77.6643 25.0187 77.2816 24.832C76.9083 24.6453 76.6143 24.3887 76.3996 24.062C76.1943 23.7353 76.0916 23.3573 76.0916 22.928C76.0916 22.48 76.2036 22.102 76.4276 21.794C76.6516 21.4767 76.9736 21.2387 77.3936 21.08C77.8136 20.912 78.3176 20.828 78.9056 20.828C79.1669 20.828 79.4329 20.856 79.7036 20.912C79.9743 20.968 80.2683 21.0613 80.5856 21.192V20.576C80.5856 20.2213 80.4689 19.96 80.2356 19.792C80.0023 19.6147 79.6429 19.526 79.1576 19.526C78.8869 19.526 78.5836 19.5727 78.2476 19.666C77.9209 19.75 77.5476 19.8807 77.1276 20.058L76.3156 18.448C76.9223 18.1773 77.4963 17.9813 78.0376 17.86C78.5883 17.7293 79.1296 17.664 79.6616 17.664C80.6603 17.664 81.4349 17.902 81.9856 18.378C82.5456 18.854 82.8256 19.5213 82.8256 20.38V25H80.5856V24.314C80.2683 24.594 79.9509 24.7993 79.6336 24.93C79.3163 25.0513 78.9663 25.112 78.5836 25.112ZM78.1776 22.886C78.1776 23.1193 78.2756 23.3013 78.4716 23.432C78.6676 23.5533 78.9383 23.614 79.2836 23.614C79.5263 23.614 79.7549 23.5813 79.9696 23.516C80.1936 23.4413 80.3989 23.3387 80.5856 23.208V22.354C80.3803 22.298 80.1703 22.256 79.9556 22.228C79.7503 22.1907 79.5449 22.172 79.3396 22.172C78.9756 22.172 78.6909 22.2327 78.4856 22.354C78.2803 22.4753 78.1776 22.6527 78.1776 22.886ZM87.9861 25.14C87.2861 25.14 86.6328 25.0513 86.0261 24.874C85.4288 24.6873 84.9155 24.4353 84.4861 24.118L85.5361 22.662C86.0681 22.97 86.5161 23.1847 86.8801 23.306C87.2535 23.418 87.6268 23.474 88.0001 23.474C88.4388 23.474 88.7701 23.4227 88.9941 23.32C89.2275 23.2173 89.3441 23.0727 89.3441 22.886C89.3441 22.7367 89.2601 22.62 89.0921 22.536C88.9335 22.452 88.7188 22.3867 88.4481 22.34C88.1868 22.284 87.8975 22.228 87.5801 22.172C87.2628 22.116 86.9408 22.046 86.6141 21.962C86.2968 21.8687 86.0028 21.7427 85.7321 21.584C85.4708 21.4253 85.2561 21.22 85.0881 20.968C84.9295 20.7067 84.8501 20.38 84.8501 19.988C84.8501 19.4747 84.9808 19.0453 85.2421 18.7C85.5035 18.3547 85.8721 18.0933 86.3481 17.916C86.8335 17.7293 87.3935 17.636 88.0281 17.636C88.5881 17.636 89.1528 17.7153 89.7221 17.874C90.2915 18.0327 90.8141 18.2753 91.2901 18.602L90.1981 19.988C89.8341 19.7453 89.4608 19.568 89.0781 19.456C88.7048 19.344 88.3361 19.288 87.9721 19.288C87.5988 19.288 87.3141 19.3347 87.1181 19.428C86.9315 19.512 86.8381 19.6333 86.8381 19.792C86.8381 19.9413 86.9175 20.058 87.0761 20.142C87.2441 20.2167 87.4635 20.2773 87.7341 20.324C88.0141 20.3707 88.3175 20.422 88.6441 20.478C88.9708 20.5247 89.2928 20.5947 89.6101 20.688C89.9368 20.772 90.2355 20.898 90.5061 21.066C90.7861 21.2247 91.0055 21.4347 91.1641 21.696C91.3321 21.9573 91.4161 22.2933 91.4161 22.704C91.4161 23.1987 91.2621 23.628 90.9541 23.992C90.6555 24.356 90.2448 24.6407 89.7221 24.846C89.2088 25.042 88.6301 25.14 87.9861 25.14ZM96.6887 25.14C95.942 25.14 95.27 24.9767 94.6727 24.65C94.0753 24.314 93.604 23.866 93.2587 23.306C92.9133 22.7367 92.7407 22.102 92.7407 21.402C92.7407 20.6927 92.9133 20.058 93.2587 19.498C93.604 18.938 94.0753 18.4947 94.6727 18.168C95.27 17.832 95.942 17.664 96.6887 17.664C97.4447 17.664 98.126 17.8227 98.7327 18.14C99.3393 18.4573 99.8107 18.8773 100.147 19.4L98.4387 20.646C98.28 20.3193 98.0467 20.0627 97.7387 19.876C97.4307 19.6893 97.0853 19.596 96.7027 19.596C96.376 19.596 96.082 19.6753 95.8207 19.834C95.5687 19.9927 95.368 20.2073 95.2187 20.478C95.0693 20.7487 94.9947 21.0567 94.9947 21.402C94.9947 21.7473 95.0693 22.0553 95.2187 22.326C95.368 22.5967 95.5687 22.8113 95.8207 22.97C96.082 23.1287 96.376 23.208 96.7027 23.208C97.0853 23.208 97.4307 23.1147 97.7387 22.928C98.0467 22.732 98.28 22.4753 98.4387 22.158L100.147 23.404C99.8107 23.9267 99.3393 24.3467 98.7327 24.664C98.126 24.9813 97.4447 25.14 96.6887 25.14ZM101.429 25V23.25H102.997V19.526H101.429V17.776H105.265V19.596C105.527 18.9333 105.853 18.448 106.245 18.14C106.647 17.8227 107.099 17.664 107.603 17.664C107.818 17.664 107.986 17.678 108.107 17.706C108.238 17.734 108.392 17.79 108.569 17.874V19.904C108.392 19.82 108.177 19.7593 107.925 19.722C107.683 19.6753 107.44 19.652 107.197 19.652C106.805 19.652 106.437 19.7407 106.091 19.918C105.746 20.086 105.471 20.3193 105.265 20.618V23.25H106.917V25H101.429ZM113.226 16.684C112.834 16.684 112.498 16.544 112.218 16.264C111.938 15.984 111.798 15.648 111.798 15.256C111.798 14.864 111.938 14.528 112.218 14.248C112.498 13.968 112.834 13.828 113.226 13.828C113.618 13.828 113.954 13.968 114.234 14.248C114.514 14.528 114.654 14.864 114.654 15.256C114.654 15.648 114.514 15.984 114.234 16.264C113.954 16.544 113.618 16.684 113.226 16.684ZM115.13 25.14C114.131 25.14 113.375 24.902 112.862 24.426C112.348 23.95 112.092 23.2453 112.092 22.312V19.526H109.6V17.776H114.36V22.074C114.36 22.4753 114.458 22.7693 114.654 22.956C114.85 23.1427 115.162 23.236 115.592 23.236C115.797 23.236 115.993 23.2173 116.18 23.18C116.376 23.1427 116.59 23.0773 116.824 22.984V24.818C116.674 24.8927 116.432 24.9627 116.096 25.028C115.76 25.1027 115.438 25.14 115.13 25.14ZM118.232 27.926V17.776H120.416V18.476C120.65 18.2147 120.911 18.014 121.2 17.874C121.499 17.734 121.821 17.664 122.166 17.664C122.754 17.664 123.291 17.8273 123.776 18.154C124.262 18.4807 124.649 18.924 124.938 19.484C125.228 20.044 125.372 20.6787 125.372 21.388C125.372 22.088 125.228 22.7227 124.938 23.292C124.649 23.852 124.262 24.2953 123.776 24.622C123.291 24.9487 122.754 25.112 122.166 25.112C121.849 25.112 121.546 25.0513 121.256 24.93C120.976 24.7993 120.724 24.622 120.5 24.398V27.926H118.232ZM121.634 23.32C121.952 23.32 122.222 23.2407 122.446 23.082C122.67 22.9233 122.843 22.6993 122.964 22.41C123.086 22.1113 123.146 21.7707 123.146 21.388C123.146 20.996 123.086 20.6553 122.964 20.366C122.843 20.0767 122.67 19.8527 122.446 19.694C122.222 19.5353 121.952 19.456 121.634 19.456C121.42 19.456 121.214 19.498 121.018 19.582C120.832 19.6567 120.659 19.764 120.5 19.904V22.872C120.659 23.012 120.832 23.124 121.018 23.208C121.214 23.2827 121.42 23.32 121.634 23.32ZM131.373 25.14C130.365 25.14 129.604 24.916 129.091 24.468C128.577 24.0107 128.321 23.3387 128.321 22.452V19.526H126.207V17.776H128.321V15.774L130.589 15.312V17.776H133.319V19.526H130.589V22.004C130.589 22.4613 130.677 22.7833 130.855 22.97C131.041 23.1473 131.363 23.236 131.821 23.236C132.026 23.236 132.245 23.222 132.479 23.194C132.712 23.166 133.006 23.1053 133.361 23.012V24.846C133.081 24.9207 132.754 24.986 132.381 25.042C132.017 25.1073 131.681 25.14 131.373 25.14Z" fill="#717B85"/>
<rect x="0.75" y="0.5" width="143" height="39" rx="2.5" stroke="#717B85"/>
</svg>
