<svg width="125" height="40" viewBox="0 0 125 40" fill="none" xmlns="http://www.w3.org/2000/svg">
<rect x="0.5" y="0.500366" width="123.146" height="39" rx="2.5" fill="#F8F8F8"/>
<path d="M11.9792 12.0457C9.22025 16.009 9.56285 21.1635 11.6717 25.3721C11.7197 25.4746 11.7729 25.5719 11.8248 25.6692C11.8546 25.7367 11.8884 25.799 11.9247 25.8639C11.9416 25.8989 11.9649 25.9366 11.9857 25.9703C12.0194 26.0378 12.0558 26.1027 12.0908 26.1676L12.2946 26.5128C12.3335 26.5764 12.3685 26.6386 12.4114 26.7022C12.484 26.8242 12.5671 26.9449 12.6424 27.0669C12.6761 27.1188 12.7072 27.1681 12.7449 27.2187C12.8707 27.4169 13.0049 27.6095 13.1472 27.7962C13.2484 27.9351 13.3496 28.07 13.4586 28.205C13.4937 28.2543 13.5339 28.3036 13.5702 28.3542L13.8557 28.7033C13.8921 28.7423 13.9271 28.7903 13.9647 28.8318C14.0919 28.9849 14.2269 29.1342 14.3618 29.286L14.3683 29.2938C14.5331 29.5017 14.7178 29.6929 14.9199 29.8648C15.0237 29.9725 15.1275 30.0789 15.2378 30.1827L15.3689 30.3086C15.5129 30.4449 15.6583 30.5798 15.8101 30.7096C15.8127 30.7096 15.814 30.7122 15.8166 30.7135L15.8906 30.7784C16.0229 30.8939 16.1566 31.0094 16.2929 31.1158L16.4551 31.2521C16.5654 31.3403 16.6809 31.4247 16.7925 31.5116L16.9703 31.6479C17.091 31.7387 17.2194 31.8283 17.3427 31.9165C17.3881 31.9489 17.4336 31.9814 17.4803 32.0112L17.5192 32.0411L17.8826 32.2812L18.0383 32.385C18.2304 32.507 18.4198 32.6238 18.6093 32.738C18.6625 32.7639 18.7183 32.7951 18.7689 32.8262C18.9091 32.9067 19.0544 32.9884 19.1959 33.0637C19.2737 33.1078 19.3542 33.1454 19.4347 33.1857C19.532 33.2402 19.6332 33.2934 19.7383 33.3479C19.7634 33.3556 19.7878 33.3655 19.811 33.3777C19.8538 33.3972 19.894 33.418 19.9356 33.4387C20.0913 33.5166 20.2535 33.5919 20.4222 33.6658C20.4534 33.6788 20.4871 33.6918 20.5209 33.71C20.7077 33.7917 20.8959 33.8696 21.0893 33.9461C21.1334 33.9591 21.1801 33.9812 21.2255 33.9981C21.4007 34.0642 21.5811 34.1317 21.7589 34.1953L21.8238 34.2187C22.0236 34.2861 22.2196 34.351 22.4207 34.4133C22.4674 34.4263 22.5155 34.4432 22.5648 34.4561C22.7724 34.5184 22.9723 34.5924 23.1799 34.6339C36.5114 37.0633 40.3851 26.6179 40.3851 26.6179C37.1304 30.8563 31.3556 31.9736 25.8843 30.7304C25.6819 30.6837 25.4795 30.6188 25.2744 30.5591C25.0274 30.4858 24.7821 30.407 24.5386 30.3229L24.4581 30.2917C24.2817 30.232 24.1117 30.1659 23.9391 30.0997C23.8921 30.0807 23.8445 30.0633 23.7963 30.0478C23.6042 29.9699 23.42 29.8908 23.2344 29.809C23.1942 29.796 23.1604 29.7778 23.1202 29.7623C22.963 29.6901 22.8064 29.6165 22.6504 29.5417C22.6037 29.521 22.5578 29.4985 22.5129 29.4742C22.3909 29.4171 22.2689 29.3509 22.1495 29.2886C22.0675 29.2492 21.9866 29.2077 21.9068 29.164C21.7589 29.0862 21.6122 29.0018 21.4656 28.9213C21.4215 28.8902 21.3709 28.8643 21.3202 28.8357C21.1285 28.722 20.9385 28.6052 20.7505 28.4853C20.6984 28.4533 20.6473 28.4195 20.5974 28.3841C20.4597 28.2988 20.3247 28.2092 20.1925 28.1155C20.1471 28.0856 20.1056 28.0532 20.0589 28.0207C19.9295 27.9315 19.8019 27.8397 19.676 27.7456C19.6215 27.7015 19.5631 27.66 19.5047 27.6158C19.3905 27.525 19.275 27.4406 19.1608 27.3459L19.0077 27.2226C18.8603 27.1045 18.7154 26.9834 18.573 26.8593C18.5583 26.8444 18.5422 26.8309 18.5249 26.819L18.0746 26.409L17.9449 26.287C17.8384 26.178 17.7294 26.0741 17.6204 25.9677L17.4933 25.8379C17.3562 25.7015 17.2225 25.5618 17.0923 25.4188L17.0728 25.398C16.9352 25.2475 16.8003 25.0931 16.6666 24.9373C16.6316 24.8984 16.5978 24.8543 16.5628 24.8115L16.2682 24.452C16.1186 24.2597 15.9715 24.0655 15.827 23.8693C12.7929 19.7283 11.695 14.0105 14.1231 9.32179L11.9792 12.0457ZM20.5377 8.70797C18.5392 11.5772 18.6508 15.4159 20.2081 18.4513C20.4654 18.962 20.7595 19.4534 21.088 19.9216C21.3864 20.3499 21.7161 20.8573 22.1171 21.2038C22.2559 21.3621 22.4064 21.5152 22.5635 21.671L22.6803 21.7877C22.8282 21.9305 22.9813 22.0694 23.1345 22.2095L23.1552 22.2264C23.3303 22.3792 23.5094 22.5272 23.6925 22.6702C23.7366 22.7001 23.7742 22.7351 23.8171 22.7649C23.9988 22.9051 24.183 23.0401 24.3725 23.175L24.392 23.1867C24.4724 23.2451 24.5581 23.2983 24.6489 23.3554C24.6853 23.3788 24.7268 23.4099 24.7657 23.4333C24.9033 23.5215 25.0382 23.6046 25.1784 23.6889C25.2004 23.698 25.2199 23.7097 25.2407 23.7188C25.3575 23.7901 25.4847 23.8589 25.6066 23.9225C25.6495 23.9485 25.691 23.9679 25.7364 23.9926C25.8221 24.0354 25.9077 24.0808 25.9921 24.125L26.0336 24.1431C26.2088 24.2301 26.3879 24.3105 26.5631 24.3897C26.6072 24.4079 26.6448 24.4221 26.6825 24.4403C26.8265 24.5026 26.9731 24.5623 27.1185 24.6181C27.1834 24.6402 27.2444 24.6661 27.3054 24.6856C27.4377 24.7349 27.5779 24.7803 27.7077 24.8257L27.8893 24.8841C28.0801 24.9425 28.2722 25.0191 28.472 25.0528C38.763 26.7567 41.1456 18.8302 41.1456 18.8302C39.0005 21.9188 34.849 23.3891 30.4251 22.2407C30.2293 22.1901 30.035 22.1338 29.8424 22.072C29.7801 22.0538 29.7256 22.0343 29.6659 22.0161C29.531 21.9694 29.3921 21.9253 29.261 21.8747L29.0742 21.8046C28.9275 21.7462 28.7796 21.6917 28.6381 21.6294C28.594 21.61 28.5538 21.597 28.52 21.5775C28.3384 21.4958 28.1554 21.4153 27.9776 21.3284L27.7103 21.1895L27.5558 21.1116C27.4395 21.0498 27.3248 20.9849 27.2119 20.917C27.1843 20.9034 27.1574 20.8882 27.1315 20.8716C26.9939 20.7859 26.8499 20.7028 26.7188 20.6146C26.6747 20.5899 26.6344 20.5601 26.5929 20.5341L26.323 20.3577C26.1361 20.2279 25.9531 20.0877 25.7676 19.9515C25.726 19.9138 25.6858 19.8827 25.6456 19.8489C23.7003 18.3202 22.1664 16.2283 21.4383 13.8625C20.6727 11.4008 20.8414 8.64179 22.1651 6.40061L20.5377 8.70797ZM27.7349 6.20985C26.5553 7.94101 26.4424 10.09 27.2547 11.9977C28.1177 14.026 29.8813 15.6184 31.9369 16.371C32.0213 16.4035 32.1031 16.4307 32.1913 16.4619L32.3055 16.4969C32.4249 16.5359 32.5456 16.5787 32.6689 16.6059C38.3542 17.7025 39.8933 13.686 40.3073 13.0969C38.9537 15.0409 36.684 15.5068 33.8991 14.8293C33.6722 14.7726 33.4487 14.7033 33.2295 14.6217C32.9566 14.526 32.6888 14.416 32.4275 14.2921C31.9328 14.0528 31.4625 13.7659 31.0233 13.4356C28.5291 11.5448 26.9835 7.93842 28.6109 5.00037" fill="#717B85"/>
<path d="M56.6196 16.6844C56.2276 16.6844 55.8916 16.5444 55.6116 16.2644C55.3316 15.9844 55.1916 15.6484 55.1916 15.2564C55.1916 14.8644 55.3316 14.5284 55.6116 14.2484C55.8916 13.9684 56.2276 13.8284 56.6196 13.8284C57.0116 13.8284 57.3476 13.9684 57.6276 14.2484C57.9076 14.5284 58.0476 14.8644 58.0476 15.2564C58.0476 15.6484 57.9076 15.9844 57.6276 16.2644C57.3476 16.5444 57.0116 16.6844 56.6196 16.6844ZM54.1696 28.0664C53.8803 28.0664 53.5536 28.0384 53.1896 27.9824C52.8256 27.9357 52.4943 27.8704 52.1956 27.7864V25.8404C52.6436 25.9617 53.0029 26.041 53.2736 26.0784C53.5536 26.1157 53.8056 26.1344 54.0296 26.1344C54.5803 26.1344 54.9583 26.0224 55.1636 25.7984C55.3783 25.5837 55.4856 25.1917 55.4856 24.6224V19.5264H52.1956V17.7764H57.7536V24.9164C57.7536 27.0164 56.5589 28.0664 54.1696 28.0664ZM63.1941 25.1124C62.6061 25.1124 62.0695 24.949 61.5841 24.6224C61.0988 24.2957 60.7115 23.8524 60.4221 23.2924C60.1328 22.723 59.9881 22.0884 59.9881 21.3884C59.9881 20.679 60.1328 20.0444 60.4221 19.4844C60.7115 18.9244 61.0988 18.481 61.5841 18.1544C62.0695 17.8277 62.6061 17.6644 63.1941 17.6644C63.5301 17.6644 63.8428 17.7344 64.1321 17.8744C64.4308 18.0144 64.6968 18.2057 64.9301 18.4484V17.7764H67.1141V27.9264H64.8461V24.4124C64.6221 24.6364 64.3701 24.809 64.0901 24.9304C63.8101 25.0517 63.5115 25.1124 63.1941 25.1124ZM63.7261 23.3204C63.9408 23.3204 64.1415 23.283 64.3281 23.2084C64.5241 23.1337 64.6968 23.0264 64.8461 22.8864V19.8904C64.6968 19.7504 64.5241 19.643 64.3281 19.5684C64.1415 19.4937 63.9408 19.4564 63.7261 19.4564C63.4181 19.4564 63.1475 19.5357 62.9141 19.6944C62.6901 19.853 62.5175 20.077 62.3961 20.3664C62.2748 20.6557 62.2141 20.9964 62.2141 21.3884C62.2141 21.771 62.2748 22.1117 62.3961 22.4104C62.5175 22.6997 62.6901 22.9237 62.9141 23.0824C63.1475 23.241 63.4181 23.3204 63.7261 23.3204ZM71.0987 25.1124C70.632 25.1124 70.2167 25.0097 69.8527 24.8044C69.498 24.5897 69.218 24.3004 69.0127 23.9364C68.8073 23.563 68.7047 23.1337 68.7047 22.6484V17.7764H70.9727V21.9904C70.9727 22.3917 71.08 22.7184 71.2947 22.9704C71.5187 23.213 71.8127 23.3344 72.1767 23.3344C72.3913 23.3344 72.5827 23.3017 72.7507 23.2364C72.928 23.1617 73.0913 23.0497 73.2407 22.9004V17.7764H75.5087V25.0004H73.2407V24.0204C72.6807 24.7484 71.9667 25.1124 71.0987 25.1124ZM80.7392 25.1404C80.0112 25.1404 79.3532 24.977 78.7652 24.6504C78.1865 24.3144 77.7245 23.8664 77.3792 23.3064C77.0339 22.737 76.8612 22.1024 76.8612 21.4024C76.8612 20.693 77.0245 20.0584 77.3512 19.4984C77.6779 18.9384 78.1212 18.495 78.6812 18.1684C79.2412 17.8324 79.8712 17.6644 80.5712 17.6644C81.2992 17.6644 81.9385 17.8277 82.4892 18.1544C83.0492 18.481 83.4832 18.9337 83.7912 19.5124C84.1085 20.0817 84.2672 20.7397 84.2672 21.4864V21.9764H79.0872C79.1619 22.247 79.2832 22.485 79.4512 22.6904C79.6192 22.8957 79.8245 23.0544 80.0672 23.1664C80.3099 23.2784 80.5712 23.3344 80.8512 23.3344C81.1779 23.3344 81.4719 23.2737 81.7332 23.1524C82.0039 23.031 82.2279 22.8584 82.4052 22.6344L83.8612 23.9364C83.4039 24.375 82.9232 24.6877 82.4192 24.8744C81.9245 25.0517 81.3645 25.1404 80.7392 25.1404ZM79.1012 20.6884H82.1672C82.1019 20.4177 81.9992 20.189 81.8592 20.0024C81.7192 19.8157 81.5465 19.6757 81.3412 19.5824C81.1359 19.4797 80.9025 19.4284 80.6412 19.4284C80.3892 19.4284 80.1559 19.4797 79.9412 19.5824C79.7359 19.6757 79.5632 19.8157 79.4232 20.0024C79.2832 20.189 79.1759 20.4177 79.1012 20.6884ZM85.5357 25.0004V23.2504H87.1037V19.5264H85.5357V17.7764H89.3717V19.5964C89.6331 18.9337 89.9597 18.4484 90.3517 18.1404C90.7531 17.823 91.2057 17.6644 91.7097 17.6644C91.9244 17.6644 92.0924 17.6784 92.2137 17.7064C92.3444 17.7344 92.4984 17.7904 92.6757 17.8744V19.9044C92.4984 19.8204 92.2837 19.7597 92.0317 19.7224C91.7891 19.6757 91.5464 19.6524 91.3037 19.6524C90.9117 19.6524 90.5431 19.741 90.1977 19.9184C89.8524 20.0864 89.5771 20.3197 89.3717 20.6184V23.2504H91.0237V25.0004H85.5357ZM94.9383 28.0664C94.7423 28.0664 94.5229 28.0524 94.2803 28.0244C94.0376 27.9964 93.8043 27.959 93.5803 27.9124V26.0084C93.7949 26.0457 93.9676 26.069 94.0983 26.0784C94.2383 26.097 94.4296 26.1064 94.6723 26.1064C94.9896 26.1064 95.2463 26.0504 95.4423 25.9384C95.6383 25.8357 95.7829 25.6724 95.8763 25.4484L95.9743 25.1964L93.2863 17.7764H95.7643L97.2623 22.5224L98.9283 17.7764H101.35L98.1023 25.8124C97.8783 26.363 97.6263 26.8017 97.3463 27.1284C97.0756 27.4644 96.7443 27.7024 96.3523 27.8424C95.9696 27.9917 95.4983 28.0664 94.9383 28.0664Z" fill="#717B85"/>
<rect x="0.5" y="0.500366" width="123.146" height="39" rx="2.5" stroke="#717B85"/>
</svg>
