<svg width="106" height="40" viewBox="0 0 106 40" fill="none" xmlns="http://www.w3.org/2000/svg">
<rect x="0.75" y="0.5" width="104" height="39" rx="2.5" fill="#F8F8F8"/>
<g clip-path="url(#clip0_13_121)">
<path d="M14.7475 13.9375C14.3069 13.9366 13.8668 13.965 13.43 14.0225C13.0787 14.0737 12.78 14.1775 12.5338 14.3337C12.2906 14.4826 12.0953 14.6983 11.9712 14.955C11.8487 15.215 11.7962 15.5425 11.7962 15.9575V17.875C11.7962 18.41 11.6913 18.79 11.48 18.98C11.2688 19.1875 10.865 19.2925 10.25 19.2925V20.7425C10.8475 20.7425 11.2688 20.8462 11.48 21.0537C11.6913 21.2612 11.7962 21.6412 11.7962 22.1937V24.1287C11.7962 24.8712 12.025 25.39 12.4813 25.6662C12.9562 25.925 13.7113 26.0637 14.7475 26.0637V24.7162C14.2562 24.7162 13.94 24.6287 13.7812 24.4737C13.6237 24.3187 13.5525 24.0075 13.5525 23.5412V21.71C13.5525 21.2437 13.43 20.8812 13.2025 20.6225C12.9725 20.3625 12.6037 20.155 12.095 20.0175C12.5862 19.8612 12.955 19.655 13.1837 19.3775C13.4125 19.1025 13.535 18.7387 13.535 18.29V16.4587C13.535 16.0087 13.6063 15.6987 13.7638 15.5425C13.9163 15.3925 14.2787 15.2987 14.7475 15.2925V20.9762C14.7475 21.4962 14.785 21.9312 14.86 22.2812C14.9338 22.6312 15.065 22.9312 15.2525 23.1862C15.44 23.44 15.6975 23.6237 16.0225 23.74C16.3475 23.8562 16.7588 23.915 17.2525 23.915C17.375 23.915 17.5087 23.9062 17.6525 23.89C17.9258 23.8622 18.1972 23.8175 18.465 23.7562L18.42 22.5312C18.0825 22.5787 17.805 22.6025 17.5862 22.6025C17.145 22.6025 16.8488 22.4875 16.695 22.2575C16.5425 22.0287 16.4662 21.59 16.4662 20.9437V13.9362H14.7475V13.9375ZM35.77 13.9362V15.3012C36.2612 15.3012 36.5787 15.3875 36.7362 15.5425C36.895 15.6987 36.965 16.0087 36.965 16.4587V18.29C36.965 18.7387 37.0875 19.1025 37.315 19.3775C37.545 19.655 37.9137 19.8612 38.405 20.0175C37.8962 20.155 37.5275 20.3625 37.2987 20.6212C37.07 20.8812 36.9475 21.2437 36.9475 21.71V23.5412C36.9475 24.0075 36.8762 24.3187 36.7188 24.4737C36.5612 24.63 36.2437 24.7162 35.7525 24.7162V26.0637C36.79 26.0637 37.545 25.9262 38.0187 25.6662C38.475 25.39 38.7038 24.8712 38.7038 24.1287V22.1937C38.7038 21.6412 38.81 21.2612 39.02 21.0537C39.2313 20.8462 39.6525 20.7425 40.25 20.7425V19.2925C39.635 19.2925 39.2313 19.1875 39.02 18.98C38.81 18.7912 38.7038 18.41 38.7038 17.875V15.9575C38.7038 15.5425 38.6512 15.215 38.5287 14.9562C38.4049 14.6991 38.2096 14.483 37.9663 14.3337C37.6926 14.1684 37.3872 14.0624 37.07 14.0225C36.6393 13.9626 36.2048 13.9338 35.77 13.9362ZM27.6712 16.405C26.8275 16.405 26.16 16.58 25.6862 16.9312C25.2113 17.2825 24.9662 17.7925 24.9662 18.4425C24.9662 18.97 25.1062 19.4087 25.405 19.725C25.7037 20.0412 26.1775 20.3225 26.845 20.585C26.8988 20.6037 27.02 20.6562 27.215 20.7262C27.7775 20.955 28.1625 21.1137 28.3562 21.2712C28.4494 21.3404 28.525 21.4306 28.5769 21.5344C28.6288 21.6382 28.6555 21.7527 28.655 21.8687C28.655 22.1487 28.55 22.36 28.3387 22.5012C28.1275 22.6412 27.8287 22.7112 27.4425 22.7112C27.0737 22.7112 26.6525 22.6412 26.2125 22.5175C25.828 22.4225 25.4565 22.2811 25.1063 22.0962L24.9312 23.3962C25.5625 23.7662 26.4062 23.9412 27.4775 23.9412C28.3737 23.9412 29.0588 23.7475 29.5513 23.3612C30.0425 22.975 30.2887 22.4125 30.2887 21.6925C30.2887 21.1475 30.1313 20.7087 29.8137 20.375C29.4988 20.0412 29.0238 19.76 28.3562 19.5137C27.8787 19.3262 27.3062 19.1675 26.845 18.8812C26.7552 18.827 26.6817 18.7494 26.6324 18.6567C26.5831 18.5641 26.5598 18.4598 26.565 18.355C26.565 18.1262 26.67 17.95 26.8638 17.8275C27.0562 17.705 27.32 17.6525 27.6712 17.6525C28.3038 17.6525 28.9537 17.81 29.6388 18.1262L30.095 16.9312C29.3925 16.5812 28.585 16.405 27.6712 16.405ZM33.3112 16.405C32.4675 16.405 31.7987 16.58 31.325 16.9312C30.85 17.2825 30.605 17.7925 30.605 18.4425C30.605 18.97 30.745 19.4087 31.0438 19.725C31.3438 20.0412 31.8175 20.3225 32.485 20.585C32.5375 20.6037 32.66 20.6562 32.8538 20.7262C33.4163 20.955 33.8025 21.1137 33.9963 21.2712C34.0892 21.3406 34.1645 21.4308 34.2162 21.5345C34.2679 21.6383 34.2944 21.7528 34.2938 21.8687C34.2938 22.1487 34.1888 22.36 33.9775 22.5012C33.7675 22.6412 33.4688 22.7112 33.0825 22.7112C32.6657 22.7021 32.252 22.6369 31.8525 22.5175C31.4676 22.4226 31.0957 22.2811 30.745 22.0962L30.57 23.3962C31.2025 23.7662 32.045 23.9412 33.1175 23.9412C33.995 23.9412 34.6987 23.7475 35.225 23.3612C35.7175 22.975 35.9625 22.4125 35.9625 21.6925C35.9625 21.1475 35.805 20.7087 35.4888 20.375C35.1725 20.0412 34.6987 19.76 34.0312 19.5137C33.5413 19.3225 32.9788 19.1675 32.52 18.8812C32.4299 18.8271 32.3562 18.7496 32.3067 18.657C32.2572 18.5643 32.2337 18.4599 32.2388 18.355C32.2388 18.1262 32.345 17.95 32.5387 17.8275C32.7312 17.705 32.9937 17.6525 33.3462 17.6525C33.9787 17.6525 34.6287 17.81 35.3138 18.1262L35.735 16.9312C35.0325 16.5812 34.2237 16.405 33.31 16.405H33.3112ZM21.4862 16.4225C20.4338 16.4225 19.6075 16.7562 18.9925 17.4412C18.3775 18.1262 18.08 19.04 18.08 20.1812C18.08 21.3762 18.395 22.29 19.045 22.9562C19.695 23.625 20.5913 23.9587 21.7513 23.9587C22.7513 23.9587 23.6138 23.73 24.3512 23.3087L24.105 22.0787C23.416 22.4774 22.6348 22.6894 21.8387 22.6937C21.2238 22.6937 20.7312 22.5 20.38 22.1312C20.03 21.7625 19.8362 21.2362 19.8175 20.5687H24.6325V19.83C24.6325 18.7937 24.3513 17.9675 23.8063 17.3525C23.2438 16.7387 22.4887 16.4225 21.4875 16.4225H21.4862ZM21.47 17.6512C21.945 17.6512 22.3125 17.81 22.5763 18.1262C22.84 18.4425 22.98 18.8987 22.98 19.4787H19.8375C19.89 18.8637 20.065 18.4075 20.3462 18.1087C20.6625 17.81 21.0312 17.6512 21.4713 17.6512H21.47Z" fill="#717B85"/>
</g>
<path d="M56.158 25.14C55.1593 25.14 54.4033 24.902 53.89 24.426C53.3767 23.95 53.12 23.2453 53.12 22.312V16.572H50.628V14.822H55.388V22.074C55.388 22.4753 55.486 22.7693 55.682 22.956C55.878 23.1427 56.1907 23.236 56.62 23.236C56.8253 23.236 57.0213 23.2173 57.208 23.18C57.404 23.1427 57.6187 23.0773 57.852 22.984V24.818C57.7027 24.8927 57.46 24.9627 57.124 25.028C56.788 25.1027 56.466 25.14 56.158 25.14ZM63.0545 25.14C62.3265 25.14 61.6685 24.9767 61.0805 24.65C60.5019 24.314 60.0399 23.866 59.6945 23.306C59.3492 22.7367 59.1765 22.102 59.1765 21.402C59.1765 20.6927 59.3399 20.058 59.6665 19.498C59.9932 18.938 60.4365 18.4947 60.9965 18.168C61.5565 17.832 62.1865 17.664 62.8865 17.664C63.6145 17.664 64.2539 17.8273 64.8045 18.154C65.3645 18.4807 65.7985 18.9333 66.1065 19.512C66.4239 20.0813 66.5825 20.7393 66.5825 21.486V21.976H61.4025C61.4772 22.2467 61.5985 22.4847 61.7665 22.69C61.9345 22.8953 62.1399 23.054 62.3825 23.166C62.6252 23.278 62.8865 23.334 63.1665 23.334C63.4932 23.334 63.7872 23.2733 64.0485 23.152C64.3192 23.0307 64.5432 22.858 64.7205 22.634L66.1765 23.936C65.7192 24.3747 65.2385 24.6873 64.7345 24.874C64.2399 25.0513 63.6799 25.14 63.0545 25.14ZM61.4165 20.688H64.4825C64.4172 20.4173 64.3145 20.1887 64.1745 20.002C64.0345 19.8153 63.8619 19.6753 63.6565 19.582C63.4512 19.4793 63.2179 19.428 62.9565 19.428C62.7045 19.428 62.4712 19.4793 62.2565 19.582C62.0512 19.6753 61.8785 19.8153 61.7385 20.002C61.5985 20.1887 61.4912 20.4173 61.4165 20.688ZM71.1971 25.14C70.4971 25.14 69.8437 25.0513 69.2371 24.874C68.6397 24.6873 68.1264 24.4353 67.6971 24.118L68.7471 22.662C69.2791 22.97 69.7271 23.1847 70.0911 23.306C70.4644 23.418 70.8377 23.474 71.2111 23.474C71.6497 23.474 71.9811 23.4227 72.2051 23.32C72.4384 23.2173 72.5551 23.0727 72.5551 22.886C72.5551 22.7367 72.4711 22.62 72.3031 22.536C72.1444 22.452 71.9297 22.3867 71.6591 22.34C71.3977 22.284 71.1084 22.228 70.7911 22.172C70.4737 22.116 70.1517 22.046 69.8251 21.962C69.5077 21.8687 69.2137 21.7427 68.9431 21.584C68.6817 21.4253 68.4671 21.22 68.2991 20.968C68.1404 20.7067 68.0611 20.38 68.0611 19.988C68.0611 19.4747 68.1917 19.0453 68.4531 18.7C68.7144 18.3547 69.0831 18.0933 69.5591 17.916C70.0444 17.7293 70.6044 17.636 71.2391 17.636C71.7991 17.636 72.3637 17.7153 72.9331 17.874C73.5024 18.0327 74.0251 18.2753 74.5011 18.602L73.4091 19.988C73.0451 19.7453 72.6717 19.568 72.2891 19.456C71.9157 19.344 71.5471 19.288 71.1831 19.288C70.8097 19.288 70.5251 19.3347 70.3291 19.428C70.1424 19.512 70.0491 19.6333 70.0491 19.792C70.0491 19.9413 70.1284 20.058 70.2871 20.142C70.4551 20.2167 70.6744 20.2773 70.9451 20.324C71.2251 20.3707 71.5284 20.422 71.8551 20.478C72.1817 20.5247 72.5037 20.5947 72.8211 20.688C73.1477 20.772 73.4464 20.898 73.7171 21.066C73.9971 21.2247 74.2164 21.4347 74.3751 21.696C74.5431 21.9573 74.6271 22.2933 74.6271 22.704C74.6271 23.1987 74.4731 23.628 74.1651 23.992C73.8664 24.356 73.4557 24.6407 72.9331 24.846C72.4197 25.042 71.8411 25.14 71.1971 25.14ZM79.5916 25.14C78.8916 25.14 78.2383 25.0513 77.6316 24.874C77.0343 24.6873 76.5209 24.4353 76.0916 24.118L77.1416 22.662C77.6736 22.97 78.1216 23.1847 78.4856 23.306C78.8589 23.418 79.2323 23.474 79.6056 23.474C80.0443 23.474 80.3756 23.4227 80.5996 23.32C80.8329 23.2173 80.9496 23.0727 80.9496 22.886C80.9496 22.7367 80.8656 22.62 80.6976 22.536C80.5389 22.452 80.3243 22.3867 80.0536 22.34C79.7923 22.284 79.5029 22.228 79.1856 22.172C78.8683 22.116 78.5463 22.046 78.2196 21.962C77.9023 21.8687 77.6083 21.7427 77.3376 21.584C77.0763 21.4253 76.8616 21.22 76.6936 20.968C76.5349 20.7067 76.4556 20.38 76.4556 19.988C76.4556 19.4747 76.5863 19.0453 76.8476 18.7C77.1089 18.3547 77.4776 18.0933 77.9536 17.916C78.4389 17.7293 78.9989 17.636 79.6336 17.636C80.1936 17.636 80.7583 17.7153 81.3276 17.874C81.8969 18.0327 82.4196 18.2753 82.8956 18.602L81.8036 19.988C81.4396 19.7453 81.0663 19.568 80.6836 19.456C80.3103 19.344 79.9416 19.288 79.5776 19.288C79.2043 19.288 78.9196 19.3347 78.7236 19.428C78.5369 19.512 78.4436 19.6333 78.4436 19.792C78.4436 19.9413 78.5229 20.058 78.6816 20.142C78.8496 20.2167 79.0689 20.2773 79.3396 20.324C79.6196 20.3707 79.9229 20.422 80.2496 20.478C80.5763 20.5247 80.8983 20.5947 81.2156 20.688C81.5423 20.772 81.8409 20.898 82.1116 21.066C82.3916 21.2247 82.6109 21.4347 82.7696 21.696C82.9376 21.9573 83.0216 22.2933 83.0216 22.704C83.0216 23.1987 82.8676 23.628 82.5596 23.992C82.2609 24.356 81.8503 24.6407 81.3276 24.846C80.8143 25.042 80.2356 25.14 79.5916 25.14Z" fill="#717B85"/>
<rect x="0.75" y="0.5" width="104" height="39" rx="2.5" stroke="#717B85"/>
<defs>
<clipPath id="clip0_13_121">
<rect width="30" height="30" fill="white" transform="translate(10.25 5)"/>
</clipPath>
</defs>
</svg>
