<svg width="101" height="40" viewBox="0 0 101 40" fill="none" xmlns="http://www.w3.org/2000/svg">
<rect x="0.5" y="0.500671" width="99.3474" height="39" rx="2.5" fill="#F8F8F8"/>
<path d="M16.4408 10.1316C16.1091 10.1316 15.8841 10.1752 15.6505 10.2342V10.2747H15.6909C15.8466 10.5981 16.112 10.8344 16.3081 11.1237C16.4639 11.4564 16.5966 11.7891 16.7523 12.1188L16.7927 12.0721C17.0638 11.8669 17.1965 11.5373 17.1965 11.0366C17.0811 10.8904 17.0638 10.7443 16.9658 10.6012C16.8504 10.3928 16.6023 10.2902 16.4466 10.1254L16.4408 10.1316ZM36.1092 28.1995C34.5661 28.156 33.3691 28.3239 32.3682 28.7842C32.0798 28.9086 31.6183 28.9086 31.5779 29.3035C31.7365 29.4683 31.7596 29.7389 31.8952 29.969C32.1259 30.3857 32.5239 30.9424 32.8931 31.2347C33.2969 31.5768 33.7008 31.9064 34.1248 32.1987C34.8747 32.6963 35.7256 32.9917 36.4611 33.4924C36.8793 33.7847 37.3062 34.1548 37.7302 34.4658C37.9407 34.6213 38.0763 34.9012 38.3474 35.0007V34.9385C38.2148 34.7519 38.1744 34.4813 38.0446 34.273C37.8513 34.0646 37.6581 33.878 37.4677 33.6728C36.9014 32.8682 36.2256 32.1605 35.4631 31.5737C34.8458 31.1196 33.496 30.4852 33.2421 29.7233L33.2046 29.6798C33.6258 29.6394 34.1276 29.4746 34.5314 29.3502C35.1862 29.1636 35.7861 29.204 36.464 29.0205C36.7697 28.9366 37.0783 28.8339 37.3869 28.7282V28.5416C37.0408 28.1684 36.7812 27.6616 36.4236 27.3133C35.4253 26.3724 34.3606 25.5167 33.2393 24.7539C32.6335 24.3372 31.8663 24.0697 31.2289 23.7152C30.9981 23.5908 30.6116 23.5286 30.4789 23.3203C30.1328 22.8662 29.9309 22.2629 29.6857 21.7218C29.1194 20.5373 28.5931 19.3309 28.108 18.1051C27.7619 17.2904 27.5513 16.4787 27.1273 15.7324C25.1371 12.1965 22.9825 10.0539 19.6684 7.95788C18.956 7.52251 18.1022 7.33592 17.1994 7.10579C16.7177 7.08091 16.236 7.0436 15.7572 7.02183C15.4399 6.87567 15.1342 6.48072 14.8631 6.29102C13.767 5.54467 10.9288 3.92758 10.1212 6.06712C9.60203 7.41677 10.8913 8.74777 11.3384 9.43192C11.6701 9.90772 12.0883 10.4519 12.3191 10.9868C12.4546 11.3476 12.4921 11.7176 12.6277 12.0939C12.9335 13.0082 13.2248 14.0282 13.6286 14.8834C13.8391 15.3188 14.0699 15.7759 14.341 16.1677C14.4968 16.3948 14.7621 16.5005 14.8227 16.8737C14.5516 17.2966 14.5343 17.9123 14.3785 18.4286C13.6863 20.7827 13.9574 23.6935 14.9381 25.4256C15.2467 25.9418 15.9822 27.0862 16.9658 26.6478C17.8311 26.2746 17.6407 25.0929 17.8888 24.0511C17.9464 23.8023 17.9089 23.6375 18.0272 23.4695V23.5162C18.2983 24.1008 18.5695 24.6575 18.8175 25.2421C19.4117 26.2621 20.4501 27.3195 21.3183 28.0254C21.7797 28.3986 22.1461 29.0454 22.7229 29.2755V29.2133H22.6797C22.5556 29.033 22.3912 28.9459 22.2355 28.7997C21.8698 28.4137 21.5322 27.9979 21.2259 27.5558C20.4133 26.3586 19.6927 25.0918 19.0713 23.7681C18.7541 23.115 18.4887 22.4122 18.2349 21.7685C18.1195 21.5197 18.1195 21.1465 17.9263 21.0221C17.6378 21.4762 17.2138 21.8711 17.0033 22.4309C16.637 23.3265 16.5995 24.4274 16.461 25.5718C16.3831 25.5935 16.4206 25.5718 16.3831 25.6153C15.7659 25.4536 15.5553 24.7632 15.3246 24.1848C14.7477 22.7076 14.6525 20.3349 15.1515 18.6338C15.2871 18.1984 15.8639 16.8239 15.6332 16.4072C15.5121 16.0123 15.1313 15.7852 14.9208 15.4649C14.6499 15.048 14.418 14.6032 14.2285 14.137C13.767 12.974 13.5363 11.6865 13.0344 10.5235C12.8037 9.98546 12.3998 9.42259 12.071 8.92813C11.7047 8.36837 11.3009 7.97343 11.0096 7.31104C10.9144 7.08402 10.7788 6.70774 10.9317 6.45895C10.9721 6.29103 11.0529 6.22572 11.2028 6.17907C11.4567 5.95517 12.1691 6.24749 12.42 6.37188C13.1325 6.68286 13.7324 6.97518 14.3295 7.41055C14.6006 7.6158 14.8919 8.01074 15.238 8.11337H15.6419C16.2591 8.25953 16.9542 8.1569 17.5311 8.34038C18.555 8.6949 19.478 9.21113 20.3058 9.77089C22.8566 11.5277 24.9313 13.9802 26.3197 16.8799C26.5505 17.3588 26.6514 17.7973 26.862 18.2948C27.2658 19.3211 27.7648 20.3566 28.1743 21.3487C28.5781 22.3283 28.9675 23.3265 29.5473 24.1382C29.8357 24.5735 30.9952 24.8005 31.5144 25.0276C31.898 25.2141 32.4951 25.3852 32.8412 25.6122C33.5046 26.0476 34.1507 26.5451 34.7737 27.024C35.091 27.2604 36.0515 27.7797 36.1092 28.1995Z" fill="#717B85"/>
<path d="M48.7954 25.0007V17.7767H50.6434V18.3787C50.8114 18.1453 50.9934 17.968 51.1894 17.8467C51.3948 17.7253 51.6188 17.6647 51.8614 17.6647C52.1601 17.6647 52.4261 17.7393 52.6594 17.8887C52.9021 18.038 53.0888 18.248 53.2194 18.5187C53.4061 18.2387 53.6208 18.0287 53.8634 17.8887C54.1154 17.7393 54.3954 17.6647 54.7034 17.6647C55.1701 17.6647 55.5528 17.8373 55.8514 18.1827C56.1501 18.5187 56.2994 18.9573 56.2994 19.4987V25.0007H54.4514V20.1007C54.4514 19.858 54.4001 19.6667 54.2974 19.5267C54.1948 19.3773 54.0501 19.3027 53.8634 19.3027C53.7888 19.3027 53.7188 19.3167 53.6534 19.3447C53.5881 19.3633 53.5274 19.396 53.4714 19.4427C53.4714 19.4707 53.4714 19.5033 53.4714 19.5407C53.4714 19.5687 53.4714 19.6013 53.4714 19.6387V25.0007H51.6234V20.1007C51.6234 19.858 51.5721 19.6667 51.4694 19.5267C51.3668 19.3773 51.2221 19.3027 51.0354 19.3027C50.9701 19.3027 50.9048 19.312 50.8394 19.3307C50.7741 19.3493 50.7088 19.382 50.6434 19.4287V25.0007H48.7954ZM58.562 28.0667C58.366 28.0667 58.1466 28.0527 57.904 28.0247C57.6613 27.9967 57.428 27.9593 57.204 27.9127V26.0087C57.4186 26.046 57.5913 26.0693 57.722 26.0787C57.862 26.0973 58.0533 26.1067 58.296 26.1067C58.6133 26.1067 58.87 26.0507 59.066 25.9387C59.262 25.836 59.4066 25.6727 59.5 25.4487L59.598 25.1967L56.91 17.7767H59.388L60.886 22.5227L62.552 17.7767H64.974L61.726 25.8127C61.502 26.3633 61.25 26.802 60.97 27.1287C60.6993 27.4647 60.368 27.7027 59.976 27.8427C59.5933 27.992 59.122 28.0667 58.562 28.0667ZM69.2945 25.1407C68.5945 25.1407 67.9412 25.052 67.3345 24.8747C66.7372 24.688 66.2238 24.436 65.7945 24.1187L66.8445 22.6627C67.3765 22.9707 67.8245 23.1853 68.1885 23.3067C68.5618 23.4187 68.9352 23.4747 69.3085 23.4747C69.7472 23.4747 70.0785 23.4233 70.3025 23.3207C70.5358 23.218 70.6525 23.0733 70.6525 22.8867C70.6525 22.7373 70.5685 22.6207 70.4005 22.5367C70.2418 22.4527 70.0272 22.3873 69.7565 22.3407C69.4952 22.2847 69.2058 22.2287 68.8885 22.1727C68.5712 22.1167 68.2492 22.0467 67.9225 21.9627C67.6052 21.8693 67.3112 21.7433 67.0405 21.5847C66.7792 21.426 66.5645 21.2207 66.3965 20.9687C66.2378 20.7073 66.1585 20.3807 66.1585 19.9887C66.1585 19.4753 66.2892 19.046 66.5505 18.7007C66.8118 18.3553 67.1805 18.094 67.6565 17.9167C68.1418 17.73 68.7018 17.6367 69.3365 17.6367C69.8965 17.6367 70.4612 17.716 71.0305 17.8747C71.5998 18.0333 72.1225 18.276 72.5985 18.6027L71.5065 19.9887C71.1425 19.746 70.7692 19.5687 70.3865 19.4567C70.0132 19.3447 69.6445 19.2887 69.2805 19.2887C68.9072 19.2887 68.6225 19.3353 68.4265 19.4287C68.2398 19.5127 68.1465 19.634 68.1465 19.7927C68.1465 19.942 68.2258 20.0587 68.3845 20.1427C68.5525 20.2173 68.7718 20.278 69.0425 20.3247C69.3225 20.3713 69.6258 20.4227 69.9525 20.4787C70.2792 20.5253 70.6012 20.5953 70.9185 20.6887C71.2452 20.7727 71.5438 20.8987 71.8145 21.0667C72.0945 21.2253 72.3138 21.4353 72.4725 21.6967C72.6405 21.958 72.7245 22.294 72.7245 22.7047C72.7245 23.1993 72.5705 23.6287 72.2625 23.9927C71.9638 24.3567 71.5532 24.6413 71.0305 24.8467C70.5172 25.0427 69.9385 25.1407 69.2945 25.1407ZM77.185 25.1127C76.597 25.1127 76.0604 24.9493 75.575 24.6227C75.0897 24.296 74.7024 23.8527 74.413 23.2927C74.1237 22.7233 73.979 22.0887 73.979 21.3887C73.979 20.6793 74.1237 20.0447 74.413 19.4847C74.7024 18.9247 75.0897 18.4813 75.575 18.1547C76.0604 17.828 76.597 17.6647 77.185 17.6647C77.521 17.6647 77.8337 17.7347 78.123 17.8747C78.4217 18.0147 78.6877 18.206 78.921 18.4487V17.7767H81.105V27.9267H78.837V24.4127C78.613 24.6367 78.361 24.8093 78.081 24.9307C77.801 25.052 77.5024 25.1127 77.185 25.1127ZM77.717 23.3207C77.9317 23.3207 78.1324 23.2833 78.319 23.2087C78.515 23.134 78.6877 23.0267 78.837 22.8867V19.8907C78.6877 19.7507 78.515 19.6433 78.319 19.5687C78.1324 19.494 77.9317 19.4567 77.717 19.4567C77.409 19.4567 77.1384 19.536 76.905 19.6947C76.681 19.8533 76.5084 20.0773 76.387 20.3667C76.2657 20.656 76.205 20.9967 76.205 21.3887C76.205 21.7713 76.2657 22.112 76.387 22.4107C76.5084 22.7 76.681 22.924 76.905 23.0827C77.1384 23.2413 77.409 23.3207 77.717 23.3207ZM87.8336 25.1407C86.8349 25.1407 86.0789 24.9027 85.5656 24.4267C85.0522 23.9507 84.7956 23.246 84.7956 22.3127V16.5727H82.3036V14.8227H87.0636V22.0747C87.0636 22.476 87.1616 22.77 87.3576 22.9567C87.5536 23.1433 87.8662 23.2367 88.2956 23.2367C88.5009 23.2367 88.6969 23.218 88.8836 23.1807C89.0796 23.1433 89.2942 23.078 89.5276 22.9847V24.8187C89.3782 24.8933 89.1356 24.9633 88.7996 25.0287C88.4636 25.1033 88.1416 25.1407 87.8336 25.1407Z" fill="#717B85"/>
<rect x="0.5" y="0.500671" width="99.3474" height="39" rx="2.5" stroke="#717B85"/>
</svg>
