<svg width="136" height="40" viewBox="0 0 136 40" fill="none" xmlns="http://www.w3.org/2000/svg">
<rect x="0.5" y="0.500671" width="135" height="38.2487" rx="2.5" fill="#F8F8F8"/>
<path d="M22.3125 15.1507C21.85 14.9632 21.35 14.8882 20.8375 14.9007C20.5125 14.9007 20.225 14.9007 19.9875 14.9132C19.7375 14.9007 19.5625 14.9132 19.475 14.9257V19.1257C19.65 19.1382 19.8125 19.1507 19.9625 19.1507H20.625C21.1125 19.1507 21.6 19.0757 22.0625 18.9257C22.4625 18.8132 22.8125 18.5757 23.0875 18.2632C23.35 17.9507 23.475 17.5257 23.475 16.9757C23.4875 16.5882 23.3875 16.2007 23.1875 15.8632C22.975 15.5382 22.675 15.2882 22.3125 15.1507ZM34.6875 5.00067H15.3125C12.375 5.00067 10 7.37567 10 10.3132V28.9369C10 31.8744 12.375 34.2494 15.3125 34.2494H34.6875C37.625 34.2494 40 31.8744 40 28.9369V10.3132C40 7.37567 37.625 5.00067 34.6875 5.00067ZM25.4488 19.5632C24.95 20.2632 24.25 20.7882 23.4375 21.0882C22.5875 21.4007 21.65 21.5132 20.625 21.5132C20.325 21.5132 20.125 21.5132 20 21.5007C19.875 21.4882 19.7 21.4882 19.4625 21.4882V25.4994C19.475 25.5869 19.4125 25.6632 19.325 25.6757H16.9C16.8 25.6757 16.75 25.6244 16.75 25.5119V12.6507C16.75 12.5632 16.7875 12.5132 16.875 12.5132C17.0875 12.5132 17.2875 12.5132 17.575 12.5007C17.875 12.4882 18.1875 12.4882 18.525 12.4757C18.8625 12.4632 19.225 12.4632 19.6125 12.4507C20 12.4382 20.375 12.4382 20.75 12.4382C21.775 12.4382 22.625 12.5632 23.325 12.8257C23.95 13.0382 24.525 13.3882 25 13.8507C25.4 14.2507 25.7125 14.7382 25.9125 15.2757C26.0987 15.8007 26.1987 16.3382 26.1987 16.9007C26.2 17.9757 25.95 18.8632 25.4488 19.5632ZM34.3125 24.4257C33.9625 24.9257 33.4738 25.3119 32.9125 25.5394C32.3 25.8007 31.55 25.9369 30.6487 25.9369C30.075 25.9369 29.5113 25.8882 28.95 25.7757C28.5125 25.6994 28.075 25.5632 27.675 25.3757C27.5875 25.3269 27.5238 25.2394 27.5363 25.1394V22.9644C27.5363 22.9282 27.55 22.8769 27.5875 22.8519C27.6237 22.8269 27.6625 22.8394 27.7 22.8644C28.1875 23.1519 28.7 23.3532 29.25 23.4769C29.7237 23.6019 30.2238 23.6644 30.725 23.6644C31.2 23.6644 31.5375 23.6007 31.7625 23.4882C31.9625 23.4007 32.1 23.1882 32.1 22.9632C32.1 22.7869 32 22.6257 31.8 22.4632C31.6 22.3019 31.1887 22.1144 30.5763 21.8744C29.9387 21.6494 29.3525 21.3494 28.8013 20.9757C28.4137 20.6994 28.09 20.3382 27.85 19.9132C27.6513 19.5132 27.5512 19.0757 27.5637 18.6369C27.5637 18.0994 27.7137 17.5869 27.99 17.1244C28.3025 16.6244 28.7638 16.2244 29.3013 15.9744C29.8875 15.6757 30.625 15.5382 31.5125 15.5382C32.025 15.5382 32.55 15.5757 33.0625 15.6507C33.4375 15.7007 33.8 15.8007 34.1375 15.9382C34.1862 15.9507 34.2375 16.0007 34.2625 16.0507C34.275 16.1007 34.2875 16.1507 34.2875 16.2007V18.2382C34.2875 18.2882 34.2625 18.3382 34.225 18.3632C34.1125 18.3882 34.05 18.3882 34 18.3632C33.625 18.1632 33.225 18.0257 32.8 17.9382C32.3375 17.8382 31.875 17.7757 31.4 17.7757C31.15 17.7632 30.8875 17.8007 30.6487 17.8632C30.4875 17.9007 30.3487 17.9882 30.2612 18.1132C30.1987 18.2132 30.1612 18.3382 30.1612 18.4507C30.1612 18.5632 30.2112 18.6757 30.2875 18.7757C30.4 18.9132 30.5487 19.0257 30.7125 19.1132C30.9987 19.2632 31.3 19.4007 31.5987 19.5257C32.275 19.7507 32.925 20.0632 33.525 20.4382C33.9375 20.6994 34.275 21.0507 34.5112 21.4757C34.7113 21.8732 34.8113 22.3132 34.7988 22.7619C34.8125 23.3507 34.6375 23.9369 34.3125 24.4257Z" fill="#717B85"/>
<path d="M50.826 27.5511V17.4011H53.01V18.1011C53.2433 17.8397 53.5047 17.6391 53.794 17.4991C54.0927 17.3591 54.4147 17.2891 54.76 17.2891C55.348 17.2891 55.8847 17.4524 56.37 17.7791C56.8553 18.1057 57.2427 18.5491 57.532 19.1091C57.8213 19.6691 57.966 20.3037 57.966 21.0131C57.966 21.7131 57.8213 22.3477 57.532 22.9171C57.2427 23.4771 56.8553 23.9204 56.37 24.2471C55.8847 24.5737 55.348 24.7371 54.76 24.7371C54.4427 24.7371 54.1393 24.6764 53.85 24.5551C53.57 24.4244 53.318 24.2471 53.094 24.0231V27.5511H50.826ZM54.228 22.9451C54.5453 22.9451 54.816 22.8657 55.04 22.7071C55.264 22.5484 55.4367 22.3244 55.558 22.0351C55.6793 21.7364 55.74 21.3957 55.74 21.0131C55.74 20.6211 55.6793 20.2804 55.558 19.9911C55.4367 19.7017 55.264 19.4777 55.04 19.3191C54.816 19.1604 54.5453 19.0811 54.228 19.0811C54.0133 19.0811 53.808 19.1231 53.612 19.2071C53.4253 19.2817 53.2527 19.3891 53.094 19.5291V22.4971C53.2527 22.6371 53.4253 22.7491 53.612 22.8331C53.808 22.9077 54.0133 22.9451 54.228 22.9451ZM59.2205 24.6251V14.6571L61.4885 14.3071V18.3811C62.0485 17.6531 62.7625 17.2891 63.6305 17.2891C64.0972 17.2891 64.5079 17.3964 64.8625 17.6111C65.2265 17.8164 65.5112 18.1057 65.7165 18.4791C65.9219 18.8431 66.0245 19.2677 66.0245 19.7531V24.6251H63.7565V20.4111C63.7565 20.0004 63.6445 19.6737 63.4205 19.4311C63.2059 19.1884 62.9165 19.0671 62.5525 19.0671C62.3472 19.0671 62.1559 19.1044 61.9785 19.1791C61.8012 19.2444 61.6379 19.3517 61.4885 19.5011V24.6251H59.2205ZM71.0031 24.7651C70.2844 24.7651 69.6404 24.6017 69.0711 24.2751C68.5017 23.9391 68.0491 23.4911 67.7131 22.9311C67.3864 22.3617 67.2231 21.7224 67.2231 21.0131C67.2231 20.3131 67.3864 19.6831 67.7131 19.1231C68.0491 18.5631 68.5017 18.1197 69.0711 17.7931C69.6404 17.4571 70.2797 17.2891 70.9891 17.2891C71.7077 17.2891 72.3471 17.4571 72.9071 17.7931C73.4764 18.1197 73.9244 18.5631 74.2511 19.1231C74.5871 19.6831 74.7551 20.3177 74.7551 21.0271C74.7551 21.7271 74.5871 22.3617 74.2511 22.9311C73.9244 23.4911 73.4764 23.9391 72.9071 24.2751C72.3471 24.6017 71.7124 24.7651 71.0031 24.7651ZM70.9891 22.8611C71.2971 22.8611 71.5677 22.7817 71.8011 22.6231C72.0344 22.4644 72.2164 22.2497 72.3471 21.9791C72.4777 21.6991 72.5431 21.3817 72.5431 21.0271C72.5431 20.6724 72.4777 20.3597 72.3471 20.0891C72.2164 19.8091 72.0344 19.5897 71.8011 19.4311C71.5677 19.2724 71.2971 19.1931 70.9891 19.1931C70.6904 19.1931 70.4197 19.2724 70.1771 19.4311C69.9437 19.5897 69.7617 19.8091 69.6311 20.0891C69.5004 20.3597 69.4351 20.6724 69.4351 21.0271C69.4351 21.3817 69.5004 21.6991 69.6311 21.9791C69.7617 22.2497 69.9437 22.4644 70.1771 22.6231C70.4197 22.7817 70.6904 22.8611 70.9891 22.8611ZM80.7556 24.7651C79.7476 24.7651 78.9869 24.5411 78.4736 24.0931C77.9603 23.6357 77.7036 22.9637 77.7036 22.0771V19.1511H75.5896V17.4011H77.7036V15.3991L79.9716 14.9371V17.4011H82.7016V19.1511H79.9716V21.6291C79.9716 22.0864 80.0603 22.4084 80.2376 22.5951C80.4243 22.7724 80.7463 22.8611 81.2036 22.8611C81.4089 22.8611 81.6283 22.8471 81.8616 22.8191C82.0949 22.7911 82.3889 22.7304 82.7436 22.6371V24.4711C82.4636 24.5457 82.1369 24.6111 81.7636 24.6671C81.3996 24.7324 81.0636 24.7651 80.7556 24.7651ZM87.7921 24.7651C87.0735 24.7651 86.4295 24.6017 85.8601 24.2751C85.2908 23.9391 84.8381 23.4911 84.5021 22.9311C84.1755 22.3617 84.0121 21.7224 84.0121 21.0131C84.0121 20.3131 84.1755 19.6831 84.5021 19.1231C84.8381 18.5631 85.2908 18.1197 85.8601 17.7931C86.4295 17.4571 87.0688 17.2891 87.7781 17.2891C88.4968 17.2891 89.1361 17.4571 89.6961 17.7931C90.2655 18.1197 90.7135 18.5631 91.0401 19.1231C91.3761 19.6831 91.5441 20.3177 91.5441 21.0271C91.5441 21.7271 91.3761 22.3617 91.0401 22.9311C90.7135 23.4911 90.2655 23.9391 89.6961 24.2751C89.1361 24.6017 88.5015 24.7651 87.7921 24.7651ZM87.7781 22.8611C88.0861 22.8611 88.3568 22.7817 88.5901 22.6231C88.8235 22.4644 89.0055 22.2497 89.1361 21.9791C89.2668 21.6991 89.3321 21.3817 89.3321 21.0271C89.3321 20.6724 89.2668 20.3597 89.1361 20.0891C89.0055 19.8091 88.8235 19.5897 88.5901 19.4311C88.3568 19.2724 88.0861 19.1931 87.7781 19.1931C87.4795 19.1931 87.2088 19.2724 86.9661 19.4311C86.7328 19.5897 86.5508 19.8091 86.4201 20.0891C86.2895 20.3597 86.2241 20.6724 86.2241 21.0271C86.2241 21.3817 86.2895 21.6991 86.4201 21.9791C86.5508 22.2497 86.7328 22.4644 86.9661 22.6231C87.2088 22.7817 87.4795 22.8611 87.7781 22.8611ZM96.1307 24.7651C95.4307 24.7651 94.7773 24.6764 94.1707 24.4991C93.5733 24.3124 93.06 24.0604 92.6307 23.7431L93.6807 22.2871C94.2127 22.5951 94.6607 22.8097 95.0247 22.9311C95.398 23.0431 95.7713 23.0991 96.1447 23.0991C96.5833 23.0991 96.9147 23.0477 97.1387 22.9451C97.372 22.8424 97.4887 22.6977 97.4887 22.5111C97.4887 22.3617 97.4047 22.2451 97.2367 22.1611C97.078 22.0771 96.8633 22.0117 96.5927 21.9651C96.3313 21.9091 96.042 21.8531 95.7247 21.7971C95.4073 21.7411 95.0853 21.6711 94.7587 21.5871C94.4413 21.4937 94.1473 21.3677 93.8767 21.2091C93.6153 21.0504 93.4007 20.8451 93.2327 20.5931C93.074 20.3317 92.9947 20.0051 92.9947 19.6131C92.9947 19.0997 93.1253 18.6704 93.3867 18.3251C93.648 17.9797 94.0167 17.7184 94.4927 17.5411C94.978 17.3544 95.538 17.2611 96.1727 17.2611C96.7327 17.2611 97.2973 17.3404 97.8667 17.4991C98.436 17.6577 98.9587 17.9004 99.4347 18.2271L98.3427 19.6131C97.9787 19.3704 97.6053 19.1931 97.2227 19.0811C96.8493 18.9691 96.4807 18.9131 96.1167 18.9131C95.7433 18.9131 95.4587 18.9597 95.2627 19.0531C95.076 19.1371 94.9827 19.2584 94.9827 19.4171C94.9827 19.5664 95.062 19.6831 95.2207 19.7671C95.3887 19.8417 95.608 19.9024 95.8787 19.9491C96.1587 19.9957 96.462 20.0471 96.7887 20.1031C97.1153 20.1497 97.4373 20.2197 97.7547 20.3131C98.0813 20.3971 98.38 20.5231 98.6507 20.6911C98.9307 20.8497 99.15 21.0597 99.3087 21.3211C99.4767 21.5824 99.5607 21.9184 99.5607 22.3291C99.5607 22.8237 99.4067 23.2531 99.0987 23.6171C98.8 23.9811 98.3893 24.2657 97.8667 24.4711C97.3533 24.6671 96.7747 24.7651 96.1307 24.7651ZM101.193 24.6251V14.6571L103.461 14.3071V18.3811C104.021 17.6531 104.735 17.2891 105.603 17.2891C106.07 17.2891 106.481 17.3964 106.835 17.6111C107.199 17.8164 107.484 18.1057 107.689 18.4791C107.895 18.8431 107.997 19.2677 107.997 19.7531V24.6251H105.729V20.4111C105.729 20.0004 105.617 19.6737 105.393 19.4311C105.179 19.1884 104.889 19.0671 104.525 19.0671C104.32 19.0671 104.129 19.1044 103.951 19.1791C103.774 19.2444 103.611 19.3517 103.461 19.5011V24.6251H101.193ZM112.976 24.7651C112.257 24.7651 111.613 24.6017 111.044 24.2751C110.474 23.9391 110.022 23.4911 109.686 22.9311C109.359 22.3617 109.196 21.7224 109.196 21.0131C109.196 20.3131 109.359 19.6831 109.686 19.1231C110.022 18.5631 110.474 18.1197 111.044 17.7931C111.613 17.4571 112.252 17.2891 112.962 17.2891C113.68 17.2891 114.32 17.4571 114.88 17.7931C115.449 18.1197 115.897 18.5631 116.224 19.1231C116.56 19.6831 116.728 20.3177 116.728 21.0271C116.728 21.7271 116.56 22.3617 116.224 22.9311C115.897 23.4911 115.449 23.9391 114.88 24.2751C114.32 24.6017 113.685 24.7651 112.976 24.7651ZM112.962 22.8611C113.27 22.8611 113.54 22.7817 113.774 22.6231C114.007 22.4644 114.189 22.2497 114.32 21.9791C114.45 21.6991 114.516 21.3817 114.516 21.0271C114.516 20.6724 114.45 20.3597 114.32 20.0891C114.189 19.8091 114.007 19.5897 113.774 19.4311C113.54 19.2724 113.27 19.1931 112.962 19.1931C112.663 19.1931 112.392 19.2724 112.15 19.4311C111.916 19.5897 111.734 19.8091 111.604 20.0891C111.473 20.3597 111.408 20.6724 111.408 21.0271C111.408 21.3817 111.473 21.6991 111.604 21.9791C111.734 22.2497 111.916 22.4644 112.15 22.6231C112.392 22.7817 112.663 22.8611 112.962 22.8611ZM117.982 27.5511V17.4011H120.166V18.1011C120.4 17.8397 120.661 17.6391 120.95 17.4991C121.249 17.3591 121.571 17.2891 121.916 17.2891C122.504 17.2891 123.041 17.4524 123.526 17.7791C124.012 18.1057 124.399 18.5491 124.688 19.1091C124.978 19.6691 125.122 20.3037 125.122 21.0131C125.122 21.7131 124.978 22.3477 124.688 22.9171C124.399 23.4771 124.012 23.9204 123.526 24.2471C123.041 24.5737 122.504 24.7371 121.916 24.7371C121.599 24.7371 121.296 24.6764 121.006 24.5551C120.726 24.4244 120.474 24.2471 120.25 24.0231V27.5511H117.982ZM121.384 22.9451C121.702 22.9451 121.972 22.8657 122.196 22.7071C122.42 22.5484 122.593 22.3244 122.714 22.0351C122.836 21.7364 122.896 21.3957 122.896 21.0131C122.896 20.6211 122.836 20.2804 122.714 19.9911C122.593 19.7017 122.42 19.4777 122.196 19.3191C121.972 19.1604 121.702 19.0811 121.384 19.0811C121.17 19.0811 120.964 19.1231 120.768 19.2071C120.582 19.2817 120.409 19.3891 120.25 19.5291V22.4971C120.409 22.6371 120.582 22.7491 120.768 22.8331C120.964 22.9077 121.17 22.9451 121.384 22.9451Z" fill="#717B85"/>
<rect x="0.5" y="0.500671" width="135" height="38.2487" rx="2.5" stroke="#717B85"/>
</svg>
