<svg width="96" height="40" viewBox="0 0 96 40" fill="none" xmlns="http://www.w3.org/2000/svg">
<rect x="0.5" y="0.500671" width="95" height="39" rx="2.5" fill="#F8F8F8"/>
<path d="M18.7625 17.7594H17.5825L16.9388 21.0694H17.9862C18.6812 21.0694 19.1988 20.9382 19.5387 20.6769C19.8787 20.4144 20.1075 19.9782 20.2262 19.3657C20.3412 18.7782 20.2888 18.3632 20.0712 18.1219C19.8525 17.8807 19.4175 17.7594 18.7625 17.7594ZM25 12.1107C16.7163 12.1107 10 15.6432 10 20.0007C10 24.3582 16.7163 27.8919 25 27.8919C33.2838 27.8919 40 24.3582 40 20.0007C40 15.6432 33.2838 12.1107 25 12.1107ZM20.925 21.4244C20.5988 21.7369 20.2063 21.9719 19.7787 22.1132C19.3588 22.2482 18.8225 22.3182 18.1725 22.3182H16.6962L16.2875 24.4194H14.565L16.1025 16.5119H19.415C20.4113 16.5119 21.1375 16.7732 21.595 17.2969C22.0525 17.8194 22.19 18.5494 22.0075 19.4869C21.9376 19.8579 21.8089 20.2153 21.6262 20.5457C21.4475 20.8644 21.2137 21.1582 20.925 21.4244ZM25.955 22.3182L26.6338 18.8194C26.7125 18.4219 26.6825 18.1494 26.5487 18.0057C26.415 17.8607 26.1287 17.7882 25.69 17.7882H24.325L23.445 22.3194H21.735L23.2725 14.4107H24.9812L24.5725 16.5132H26.095C27.0538 16.5132 27.7137 16.6807 28.0775 17.0144C28.4412 17.3482 28.55 17.8894 28.4062 18.6382L27.6912 22.3182H25.955ZM35.4513 19.4869C35.3825 19.8582 35.2537 20.2158 35.07 20.5457C34.8913 20.8644 34.6575 21.1582 34.3688 21.4244C34.0423 21.736 33.6508 21.9712 33.2225 22.1132C32.8025 22.2482 32.2663 22.3182 31.615 22.3182H30.14L29.7313 24.4207H28.0087L29.5462 16.5132H32.8575C33.8537 16.5132 34.58 16.7744 35.0375 17.2982C35.495 17.8194 35.6338 18.5494 35.4513 19.4869ZM32.2075 17.7594H31.0287L30.3837 21.0694H31.4313C32.1275 21.0694 32.645 20.9382 32.9837 20.6769C33.3237 20.4144 33.5525 19.9782 33.6725 19.3657C33.7875 18.7782 33.7337 18.3632 33.5163 18.1219C33.2987 17.8807 32.8613 17.7594 32.2075 17.7594Z" fill="#717B85"/>
<path d="M50.826 27.9267V17.7767H53.01V18.4767C53.2433 18.2153 53.5047 18.0147 53.794 17.8747C54.0927 17.7347 54.4147 17.6647 54.76 17.6647C55.348 17.6647 55.8847 17.828 56.37 18.1547C56.8553 18.4813 57.2427 18.9247 57.532 19.4847C57.8213 20.0447 57.966 20.6793 57.966 21.3887C57.966 22.0887 57.8213 22.7233 57.532 23.2927C57.2427 23.8527 56.8553 24.296 56.37 24.6227C55.8847 24.9493 55.348 25.1127 54.76 25.1127C54.4427 25.1127 54.1393 25.052 53.85 24.9307C53.57 24.8 53.318 24.6227 53.094 24.3987V27.9267H50.826ZM54.228 23.3207C54.5453 23.3207 54.816 23.2413 55.04 23.0827C55.264 22.924 55.4367 22.7 55.558 22.4107C55.6793 22.112 55.74 21.7713 55.74 21.3887C55.74 20.9967 55.6793 20.656 55.558 20.3667C55.4367 20.0773 55.264 19.8533 55.04 19.6947C54.816 19.536 54.5453 19.4567 54.228 19.4567C54.0133 19.4567 53.808 19.4987 53.612 19.5827C53.4253 19.6573 53.2527 19.7647 53.094 19.9047V22.8727C53.2527 23.0127 53.4253 23.1247 53.612 23.2087C53.808 23.2833 54.0133 23.3207 54.228 23.3207ZM59.2205 25.0007V15.0327L61.4885 14.6827V18.7567C62.0485 18.0287 62.7625 17.6647 63.6305 17.6647C64.0972 17.6647 64.5079 17.772 64.8625 17.9867C65.2265 18.192 65.5112 18.4813 65.7165 18.8547C65.9219 19.2187 66.0245 19.6433 66.0245 20.1287V25.0007H63.7565V20.7867C63.7565 20.376 63.6445 20.0493 63.4205 19.8067C63.2059 19.564 62.9165 19.4427 62.5525 19.4427C62.3472 19.4427 62.1559 19.48 61.9785 19.5547C61.8012 19.62 61.6379 19.7273 61.4885 19.8767V25.0007H59.2205ZM67.6151 27.9267V17.7767H69.7991V18.4767C70.0324 18.2153 70.2937 18.0147 70.5831 17.8747C70.8817 17.7347 71.2037 17.6647 71.5491 17.6647C72.1371 17.6647 72.6737 17.828 73.1591 18.1547C73.6444 18.4813 74.0317 18.9247 74.3211 19.4847C74.6104 20.0447 74.7551 20.6793 74.7551 21.3887C74.7551 22.0887 74.6104 22.7233 74.3211 23.2927C74.0317 23.8527 73.6444 24.296 73.1591 24.6227C72.6737 24.9493 72.1371 25.1127 71.5491 25.1127C71.2317 25.1127 70.9284 25.052 70.6391 24.9307C70.3591 24.8 70.1071 24.6227 69.8831 24.3987V27.9267H67.6151ZM71.0171 23.3207C71.3344 23.3207 71.6051 23.2413 71.8291 23.0827C72.0531 22.924 72.2257 22.7 72.3471 22.4107C72.4684 22.112 72.5291 21.7713 72.5291 21.3887C72.5291 20.9967 72.4684 20.656 72.3471 20.3667C72.2257 20.0773 72.0531 19.8533 71.8291 19.6947C71.6051 19.536 71.3344 19.4567 71.0171 19.4567C70.8024 19.4567 70.5971 19.4987 70.4011 19.5827C70.2144 19.6573 70.0417 19.7647 69.8831 19.9047V22.8727C70.0417 23.0127 70.2144 23.1247 70.4011 23.2087C70.5971 23.2833 70.8024 23.3207 71.0171 23.3207Z" fill="#717B85"/>
<rect x="0.5" y="0.500671" width="95" height="39" rx="2.5" stroke="#717B85"/>
</svg>
