<svg width="119" height="40" viewBox="0 0 119 40" fill="none" xmlns="http://www.w3.org/2000/svg">
<rect x="0.5" y="0.500671" width="117.999" height="38.9995" rx="2.5" fill="#F8F8F8"/>
<path d="M26.9085 5.12419C18.6935 4.07044 11.1773 9.87543 10.1235 18.0917C9.06979 26.3067 14.8735 33.8217 23.0898 34.8767C31.306 35.9304 38.8235 30.1254 39.8748 21.9092C40.9298 13.6942 35.126 6.17919 26.9085 5.12419ZM29.9973 14.4804C29.7189 14.4841 29.453 14.5962 29.256 14.7929L23.6898 20.3592L22.5023 19.1717C27.9885 13.7017 28.9773 13.6492 29.9973 14.4804ZM23.9185 20.5567L29.4685 15.0067C29.5413 14.9304 29.6288 14.8697 29.7258 14.8284C29.8228 14.7871 29.9272 14.7661 30.0326 14.7665C30.138 14.7669 30.2422 14.7889 30.3389 14.831C30.4355 14.873 30.5226 14.9344 30.5947 15.0113C30.6668 15.0882 30.7225 15.179 30.7583 15.2781C30.7941 15.3772 30.8094 15.4827 30.803 15.5879C30.7967 15.6931 30.769 15.7959 30.7216 15.8901C30.6742 15.9842 30.6081 16.0677 30.5273 16.1354L24.6535 21.2917L23.9185 20.5567ZM24.331 21.4242L22.956 21.7217C22.9396 21.7254 22.9224 21.7235 22.9072 21.7162C22.892 21.7089 22.8797 21.6968 22.8723 21.6817C22.8639 21.6672 22.8606 21.6504 22.8629 21.6339C22.8651 21.6174 22.8729 21.6021 22.8848 21.5904L23.691 20.7842L24.331 21.4242ZM20.8273 20.8504L22.2923 19.3854L23.391 20.4829L20.9173 21.0154C20.8967 21.0208 20.8748 21.0189 20.8555 21.01C20.8361 21.0011 20.8204 20.9858 20.811 20.9667C20.7994 20.9486 20.7946 20.9269 20.7976 20.9055C20.8006 20.8842 20.8111 20.8647 20.8273 20.8504ZM16.2698 28.4229C16.2573 28.4218 16.2451 28.4183 16.234 28.4125C16.2229 28.4066 16.2131 28.3987 16.205 28.389C16.197 28.3794 16.191 28.3682 16.1873 28.3563C16.1836 28.3443 16.1823 28.3317 16.1835 28.3192C16.1859 28.2975 16.1956 28.2772 16.211 28.2617H16.2135L17.396 27.0792L18.9235 28.6067L16.2698 28.4229ZM19.301 26.8529C19.2444 26.8822 19.1992 26.9297 19.1726 26.9877C19.1461 27.0457 19.1398 27.1109 19.1548 27.1729L19.4085 28.2542C19.4167 28.2875 19.4137 28.3226 19.4 28.354C19.3863 28.3855 19.3626 28.4115 19.3326 28.4282C19.3026 28.4448 19.2679 28.4511 19.234 28.4461C19.2001 28.4411 19.1687 28.425 19.1448 28.4004H19.141L17.9735 27.2329L17.606 26.8642L22.3085 22.1667L24.5835 21.6754L25.676 22.7679C24.1073 24.1454 21.9623 25.5192 19.301 26.8529ZM25.8998 22.5679H25.8973L24.8485 21.5192L30.7223 16.3629C30.7766 16.3147 30.8264 16.2615 30.871 16.2042C30.686 17.8854 28.3348 20.2604 25.8998 22.5679ZM30.471 14.4929L30.4673 14.4904C30.054 14.0752 29.8166 13.5166 29.8045 12.9309C29.7924 12.3452 30.0065 11.7773 30.4023 11.3453C30.798 10.9133 31.345 10.6505 31.9296 10.6114C32.5142 10.5723 33.0913 10.76 33.541 11.1354L31.5285 13.1517C31.5146 13.1655 31.5035 13.182 31.496 13.2001C31.4884 13.2182 31.4845 13.2377 31.4845 13.2573C31.4845 13.277 31.4884 13.2964 31.496 13.3145C31.5035 13.3327 31.5146 13.3491 31.5285 13.3629L33.0873 14.9217C32.6612 15.1332 32.1795 15.2056 31.7101 15.1286C31.2407 15.0517 30.8073 14.8294 30.471 14.4929ZM33.6935 14.4929C33.5902 14.595 33.4767 14.6863 33.3548 14.7654H33.3535L31.8448 13.2567L33.761 11.3404C34.5873 12.2404 34.5573 13.6304 33.6935 14.4929ZM33.5685 12.5629C33.5385 12.5847 33.516 12.6153 33.5041 12.6505C33.4922 12.6857 33.4916 12.7236 33.5023 12.7592C33.5468 12.8493 33.5642 12.9504 33.5525 13.0502C33.5407 13.1501 33.5003 13.2444 33.436 13.3217C33.4217 13.3397 33.4111 13.3604 33.4048 13.3826C33.3985 13.4047 33.3966 13.4279 33.3993 13.4508C33.402 13.4737 33.4091 13.4958 33.4204 13.5159C33.4316 13.536 33.4467 13.5537 33.4648 13.5679C33.4948 13.5915 33.5317 13.6046 33.5698 13.6054C33.5951 13.6052 33.62 13.5995 33.6429 13.5887C33.6658 13.5779 33.686 13.5623 33.7023 13.5429C33.8097 13.4139 33.8771 13.2565 33.8964 13.0898C33.9157 12.923 33.8861 12.7543 33.811 12.6042C33.798 12.5854 33.7813 12.5694 33.7619 12.5571C33.7426 12.5449 33.721 12.5366 33.6984 12.5327C33.6759 12.5289 33.6528 12.5296 33.6305 12.5348C33.6082 12.54 33.5871 12.5495 33.5685 12.5629Z" fill="#717B85"/>
<path d="M50.8246 27.9264V17.7764H53.0086V18.4764C53.2419 18.2151 53.5033 18.0144 53.7926 17.8744C54.0913 17.7344 54.4133 17.6644 54.7586 17.6644C55.3466 17.6644 55.8833 17.8278 56.3686 18.1544C56.8539 18.4811 57.2413 18.9244 57.5306 19.4844C57.8199 20.0444 57.9646 20.6791 57.9646 21.3884C57.9646 22.0884 57.8199 22.7231 57.5306 23.2924C57.2413 23.8524 56.8539 24.2958 56.3686 24.6224C55.8833 24.9491 55.3466 25.1124 54.7586 25.1124C54.4413 25.1124 54.1379 25.0518 53.8486 24.9304C53.5686 24.7998 53.3166 24.6224 53.0926 24.3984V27.9264H50.8246ZM54.2266 23.3204C54.5439 23.3204 54.8146 23.2411 55.0386 23.0824C55.2626 22.9238 55.4353 22.6998 55.5566 22.4104C55.6779 22.1118 55.7386 21.7711 55.7386 21.3884C55.7386 20.9964 55.6779 20.6558 55.5566 20.3664C55.4353 20.0771 55.2626 19.8531 55.0386 19.6944C54.8146 19.5358 54.5439 19.4564 54.2266 19.4564C54.0119 19.4564 53.8066 19.4984 53.6106 19.5824C53.4239 19.6571 53.2513 19.7644 53.0926 19.9044V22.8724C53.2513 23.0124 53.4239 23.1244 53.6106 23.2084C53.8066 23.2831 54.0119 23.3204 54.2266 23.3204ZM62.6071 25.1404C61.8885 25.1404 61.2445 24.9771 60.6751 24.6504C60.1058 24.3144 59.6531 23.8664 59.3171 23.3064C58.9905 22.7371 58.8271 22.0978 58.8271 21.3884C58.8271 20.6884 58.9905 20.0584 59.3171 19.4984C59.6531 18.9384 60.1058 18.4951 60.6751 18.1684C61.2445 17.8324 61.8838 17.6644 62.5931 17.6644C63.3118 17.6644 63.9511 17.8324 64.5111 18.1684C65.0805 18.4951 65.5285 18.9384 65.8551 19.4984C66.1911 20.0584 66.3591 20.6931 66.3591 21.4024C66.3591 22.1024 66.1911 22.7371 65.8551 23.3064C65.5285 23.8664 65.0805 24.3144 64.5111 24.6504C63.9511 24.9771 63.3165 25.1404 62.6071 25.1404ZM62.5931 23.2364C62.9011 23.2364 63.1718 23.1571 63.4051 22.9984C63.6385 22.8398 63.8205 22.6251 63.9511 22.3544C64.0818 22.0744 64.1471 21.7571 64.1471 21.4024C64.1471 21.0478 64.0818 20.7351 63.9511 20.4644C63.8205 20.1844 63.6385 19.9651 63.4051 19.8064C63.1718 19.6478 62.9011 19.5684 62.5931 19.5684C62.2945 19.5684 62.0238 19.6478 61.7811 19.8064C61.5478 19.9651 61.3658 20.1844 61.2351 20.4644C61.1045 20.7351 61.0391 21.0478 61.0391 21.4024C61.0391 21.7571 61.1045 22.0744 61.2351 22.3544C61.3658 22.6251 61.5478 22.8398 61.7811 22.9984C62.0238 23.1571 62.2945 23.2364 62.5931 23.2364ZM70.9457 25.1404C70.2457 25.1404 69.5923 25.0518 68.9857 24.8744C68.3883 24.6878 67.875 24.4358 67.4457 24.1184L68.4957 22.6624C69.0277 22.9704 69.4757 23.1851 69.8397 23.3064C70.213 23.4184 70.5863 23.4744 70.9597 23.4744C71.3983 23.4744 71.7297 23.4231 71.9537 23.3204C72.187 23.2178 72.3037 23.0731 72.3037 22.8864C72.3037 22.7371 72.2197 22.6204 72.0517 22.5364C71.893 22.4524 71.6783 22.3871 71.4077 22.3404C71.1463 22.2844 70.857 22.2284 70.5397 22.1724C70.2223 22.1164 69.9003 22.0464 69.5737 21.9624C69.2563 21.8691 68.9623 21.7431 68.6917 21.5844C68.4303 21.4258 68.2157 21.2204 68.0477 20.9684C67.889 20.7071 67.8097 20.3804 67.8097 19.9884C67.8097 19.4751 67.9403 19.0458 68.2017 18.7004C68.463 18.3551 68.8317 18.0938 69.3077 17.9164C69.793 17.7298 70.353 17.6364 70.9877 17.6364C71.5477 17.6364 72.1123 17.7158 72.6817 17.8744C73.251 18.0331 73.7737 18.2758 74.2497 18.6024L73.1577 19.9884C72.7937 19.7458 72.4203 19.5684 72.0377 19.4564C71.6643 19.3444 71.2957 19.2884 70.9317 19.2884C70.5583 19.2884 70.2737 19.3351 70.0777 19.4284C69.891 19.5124 69.7977 19.6338 69.7977 19.7924C69.7977 19.9418 69.877 20.0584 70.0357 20.1424C70.2037 20.2171 70.423 20.2778 70.6937 20.3244C70.9737 20.3711 71.277 20.4224 71.6037 20.4784C71.9303 20.5251 72.2523 20.5951 72.5697 20.6884C72.8963 20.7724 73.195 20.8984 73.4657 21.0664C73.7457 21.2251 73.965 21.4351 74.1237 21.6964C74.2917 21.9578 74.3757 22.2938 74.3757 22.7044C74.3757 23.1991 74.2217 23.6284 73.9137 23.9924C73.615 24.3564 73.2043 24.6411 72.6817 24.8464C72.1683 25.0424 71.5897 25.1404 70.9457 25.1404ZM80.7542 25.1404C79.7462 25.1404 78.9855 24.9164 78.4722 24.4684C77.9589 24.0111 77.7022 23.3391 77.7022 22.4524V19.5264H75.5882V17.7764H77.7022V15.7744L79.9702 15.3124V17.7764H82.7002V19.5264H79.9702V22.0044C79.9702 22.4618 80.0589 22.7838 80.2362 22.9704C80.4229 23.1478 80.7449 23.2364 81.2022 23.2364C81.4075 23.2364 81.6269 23.2224 81.8602 23.1944C82.0935 23.1664 82.3875 23.1058 82.7422 23.0124V24.8464C82.4622 24.9211 82.1355 24.9864 81.7622 25.0424C81.3982 25.1078 81.0622 25.1404 80.7542 25.1404ZM84.0247 25.0004V17.7764H85.8727V18.3784C86.0407 18.1451 86.2227 17.9678 86.4187 17.8464C86.6241 17.7251 86.8481 17.6644 87.0907 17.6644C87.3894 17.6644 87.6554 17.7391 87.8887 17.8884C88.1314 18.0378 88.3181 18.2478 88.4487 18.5184C88.6354 18.2384 88.8501 18.0284 89.0927 17.8884C89.3447 17.7391 89.6247 17.6644 89.9327 17.6644C90.3994 17.6644 90.7821 17.8371 91.0807 18.1824C91.3794 18.5184 91.5287 18.9571 91.5287 19.4984V25.0004H89.6807V20.1004C89.6807 19.8578 89.6294 19.6664 89.5267 19.5264C89.4241 19.3771 89.2794 19.3024 89.0927 19.3024C89.0181 19.3024 88.9481 19.3164 88.8827 19.3444C88.8174 19.3631 88.7567 19.3958 88.7007 19.4424C88.7007 19.4704 88.7007 19.5031 88.7007 19.5404C88.7007 19.5684 88.7007 19.6011 88.7007 19.6384V25.0004H86.8527V20.1004C86.8527 19.8578 86.8014 19.6664 86.6987 19.5264C86.5961 19.3771 86.4514 19.3024 86.2647 19.3024C86.1994 19.3024 86.1341 19.3118 86.0687 19.3304C86.0034 19.3491 85.9381 19.3818 85.8727 19.4284V25.0004H84.0247ZM95.1213 25.1124C94.6359 25.1124 94.2019 25.0191 93.8193 24.8324C93.4459 24.6458 93.1519 24.3891 92.9373 24.0624C92.7319 23.7358 92.6293 23.3578 92.6293 22.9284C92.6293 22.4804 92.7413 22.1024 92.9653 21.7944C93.1893 21.4771 93.5113 21.2391 93.9313 21.0804C94.3513 20.9124 94.8553 20.8284 95.4433 20.8284C95.7046 20.8284 95.9706 20.8564 96.2413 20.9124C96.5119 20.9684 96.8059 21.0618 97.1233 21.1924V20.5764C97.1233 20.2218 97.0066 19.9604 96.7733 19.7924C96.5399 19.6151 96.1806 19.5264 95.6953 19.5264C95.4246 19.5264 95.1213 19.5731 94.7853 19.6664C94.4586 19.7504 94.0853 19.8811 93.6653 20.0584L92.8533 18.4484C93.4599 18.1778 94.0339 17.9818 94.5753 17.8604C95.1259 17.7298 95.6673 17.6644 96.1993 17.6644C97.1979 17.6644 97.9726 17.9024 98.5233 18.3784C99.0833 18.8544 99.3633 19.5218 99.3633 20.3804V25.0004H97.1233V24.3144C96.8059 24.5944 96.4886 24.7998 96.1713 24.9304C95.8539 25.0518 95.5039 25.1124 95.1213 25.1124ZM94.7153 22.8864C94.7153 23.1198 94.8133 23.3018 95.0093 23.4324C95.2053 23.5538 95.4759 23.6144 95.8213 23.6144C96.0639 23.6144 96.2926 23.5818 96.5073 23.5164C96.7313 23.4418 96.9366 23.3391 97.1233 23.2084V22.3544C96.9179 22.2984 96.7079 22.2564 96.4933 22.2284C96.2879 22.1911 96.0826 22.1724 95.8773 22.1724C95.5133 22.1724 95.2286 22.2331 95.0233 22.3544C94.8179 22.4758 94.7153 22.6531 94.7153 22.8864ZM101.192 25.0004V17.7764H103.46V18.7564C104.02 18.0284 104.734 17.6644 105.602 17.6644C106.068 17.6644 106.479 17.7718 106.834 17.9864C107.198 18.1918 107.482 18.4811 107.688 18.8544C107.893 19.2184 107.996 19.6431 107.996 20.1284V25.0004H105.728V20.7864C105.728 20.3758 105.616 20.0491 105.392 19.8064C105.177 19.5638 104.888 19.4424 104.524 19.4424C104.318 19.4424 104.127 19.4798 103.95 19.5544C103.772 19.6198 103.609 19.7271 103.46 19.8764V25.0004H101.192Z" fill="#717B85"/>
<rect x="0.5" y="0.500671" width="117.999" height="38.9995" rx="2.5" stroke="#717B85"/>
</svg>
