<svg width="111" height="40" viewBox="0 0 111 40" fill="none" xmlns="http://www.w3.org/2000/svg">
<rect x="0.847443" y="0.500671" width="109.653" height="39" rx="2.5" fill="#F8F8F8"/>
<path d="M28.2349 5.22567L29.3599 5.47567L30.2724 5.80067L31.0099 6.17567L31.5724 6.57567L31.9974 7.00067L32.3099 7.42567L32.5099 7.83817L32.6349 8.21317L32.6849 8.53817L32.7099 8.78817L32.6974 8.95067V15.6257L32.6349 16.4132L32.4724 17.1007L32.2099 17.6757L31.8849 18.1507L31.5099 18.5382L31.0974 18.8507L30.6599 19.0882L30.2224 19.2632L29.8099 19.3882L29.4349 19.4757L29.1099 19.5257L28.8474 19.5507H21.3849L20.5224 19.6132L19.7849 19.7882L19.1599 20.0632L18.6474 20.4007L18.2349 20.8007L17.8974 21.2382L17.6474 21.6882L17.4599 22.1507L17.3349 22.5882L17.2474 22.9882L17.1974 23.3257L17.1724 23.5882V27.4132H14.3849L14.1224 27.3757L13.7724 27.2882L13.3724 27.1382L12.9349 26.9132L12.4849 26.5882L12.0349 26.1382L11.5974 25.5632L11.1974 24.8257L10.8474 23.9132L10.5849 22.8132L10.4099 21.5007L10.3474 19.9632L10.4224 18.4382L10.6224 17.1382L10.9224 16.0507L11.3224 15.1632L11.7724 14.4507L12.2724 13.9007L12.7974 13.4882L13.3224 13.1882L13.8224 12.9882L14.2724 12.8632L14.6724 12.8007L14.9724 12.7882H15.1724L15.2474 12.8007H25.4474V11.7632H18.1474L18.1349 8.32567L18.1099 7.86317L18.1724 7.43817L18.3099 7.05067L18.5224 6.70067L18.8349 6.37567L19.2224 6.08817L19.6974 5.83817L20.2474 5.61317L20.8849 5.42567L21.6099 5.27567L22.4099 5.15067L23.2974 5.07567L24.2599 5.02567L25.3099 5.00067L26.8974 5.06317L28.2349 5.22567ZM20.3599 7.70067L20.0724 8.11317L19.9724 8.62567L20.0724 9.13817L20.3599 9.56317L20.7724 9.83817L21.2849 9.95067L21.7974 9.83817L22.2099 9.56317L22.4974 9.13817L22.5974 8.62567L22.4974 8.11317L22.2099 7.70067L21.7974 7.42567L21.2849 7.31317L20.7724 7.42567L20.3599 7.70067ZM36.7224 12.6382L37.0724 12.7132L37.4724 12.8632L37.9099 13.0882L38.3599 13.4257L38.8099 13.8632L39.2474 14.4507L39.6474 15.1882L39.9974 16.1007L40.2599 17.2007L40.4349 18.5007L40.4974 20.0382L40.4224 21.5757L40.2224 22.8757L39.9224 23.9507L39.5224 24.8382L39.0724 25.5507L38.5724 26.1132L38.0474 26.5257L37.5224 26.8257L37.0224 27.0257L36.5724 27.1382L36.1724 27.2007L35.8724 27.2257L35.6724 27.2132H25.3974V28.2382H32.6974L32.7099 31.6882L32.7349 32.1382L32.6724 32.5632L32.5349 32.9507L32.3224 33.3132L32.0099 33.6257L31.6224 33.9257L31.1474 34.1757L30.5974 34.3882L29.9599 34.5757L29.2349 34.7382L28.4349 34.8507L27.5474 34.9382L26.5849 34.9882L25.5349 35.0007L23.9474 34.9507L22.6099 34.7757L21.4849 34.5257L20.5724 34.2132L19.8349 33.8382L19.2724 33.4257L18.8474 33.0007L18.5349 32.5757L18.3349 32.1632L18.2099 31.7882L18.1599 31.4757L18.1349 31.2257L18.1474 31.0632V24.3882L18.2099 23.5882L18.3724 22.9132L18.6349 22.3382L18.9599 21.8632L19.3349 21.4632L19.7474 21.1632L20.1849 20.9132L20.6224 20.7382L21.0349 20.6132L21.4099 20.5382L21.7349 20.4882L21.9974 20.4632L22.1599 20.4507H29.4599L30.3224 20.3882L31.0599 20.2132L31.6849 19.9507L32.1974 19.6007L32.6099 19.2007L32.9474 18.7632L33.1974 18.3132L33.3849 17.8632L33.5099 17.4257L33.5974 17.0257L33.6474 16.6757L33.6724 16.4132V12.5882H36.2849L36.4599 12.6007L36.7224 12.6382ZM28.6349 30.4507L28.3474 30.8632L28.2474 31.3757L28.3474 31.8882L28.6349 32.3007L29.0474 32.5882L29.5599 32.6882L30.0724 32.5882L30.4849 32.3007L30.7724 31.8882L30.8724 31.3757L30.7724 30.8632L30.4849 30.4507L30.0724 30.1632L29.5599 30.0632L29.0474 30.1632L28.6349 30.4507Z" fill="#717B85"/>
<path d="M50.826 27.926V17.776H53.01V18.476C53.2433 18.2147 53.5047 18.014 53.794 17.874C54.0927 17.734 54.4147 17.664 54.76 17.664C55.348 17.664 55.8847 17.8273 56.37 18.154C56.8553 18.4807 57.2427 18.924 57.532 19.484C57.8213 20.044 57.966 20.6787 57.966 21.388C57.966 22.088 57.8213 22.7227 57.532 23.292C57.2427 23.852 56.8553 24.2953 56.37 24.622C55.8847 24.9487 55.348 25.112 54.76 25.112C54.4427 25.112 54.1393 25.0513 53.85 24.93C53.57 24.7993 53.318 24.622 53.094 24.398V27.926H50.826ZM54.228 23.32C54.5453 23.32 54.816 23.2407 55.04 23.082C55.264 22.9233 55.4367 22.6993 55.558 22.41C55.6793 22.1113 55.74 21.7707 55.74 21.388C55.74 20.996 55.6793 20.6553 55.558 20.366C55.4367 20.0767 55.264 19.8527 55.04 19.694C54.816 19.5353 54.5453 19.456 54.228 19.456C54.0133 19.456 53.808 19.498 53.612 19.582C53.4253 19.6567 53.2527 19.764 53.094 19.904V22.872C53.2527 23.012 53.4253 23.124 53.612 23.208C53.808 23.2827 54.0133 23.32 54.228 23.32ZM60.2145 28.066C60.0185 28.066 59.7992 28.052 59.5565 28.024C59.3139 27.996 59.0805 27.9587 58.8565 27.912V26.008C59.0712 26.0453 59.2439 26.0687 59.3745 26.078C59.5145 26.0967 59.7059 26.106 59.9485 26.106C60.2659 26.106 60.5225 26.05 60.7185 25.938C60.9145 25.8353 61.0592 25.672 61.1525 25.448L61.2505 25.196L58.5625 17.776H61.0405L62.5385 22.522L64.2045 17.776H66.6265L63.3785 25.812C63.1545 26.3627 62.9025 26.8013 62.6225 27.128C62.3519 27.464 62.0205 27.702 61.6285 27.842C61.2459 27.9913 60.7745 28.066 60.2145 28.066ZM72.3611 25.14C71.3531 25.14 70.5924 24.916 70.0791 24.468C69.5657 24.0107 69.3091 23.3387 69.3091 22.452V19.526H67.1951V17.776H69.3091V15.774L71.5771 15.312V17.776H74.3071V19.526H71.5771V22.004C71.5771 22.4613 71.6657 22.7833 71.8431 22.97C72.0297 23.1473 72.3517 23.236 72.8091 23.236C73.0144 23.236 73.2337 23.222 73.4671 23.194C73.7004 23.166 73.9944 23.1053 74.3491 23.012V24.846C74.0691 24.9207 73.7424 24.986 73.3691 25.042C73.0051 25.1073 72.6691 25.14 72.3611 25.14ZM76.0096 25V15.032L78.2776 14.682V18.756C78.8376 18.028 79.5516 17.664 80.4196 17.664C80.8863 17.664 81.2969 17.7713 81.6516 17.986C82.0156 18.1913 82.3003 18.4807 82.5056 18.854C82.7109 19.218 82.8136 19.6427 82.8136 20.128V25H80.5456V20.786C80.5456 20.3753 80.4336 20.0487 80.2096 19.806C79.9949 19.5633 79.7056 19.442 79.3416 19.442C79.1363 19.442 78.9449 19.4793 78.7676 19.554C78.5903 19.6193 78.4269 19.7267 78.2776 19.876V25H76.0096ZM87.7921 25.14C87.0735 25.14 86.4295 24.9767 85.8601 24.65C85.2908 24.314 84.8381 23.866 84.5021 23.306C84.1755 22.7367 84.0121 22.0973 84.0121 21.388C84.0121 20.688 84.1755 20.058 84.5021 19.498C84.8381 18.938 85.2908 18.4947 85.8601 18.168C86.4295 17.832 87.0688 17.664 87.7781 17.664C88.4968 17.664 89.1361 17.832 89.6961 18.168C90.2655 18.4947 90.7135 18.938 91.0401 19.498C91.3761 20.058 91.5441 20.6927 91.5441 21.402C91.5441 22.102 91.3761 22.7367 91.0401 23.306C90.7135 23.866 90.2655 24.314 89.6961 24.65C89.1361 24.9767 88.5015 25.14 87.7921 25.14ZM87.7781 23.236C88.0861 23.236 88.3568 23.1567 88.5901 22.998C88.8235 22.8393 89.0055 22.6247 89.1361 22.354C89.2668 22.074 89.3321 21.7567 89.3321 21.402C89.3321 21.0473 89.2668 20.7347 89.1361 20.464C89.0055 20.184 88.8235 19.9647 88.5901 19.806C88.3568 19.6473 88.0861 19.568 87.7781 19.568C87.4795 19.568 87.2088 19.6473 86.9661 19.806C86.7328 19.9647 86.5508 20.184 86.4201 20.464C86.2895 20.7347 86.2241 21.0473 86.2241 21.402C86.2241 21.7567 86.2895 22.074 86.4201 22.354C86.5508 22.6247 86.7328 22.8393 86.9661 22.998C87.2088 23.1567 87.4795 23.236 87.7781 23.236ZM92.7987 25V17.776H95.0667V18.756C95.6267 18.028 96.3407 17.664 97.2087 17.664C97.6753 17.664 98.086 17.7713 98.4407 17.986C98.8047 18.1913 99.0893 18.4807 99.2947 18.854C99.5 19.218 99.6027 19.6427 99.6027 20.128V25H97.3347V20.786C97.3347 20.3753 97.2227 20.0487 96.9987 19.806C96.784 19.5633 96.4947 19.442 96.1307 19.442C95.9253 19.442 95.734 19.4793 95.5567 19.554C95.3793 19.6193 95.216 19.7267 95.0667 19.876V25H92.7987Z" fill="#717B85"/>
<rect x="0.847443" y="0.500671" width="109.653" height="39" rx="2.5" stroke="#717B85"/>
</svg>
