<svg width="106" height="40" viewBox="0 0 106 40" fill="none" xmlns="http://www.w3.org/2000/svg">
<rect x="0.75" y="0.5" width="104" height="39" rx="2.5" fill="#F8F8F8"/>
<path d="M25.25 5C33.5337 5 40.25 11.7163 40.25 20C40.25 28.2837 33.5337 35 25.25 35C16.9663 35 10.25 28.2837 10.25 20C10.25 11.7163 16.9663 5 25.25 5ZM22.2687 24.9975C22.4875 25.8037 22.4637 26.5575 22.2387 27.2375L22.1575 27.4625C22.1275 27.5387 22.0925 27.6125 22.06 27.6825C21.885 28.045 21.6525 28.3825 21.3662 28.695C20.4937 29.6437 19.2762 30.0037 18.7537 29.7013C18.1912 29.3738 18.4713 28.0325 19.4838 26.9637C20.5725 25.8162 22.1337 25.0775 22.1337 25.0775V25.0737L22.2687 24.9975ZM34.6575 11.4213C33.98 8.755 29.5613 7.87875 25.38 9.365C22.8938 10.2488 20.2 11.6375 18.2638 13.4487C15.96 15.6 15.5938 17.475 15.745 18.2588C16.2787 21.0225 20.0662 22.83 21.6237 24.1712V24.1788C21.165 24.4038 17.8038 26.09 17.0163 27.835C16.1725 29.6725 17.1475 30.9863 17.785 31.1538C19.7537 31.6988 21.7788 30.7038 22.8663 29.0925C23.9163 27.5163 23.8238 25.4912 23.3713 24.4975C23.9913 24.3287 24.7212 24.2537 25.6587 24.3675C28.285 24.6675 28.81 26.3175 28.6963 26.9925C28.5838 27.6663 28.0425 28.06 27.8538 28.1725C27.6663 28.2863 27.61 28.3225 27.6275 28.3988C27.6462 28.5112 27.7413 28.5112 27.89 28.4925C28.0963 28.455 29.26 27.93 29.3162 26.6537C29.3725 25.0413 27.8337 23.2425 25.0975 23.2787C23.9725 23.2987 23.2587 23.3925 22.7537 23.5987C22.7162 23.5425 22.6775 23.505 22.6225 23.4675C20.935 21.6488 17.8037 20.3737 17.935 17.955C17.9725 17.0737 18.2913 14.75 23.935 11.9375C28.5662 9.63 32.2612 10.2688 32.8988 11.675C33.815 13.68 30.9287 17.4125 26.11 17.955C24.2725 18.1613 23.3162 17.45 23.0712 17.1862C22.81 16.905 22.7725 16.8863 22.6788 16.9438C22.5288 17.0188 22.6225 17.2625 22.6788 17.4125C22.8287 17.7875 23.41 18.4438 24.4237 18.7812C25.3038 19.0625 27.4613 19.23 30.0487 18.2188C32.9538 17.095 35.2225 13.9625 34.5662 11.3375L34.6575 11.4213Z" fill="#717B85"/>
<path d="M54.408 25.14C53.708 25.14 53.0547 25.0513 52.448 24.874C51.8507 24.6873 51.3373 24.4353 50.908 24.118L51.958 22.662C52.49 22.97 52.938 23.1847 53.302 23.306C53.6753 23.418 54.0487 23.474 54.422 23.474C54.8607 23.474 55.192 23.4227 55.416 23.32C55.6493 23.2173 55.766 23.0727 55.766 22.886C55.766 22.7367 55.682 22.62 55.514 22.536C55.3553 22.452 55.1407 22.3867 54.87 22.34C54.6087 22.284 54.3193 22.228 54.002 22.172C53.6847 22.116 53.3627 22.046 53.036 21.962C52.7187 21.8687 52.4247 21.7427 52.154 21.584C51.8927 21.4253 51.678 21.22 51.51 20.968C51.3513 20.7067 51.272 20.38 51.272 19.988C51.272 19.4747 51.4027 19.0453 51.664 18.7C51.9253 18.3547 52.294 18.0933 52.77 17.916C53.2553 17.7293 53.8153 17.636 54.45 17.636C55.01 17.636 55.5747 17.7153 56.144 17.874C56.7133 18.0327 57.236 18.2753 57.712 18.602L56.62 19.988C56.256 19.7453 55.8827 19.568 55.5 19.456C55.1267 19.344 54.758 19.288 54.394 19.288C54.0207 19.288 53.736 19.3347 53.54 19.428C53.3533 19.512 53.26 19.6333 53.26 19.792C53.26 19.9413 53.3393 20.058 53.498 20.142C53.666 20.2167 53.8853 20.2773 54.156 20.324C54.436 20.3707 54.7393 20.422 55.066 20.478C55.3927 20.5247 55.7147 20.5947 56.032 20.688C56.3587 20.772 56.6573 20.898 56.928 21.066C57.208 21.2247 57.4273 21.4347 57.586 21.696C57.754 21.9573 57.838 22.2933 57.838 22.704C57.838 23.1987 57.684 23.628 57.376 23.992C57.0773 24.356 56.6667 24.6407 56.144 24.846C55.6307 25.042 55.052 25.14 54.408 25.14ZM61.7945 25.112C61.3092 25.112 60.8752 25.0187 60.4925 24.832C60.1192 24.6453 59.8252 24.3887 59.6105 24.062C59.4052 23.7353 59.3025 23.3573 59.3025 22.928C59.3025 22.48 59.4145 22.102 59.6385 21.794C59.8625 21.4767 60.1845 21.2387 60.6045 21.08C61.0245 20.912 61.5285 20.828 62.1165 20.828C62.3779 20.828 62.6439 20.856 62.9145 20.912C63.1852 20.968 63.4792 21.0613 63.7965 21.192V20.576C63.7965 20.2213 63.6799 19.96 63.4465 19.792C63.2132 19.6147 62.8539 19.526 62.3685 19.526C62.0979 19.526 61.7945 19.5727 61.4585 19.666C61.1319 19.75 60.7585 19.8807 60.3385 20.058L59.5265 18.448C60.1332 18.1773 60.7072 17.9813 61.2485 17.86C61.7992 17.7293 62.3405 17.664 62.8725 17.664C63.8712 17.664 64.6459 17.902 65.1965 18.378C65.7565 18.854 66.0365 19.5213 66.0365 20.38V25H63.7965V24.314C63.4792 24.594 63.1619 24.7993 62.8445 24.93C62.5272 25.0513 62.1772 25.112 61.7945 25.112ZM61.3885 22.886C61.3885 23.1193 61.4865 23.3013 61.6825 23.432C61.8785 23.5533 62.1492 23.614 62.4945 23.614C62.7372 23.614 62.9659 23.5813 63.1805 23.516C63.4045 23.4413 63.6099 23.3387 63.7965 23.208V22.354C63.5912 22.298 63.3812 22.256 63.1665 22.228C62.9612 22.1907 62.7559 22.172 62.5505 22.172C62.1865 22.172 61.9019 22.2327 61.6965 22.354C61.4912 22.4753 61.3885 22.6527 61.3885 22.886ZM71.1971 25.14C70.4971 25.14 69.8437 25.0513 69.2371 24.874C68.6397 24.6873 68.1264 24.4353 67.6971 24.118L68.7471 22.662C69.2791 22.97 69.7271 23.1847 70.0911 23.306C70.4644 23.418 70.8377 23.474 71.2111 23.474C71.6497 23.474 71.9811 23.4227 72.2051 23.32C72.4384 23.2173 72.5551 23.0727 72.5551 22.886C72.5551 22.7367 72.4711 22.62 72.3031 22.536C72.1444 22.452 71.9297 22.3867 71.6591 22.34C71.3977 22.284 71.1084 22.228 70.7911 22.172C70.4737 22.116 70.1517 22.046 69.8251 21.962C69.5077 21.8687 69.2137 21.7427 68.9431 21.584C68.6817 21.4253 68.4671 21.22 68.2991 20.968C68.1404 20.7067 68.0611 20.38 68.0611 19.988C68.0611 19.4747 68.1917 19.0453 68.4531 18.7C68.7144 18.3547 69.0831 18.0933 69.5591 17.916C70.0444 17.7293 70.6044 17.636 71.2391 17.636C71.7991 17.636 72.3637 17.7153 72.9331 17.874C73.5024 18.0327 74.0251 18.2753 74.5011 18.602L73.4091 19.988C73.0451 19.7453 72.6717 19.568 72.2891 19.456C71.9157 19.344 71.5471 19.288 71.1831 19.288C70.8097 19.288 70.5251 19.3347 70.3291 19.428C70.1424 19.512 70.0491 19.6333 70.0491 19.792C70.0491 19.9413 70.1284 20.058 70.2871 20.142C70.4551 20.2167 70.6744 20.2773 70.9451 20.324C71.2251 20.3707 71.5284 20.422 71.8551 20.478C72.1817 20.5247 72.5037 20.5947 72.8211 20.688C73.1477 20.772 73.4464 20.898 73.7171 21.066C73.9971 21.2247 74.2164 21.4347 74.3751 21.696C74.5431 21.9573 74.6271 22.2933 74.6271 22.704C74.6271 23.1987 74.4731 23.628 74.1651 23.992C73.8664 24.356 73.4557 24.6407 72.9331 24.846C72.4197 25.042 71.8411 25.14 71.1971 25.14ZM79.5916 25.14C78.8916 25.14 78.2383 25.0513 77.6316 24.874C77.0343 24.6873 76.5209 24.4353 76.0916 24.118L77.1416 22.662C77.6736 22.97 78.1216 23.1847 78.4856 23.306C78.8589 23.418 79.2323 23.474 79.6056 23.474C80.0443 23.474 80.3756 23.4227 80.5996 23.32C80.8329 23.2173 80.9496 23.0727 80.9496 22.886C80.9496 22.7367 80.8656 22.62 80.6976 22.536C80.5389 22.452 80.3243 22.3867 80.0536 22.34C79.7923 22.284 79.5029 22.228 79.1856 22.172C78.8683 22.116 78.5463 22.046 78.2196 21.962C77.9023 21.8687 77.6083 21.7427 77.3376 21.584C77.0763 21.4253 76.8616 21.22 76.6936 20.968C76.5349 20.7067 76.4556 20.38 76.4556 19.988C76.4556 19.4747 76.5863 19.0453 76.8476 18.7C77.1089 18.3547 77.4776 18.0933 77.9536 17.916C78.4389 17.7293 78.9989 17.636 79.6336 17.636C80.1936 17.636 80.7583 17.7153 81.3276 17.874C81.8969 18.0327 82.4196 18.2753 82.8956 18.602L81.8036 19.988C81.4396 19.7453 81.0663 19.568 80.6836 19.456C80.3103 19.344 79.9416 19.288 79.5776 19.288C79.2043 19.288 78.9196 19.3347 78.7236 19.428C78.5369 19.512 78.4436 19.6333 78.4436 19.792C78.4436 19.9413 78.5229 20.058 78.6816 20.142C78.8496 20.2167 79.0689 20.2773 79.3396 20.324C79.6196 20.3707 79.9229 20.422 80.2496 20.478C80.5763 20.5247 80.8983 20.5947 81.2156 20.688C81.5423 20.772 81.8409 20.898 82.1116 21.066C82.3916 21.2247 82.6109 21.4347 82.7696 21.696C82.9376 21.9573 83.0216 22.2933 83.0216 22.704C83.0216 23.1987 82.8676 23.628 82.5596 23.992C82.2609 24.356 81.8503 24.6407 81.3276 24.846C80.8143 25.042 80.2356 25.14 79.5916 25.14Z" fill="#717B85"/>
<rect x="0.75" y="0.5" width="104" height="39" rx="2.5" stroke="#717B85"/>
</svg>
