<svg width="119" height="40" viewBox="0 0 119 40" fill="none" xmlns="http://www.w3.org/2000/svg">
<rect x="0.5" y="0.5" width="117.168" height="39.0004" rx="2.5" fill="#F8F8F8"/>
<path d="M36.3321 28.1226L24.1197 35.0004V29.6435L31.7288 25.4762L36.3321 28.1226ZM37.1675 27.3694V12.9856L32.6985 15.5536V24.7986L37.1675 27.3694ZM10.8354 28.1226L23.0478 35.0004V29.6435L15.4388 25.4762L10.8354 28.1226ZM10 27.3694V12.9856L14.4689 15.5536V24.7986L10 27.3694ZM10.5229 12.055L23.0478 5V10.1793L15.0238 14.5734L14.9626 14.6084L10.5229 12.055ZM36.6447 12.055L24.1197 5V10.1793L32.1437 14.5735L32.2049 14.6085L36.6447 12.055ZM23.0479 28.425L15.5409 24.3159V16.1731L23.0476 20.4887L23.0479 28.425ZM24.1197 28.425L31.6264 24.3159V16.1731L24.1197 20.4887V28.425ZM16.0493 15.2308L23.5851 11.1039L31.1213 15.2308L23.5852 19.5639L16.0493 15.2308Z" fill="#717B85"/>
<path d="M48.7495 25.0002L47.3775 17.7762H49.1555L49.7715 21.8502L50.5975 17.7762H52.1795L53.0475 21.8642L53.6355 17.7762H55.3575L54.0135 25.0002H52.2215L51.3815 20.7302L50.5555 25.0002H48.7495ZM59.972 25.1402C59.244 25.1402 58.586 24.9768 57.998 24.6502C57.4194 24.3142 56.9574 23.8662 56.612 23.3062C56.2667 22.7368 56.094 22.1022 56.094 21.4022C56.094 20.6928 56.2574 20.0582 56.584 19.4982C56.9107 18.9382 57.354 18.4948 57.914 18.1682C58.474 17.8322 59.104 17.6642 59.804 17.6642C60.532 17.6642 61.1714 17.8275 61.722 18.1542C62.282 18.4808 62.716 18.9335 63.024 19.5122C63.3414 20.0815 63.5 20.7395 63.5 21.4862V21.9762H58.32C58.3947 22.2468 58.516 22.4848 58.684 22.6902C58.852 22.8955 59.0574 23.0542 59.3 23.1662C59.5427 23.2782 59.804 23.3342 60.084 23.3342C60.4107 23.3342 60.7047 23.2735 60.966 23.1522C61.2367 23.0308 61.4607 22.8582 61.638 22.6342L63.094 23.9362C62.6367 24.3748 62.156 24.6875 61.652 24.8742C61.1574 25.0515 60.5974 25.1402 59.972 25.1402ZM58.334 20.6882H61.4C61.3347 20.4175 61.232 20.1888 61.092 20.0022C60.952 19.8155 60.7794 19.6755 60.574 19.5822C60.3687 19.4795 60.1354 19.4282 59.874 19.4282C59.622 19.4282 59.3887 19.4795 59.174 19.5822C58.9687 19.6755 58.796 19.8155 58.656 20.0022C58.516 20.1888 58.4087 20.4175 58.334 20.6882ZM64.7826 24.9862V14.9482L67.0506 14.6262V18.3782C67.2746 18.1542 67.5266 17.9815 67.8066 17.8602C68.0959 17.7295 68.3992 17.6642 68.7166 17.6642C69.3046 17.6642 69.8412 17.8275 70.3266 18.1542C70.8119 18.4808 71.1992 18.9242 71.4886 19.4842C71.7779 20.0442 71.9226 20.6788 71.9226 21.3882C71.9226 22.0882 71.7779 22.7228 71.4886 23.2922C71.1992 23.8522 70.8119 24.2955 70.3266 24.6222C69.8412 24.9488 69.3046 25.1122 68.7166 25.1122C68.3712 25.1122 68.0492 25.0422 67.7506 24.9022C67.4612 24.7622 67.1999 24.5615 66.9666 24.3002V24.9862H64.7826ZM68.1846 23.3202C68.5019 23.3202 68.7726 23.2408 68.9966 23.0822C69.2206 22.9235 69.3932 22.6995 69.5146 22.4102C69.6359 22.1115 69.6966 21.7708 69.6966 21.3882C69.6966 20.9962 69.6359 20.6555 69.5146 20.3662C69.3932 20.0768 69.2206 19.8528 68.9966 19.6942C68.7726 19.5355 68.5019 19.4562 68.1846 19.4562C67.9699 19.4562 67.7646 19.4982 67.5686 19.5822C67.3819 19.6568 67.2092 19.7642 67.0506 19.9042V22.8722C67.2092 23.0122 67.3819 23.1242 67.5686 23.2082C67.7646 23.2828 67.9699 23.3202 68.1846 23.3202ZM73.1771 27.9262V17.7762H75.3611V18.4762C75.5944 18.2148 75.8558 18.0142 76.1451 17.8742C76.4438 17.7342 76.7658 17.6642 77.1111 17.6642C77.6991 17.6642 78.2358 17.8275 78.7211 18.1542C79.2064 18.4808 79.5938 18.9242 79.8831 19.4842C80.1724 20.0442 80.3171 20.6788 80.3171 21.3882C80.3171 22.0882 80.1724 22.7228 79.8831 23.2922C79.5938 23.8522 79.2064 24.2955 78.7211 24.6222C78.2358 24.9488 77.6991 25.1122 77.1111 25.1122C76.7938 25.1122 76.4904 25.0515 76.2011 24.9302C75.9211 24.7995 75.6691 24.6222 75.4451 24.3982V27.9262H73.1771ZM76.5791 23.3202C76.8964 23.3202 77.1671 23.2408 77.3911 23.0822C77.6151 22.9235 77.7878 22.6995 77.9091 22.4102C78.0304 22.1115 78.0911 21.7708 78.0911 21.3882C78.0911 20.9962 78.0304 20.6555 77.9091 20.3662C77.7878 20.0768 77.6151 19.8528 77.3911 19.6942C77.1671 19.5355 76.8964 19.4562 76.5791 19.4562C76.3644 19.4562 76.1591 19.4982 75.9631 19.5822C75.7764 19.6568 75.6038 19.7642 75.4451 19.9042V22.8722C75.6038 23.0122 75.7764 23.1242 75.9631 23.2082C76.1591 23.2828 76.3644 23.3202 76.5791 23.3202ZM83.8956 25.1122C83.4103 25.1122 82.9763 25.0188 82.5936 24.8322C82.2203 24.6455 81.9263 24.3888 81.7116 24.0622C81.5063 23.7355 81.4036 23.3575 81.4036 22.9282C81.4036 22.4802 81.5156 22.1022 81.7396 21.7942C81.9636 21.4768 82.2856 21.2388 82.7056 21.0802C83.1256 20.9122 83.6296 20.8282 84.2176 20.8282C84.479 20.8282 84.745 20.8562 85.0156 20.9122C85.2863 20.9682 85.5803 21.0615 85.8976 21.1922V20.5762C85.8976 20.2215 85.781 19.9602 85.5476 19.7922C85.3143 19.6148 84.955 19.5262 84.4696 19.5262C84.199 19.5262 83.8956 19.5728 83.5596 19.6662C83.233 19.7502 82.8596 19.8808 82.4396 20.0582L81.6276 18.4482C82.2343 18.1775 82.8083 17.9815 83.3496 17.8602C83.9003 17.7295 84.4416 17.6642 84.9736 17.6642C85.9723 17.6642 86.747 17.9022 87.2976 18.3782C87.8576 18.8542 88.1376 19.5215 88.1376 20.3802V25.0002H85.8976V24.3142C85.5803 24.5942 85.263 24.7995 84.9456 24.9302C84.6283 25.0515 84.2783 25.1122 83.8956 25.1122ZM83.4896 22.8862C83.4896 23.1195 83.5876 23.3015 83.7836 23.4322C83.9796 23.5535 84.2503 23.6142 84.5956 23.6142C84.8383 23.6142 85.067 23.5815 85.2816 23.5162C85.5056 23.4415 85.711 23.3388 85.8976 23.2082V22.3542C85.6923 22.2982 85.4823 22.2562 85.2676 22.2282C85.0623 22.1908 84.857 22.1722 84.6516 22.1722C84.2876 22.1722 84.003 22.2328 83.7976 22.3542C83.5923 22.4755 83.4896 22.6528 83.4896 22.8862ZM93.6062 25.1402C92.8595 25.1402 92.1875 24.9768 91.5902 24.6502C90.9928 24.3142 90.5215 23.8662 90.1762 23.3062C89.8308 22.7368 89.6582 22.1022 89.6582 21.4022C89.6582 20.6928 89.8308 20.0582 90.1762 19.4982C90.5215 18.9382 90.9928 18.4948 91.5902 18.1682C92.1875 17.8322 92.8595 17.6642 93.6062 17.6642C94.3622 17.6642 95.0435 17.8228 95.6502 18.1402C96.2568 18.4575 96.7282 18.8775 97.0642 19.4002L95.3562 20.6462C95.1975 20.3195 94.9642 20.0628 94.6562 19.8762C94.3482 19.6895 94.0028 19.5962 93.6202 19.5962C93.2935 19.5962 92.9995 19.6755 92.7382 19.8342C92.4862 19.9928 92.2855 20.2075 92.1362 20.4782C91.9868 20.7488 91.9122 21.0568 91.9122 21.4022C91.9122 21.7475 91.9868 22.0555 92.1362 22.3262C92.2855 22.5968 92.4862 22.8115 92.7382 22.9702C92.9995 23.1288 93.2935 23.2082 93.6202 23.2082C94.0028 23.2082 94.3482 23.1148 94.6562 22.9282C94.9642 22.7322 95.1975 22.4755 95.3562 22.1582L97.0642 23.4042C96.7282 23.9268 96.2568 24.3468 95.6502 24.6642C95.0435 24.9815 94.3622 25.1402 93.6062 25.1402ZM98.3607 25.0002V15.0042L100.629 14.6822V20.6462L103.149 17.7762H105.655L102.715 21.0102L105.865 25.0002H103.037L100.629 21.8082V25.0002H98.3607Z" fill="#717B85"/>
<rect x="0.5" y="0.5" width="117.168" height="39.0004" rx="2.5" stroke="#717B85"/>
</svg>
