<svg width="136" height="40" viewBox="0 0 136 40" fill="none" xmlns="http://www.w3.org/2000/svg">
<rect x="0.5" y="0.500671" width="135" height="39" rx="2.5" fill="#F8F8F8"/>
<path d="M36.8363 13.5319C37.8862 15.4532 38.4838 17.6569 38.4838 20.0007C38.4838 24.9744 35.7887 29.3207 31.78 31.6569L35.8988 19.7482C36.6675 17.8232 36.9237 16.2844 36.9237 14.9182C36.9237 14.4119 36.8913 13.9432 36.8363 13.5307V13.5319ZM26.86 13.6619C27.6688 13.6244 28.4 13.5307 28.4 13.5307C29.1275 13.4369 29.0425 12.3682 28.3162 12.4069C28.3162 12.4069 26.1225 12.5757 24.7162 12.5757C23.3862 12.5757 21.1538 12.3882 21.1538 12.3882C20.4225 12.3507 20.3275 13.4569 21.06 13.4944C21.06 13.4944 21.735 13.5707 22.4662 13.6069L24.5662 19.3632L21.6038 28.2132L16.6925 13.6257C17.5037 13.5882 18.235 13.5007 18.235 13.5007C18.9662 13.4069 18.88 12.3382 18.1537 12.3807C18.1537 12.3807 15.9712 12.5532 14.5612 12.5532C14.3112 12.5532 14.0138 12.5432 13.6988 12.5344C16.1388 8.93817 20.2937 6.51942 25 6.51942C28.5112 6.51942 31.7062 7.85942 34.1075 10.0607C34.05 10.0569 33.9938 10.0494 33.9313 10.0494C32.6063 10.0494 31.6663 11.2032 31.6663 12.4419C31.6663 13.5544 32.3075 14.4957 32.9912 15.6057C33.505 16.5057 34.1038 17.6594 34.1038 19.3269C34.1038 20.4707 33.6612 21.8194 33.0775 23.6757L31.7337 28.1569L26.8588 13.6444L26.86 13.6619ZM25 33.4807C23.6763 33.4807 22.3987 33.2894 21.19 32.9344L25.2362 21.1769L29.38 32.5357C29.41 32.6019 29.4425 32.6619 29.4775 32.7219C28.0775 33.2132 26.5713 33.4832 25 33.4832V33.4807ZM11.5137 20.0007C11.5137 18.0457 11.9337 16.1882 12.6825 14.5132L19.1125 32.1369C14.6175 29.9507 11.515 25.3394 11.5137 20.0007ZM25 5.00067C16.7313 5.00067 10 11.7319 10 20.0007C10 28.2694 16.7313 35.0007 25 35.0007C33.2687 35.0007 40 28.2694 40 20.0007C40 11.7319 33.2687 5.00067 25 5.00067Z" fill="#717B85"/>
<path d="M51.582 25.0007L50.21 17.7767H51.988L52.604 21.8507L53.43 17.7767H55.012L55.88 21.8647L56.468 17.7767H58.19L56.846 25.0007H55.054L54.214 20.7307L53.388 25.0007H51.582ZM62.6085 25.1407C61.8899 25.1407 61.2459 24.9773 60.6765 24.6507C60.1072 24.3147 59.6545 23.8667 59.3185 23.3067C58.9919 22.7373 58.8285 22.098 58.8285 21.3887C58.8285 20.6887 58.9919 20.0587 59.3185 19.4987C59.6545 18.9387 60.1072 18.4953 60.6765 18.1687C61.2459 17.8327 61.8852 17.6647 62.5945 17.6647C63.3132 17.6647 63.9525 17.8327 64.5125 18.1687C65.0819 18.4953 65.5299 18.9387 65.8565 19.4987C66.1925 20.0587 66.3605 20.6933 66.3605 21.4027C66.3605 22.1027 66.1925 22.7373 65.8565 23.3067C65.5299 23.8667 65.0819 24.3147 64.5125 24.6507C63.9525 24.9773 63.3179 25.1407 62.6085 25.1407ZM62.5945 23.2367C62.9025 23.2367 63.1732 23.1573 63.4065 22.9987C63.6399 22.84 63.8219 22.6253 63.9525 22.3547C64.0832 22.0747 64.1485 21.7573 64.1485 21.4027C64.1485 21.048 64.0832 20.7353 63.9525 20.4647C63.8219 20.1847 63.6399 19.9653 63.4065 19.8067C63.1732 19.648 62.9025 19.5687 62.5945 19.5687C62.2959 19.5687 62.0252 19.648 61.7825 19.8067C61.5492 19.9653 61.3672 20.1847 61.2365 20.4647C61.1059 20.7353 61.0405 21.048 61.0405 21.4027C61.0405 21.7573 61.1059 22.0747 61.2365 22.3547C61.3672 22.6253 61.5492 22.84 61.7825 22.9987C62.0252 23.1573 62.2959 23.2367 62.5945 23.2367ZM67.6011 25.0007V23.2507H69.1691V19.5267H67.6011V17.7767H71.4371V19.5967C71.6984 18.934 72.0251 18.4487 72.4171 18.1407C72.8184 17.8233 73.2711 17.6647 73.7751 17.6647C73.9897 17.6647 74.1577 17.6787 74.2791 17.7067C74.4097 17.7347 74.5637 17.7907 74.7411 17.8747V19.9047C74.5637 19.8207 74.3491 19.76 74.0971 19.7227C73.8544 19.676 73.6117 19.6527 73.3691 19.6527C72.9771 19.6527 72.6084 19.7413 72.2631 19.9187C71.9177 20.0867 71.6424 20.32 71.4371 20.6187V23.2507H73.0891V25.0007H67.6011ZM78.8236 25.1127C78.2356 25.1127 77.6989 24.9493 77.2136 24.6227C76.7283 24.296 76.3409 23.8527 76.0516 23.2927C75.7623 22.7233 75.6176 22.0887 75.6176 21.3887C75.6176 20.6793 75.7623 20.0447 76.0516 19.4847C76.3409 18.9247 76.7283 18.4813 77.2136 18.1547C77.6989 17.828 78.2356 17.6647 78.8236 17.6647C79.1503 17.6647 79.4536 17.73 79.7336 17.8607C80.0136 17.982 80.2656 18.1547 80.4896 18.3787V15.0047L82.7576 14.6827V25.0007H80.5736V24.3007C80.3403 24.562 80.0743 24.7627 79.7756 24.9027C79.4863 25.0427 79.1689 25.1127 78.8236 25.1127ZM79.3556 23.3207C79.5703 23.3207 79.7756 23.2833 79.9716 23.2087C80.1676 23.1247 80.3403 23.0127 80.4896 22.8727V19.9047C80.3403 19.7647 80.1676 19.6573 79.9716 19.5827C79.7756 19.4987 79.5703 19.4567 79.3556 19.4567C79.0476 19.4567 78.7769 19.536 78.5436 19.6947C78.3196 19.8533 78.1469 20.0773 78.0256 20.3667C77.9043 20.656 77.8436 20.9967 77.8436 21.3887C77.8436 21.7713 77.9043 22.112 78.0256 22.4107C78.1469 22.7 78.3196 22.924 78.5436 23.0827C78.7769 23.2413 79.0476 23.3207 79.3556 23.3207ZM84.4041 27.9267V17.7767H86.5881V18.4767C86.8215 18.2153 87.0828 18.0147 87.3721 17.8747C87.6708 17.7347 87.9928 17.6647 88.3381 17.6647C88.9261 17.6647 89.4628 17.828 89.9481 18.1547C90.4335 18.4813 90.8208 18.9247 91.1101 19.4847C91.3995 20.0447 91.5441 20.6793 91.5441 21.3887C91.5441 22.0887 91.3995 22.7233 91.1101 23.2927C90.8208 23.8527 90.4335 24.296 89.9481 24.6227C89.4628 24.9493 88.9261 25.1127 88.3381 25.1127C88.0208 25.1127 87.7175 25.052 87.4281 24.9307C87.1481 24.8 86.8961 24.6227 86.6721 24.3987V27.9267H84.4041ZM87.8061 23.3207C88.1235 23.3207 88.3941 23.2413 88.6181 23.0827C88.8421 22.924 89.0148 22.7 89.1361 22.4107C89.2575 22.112 89.3181 21.7713 89.3181 21.3887C89.3181 20.9967 89.2575 20.656 89.1361 20.3667C89.0148 20.0773 88.8421 19.8533 88.6181 19.6947C88.3941 19.536 88.1235 19.4567 87.8061 19.4567C87.5915 19.4567 87.3861 19.4987 87.1901 19.5827C87.0035 19.6573 86.8308 19.7647 86.6721 19.9047V22.8727C86.8308 23.0127 87.0035 23.1247 87.1901 23.2087C87.3861 23.2833 87.5915 23.3207 87.8061 23.3207ZM92.7847 25.0007V23.2507H94.3527V19.5267H92.7847V17.7767H96.6207V19.5967C96.882 18.934 97.2087 18.4487 97.6007 18.1407C98.002 17.8233 98.4547 17.6647 98.9587 17.6647C99.1733 17.6647 99.3413 17.6787 99.4627 17.7067C99.5933 17.7347 99.7473 17.7907 99.9247 17.8747V19.9047C99.7473 19.8207 99.5327 19.76 99.2807 19.7227C99.038 19.676 98.7953 19.6527 98.5527 19.6527C98.1607 19.6527 97.792 19.7413 97.4467 19.9187C97.1013 20.0867 96.826 20.32 96.6207 20.6187V23.2507H98.2727V25.0007H92.7847ZM104.777 25.1407C104.049 25.1407 103.391 24.9773 102.803 24.6507C102.225 24.3147 101.763 23.8667 101.417 23.3067C101.072 22.7373 100.899 22.1027 100.899 21.4027C100.899 20.6933 101.063 20.0587 101.389 19.4987C101.716 18.9387 102.159 18.4953 102.719 18.1687C103.279 17.8327 103.909 17.6647 104.609 17.6647C105.337 17.6647 105.977 17.828 106.527 18.1547C107.087 18.4813 107.521 18.934 107.829 19.5127C108.147 20.082 108.305 20.74 108.305 21.4867V21.9767H103.125C103.2 22.2473 103.321 22.4853 103.489 22.6907C103.657 22.896 103.863 23.0547 104.105 23.1667C104.348 23.2787 104.609 23.3347 104.889 23.3347C105.216 23.3347 105.51 23.274 105.771 23.1527C106.042 23.0313 106.266 22.8587 106.443 22.6347L107.899 23.9367C107.442 24.3753 106.961 24.688 106.457 24.8747C105.963 25.052 105.403 25.1407 104.777 25.1407ZM103.139 20.6887H106.205C106.14 20.418 106.037 20.1893 105.897 20.0027C105.757 19.816 105.585 19.676 105.379 19.5827C105.174 19.48 104.941 19.4287 104.679 19.4287C104.427 19.4287 104.194 19.48 103.979 19.5827C103.774 19.676 103.601 19.816 103.461 20.0027C103.321 20.1893 103.214 20.418 103.139 20.6887ZM112.92 25.1407C112.22 25.1407 111.566 25.052 110.96 24.8747C110.362 24.688 109.849 24.436 109.42 24.1187L110.47 22.6627C111.002 22.9707 111.45 23.1853 111.814 23.3067C112.187 23.4187 112.56 23.4747 112.934 23.4747C113.372 23.4747 113.704 23.4233 113.928 23.3207C114.161 23.218 114.278 23.0733 114.278 22.8867C114.278 22.7373 114.194 22.6207 114.026 22.5367C113.867 22.4527 113.652 22.3873 113.382 22.3407C113.12 22.2847 112.831 22.2287 112.514 22.1727C112.196 22.1167 111.874 22.0467 111.548 21.9627C111.23 21.8693 110.936 21.7433 110.666 21.5847C110.404 21.426 110.19 21.2207 110.022 20.9687C109.863 20.7073 109.784 20.3807 109.784 19.9887C109.784 19.4753 109.914 19.046 110.176 18.7007C110.437 18.3553 110.806 18.094 111.282 17.9167C111.767 17.73 112.327 17.6367 112.962 17.6367C113.522 17.6367 114.086 17.716 114.656 17.8747C115.225 18.0333 115.748 18.276 116.224 18.6027L115.132 19.9887C114.768 19.746 114.394 19.5687 114.012 19.4567C113.638 19.3447 113.27 19.2887 112.906 19.2887C112.532 19.2887 112.248 19.3353 112.052 19.4287C111.865 19.5127 111.772 19.634 111.772 19.7927C111.772 19.942 111.851 20.0587 112.01 20.1427C112.178 20.2173 112.397 20.278 112.668 20.3247C112.948 20.3713 113.251 20.4227 113.578 20.4787C113.904 20.5253 114.226 20.5953 114.544 20.6887C114.87 20.7727 115.169 20.8987 115.44 21.0667C115.72 21.2253 115.939 21.4353 116.098 21.6967C116.266 21.958 116.35 22.294 116.35 22.7047C116.35 23.1993 116.196 23.6287 115.888 23.9927C115.589 24.3567 115.178 24.6413 114.656 24.8467C114.142 25.0427 113.564 25.1407 112.92 25.1407ZM121.314 25.1407C120.614 25.1407 119.961 25.052 119.354 24.8747C118.757 24.688 118.244 24.436 117.814 24.1187L118.864 22.6627C119.396 22.9707 119.844 23.1853 120.208 23.3067C120.582 23.4187 120.955 23.4747 121.328 23.4747C121.767 23.4747 122.098 23.4233 122.322 23.3207C122.556 23.218 122.672 23.0733 122.672 22.8867C122.672 22.7373 122.588 22.6207 122.42 22.5367C122.262 22.4527 122.047 22.3873 121.776 22.3407C121.515 22.2847 121.226 22.2287 120.908 22.1727C120.591 22.1167 120.269 22.0467 119.942 21.9627C119.625 21.8693 119.331 21.7433 119.06 21.5847C118.799 21.426 118.584 21.2207 118.416 20.9687C118.258 20.7073 118.178 20.3807 118.178 19.9887C118.178 19.4753 118.309 19.046 118.57 18.7007C118.832 18.3553 119.2 18.094 119.676 17.9167C120.162 17.73 120.722 17.6367 121.356 17.6367C121.916 17.6367 122.481 17.716 123.05 17.8747C123.62 18.0333 124.142 18.276 124.618 18.6027L123.526 19.9887C123.162 19.746 122.789 19.5687 122.406 19.4567C122.033 19.3447 121.664 19.2887 121.3 19.2887C120.927 19.2887 120.642 19.3353 120.446 19.4287C120.26 19.5127 120.166 19.634 120.166 19.7927C120.166 19.942 120.246 20.0587 120.404 20.1427C120.572 20.2173 120.792 20.278 121.062 20.3247C121.342 20.3713 121.646 20.4227 121.972 20.4787C122.299 20.5253 122.621 20.5953 122.938 20.6887C123.265 20.7727 123.564 20.8987 123.834 21.0667C124.114 21.2253 124.334 21.4353 124.492 21.6967C124.66 21.958 124.744 22.294 124.744 22.7047C124.744 23.1993 124.59 23.6287 124.282 23.9927C123.984 24.3567 123.573 24.6413 123.05 24.8467C122.537 25.0427 121.958 25.1407 121.314 25.1407Z" fill="#717B85"/>
<rect x="0.5" y="0.500671" width="135" height="39" rx="2.5" stroke="#717B85"/>
</svg>
